<?xml version="1.0" standalone="no"?>
<!DOCTYPE svg PUBLIC "-//W3C//DTD SVG 1.1//EN" "http://www.w3.org/Graphics/SVG/1.1/DTD/svg11.dtd" >
<svg xmlns="http://www.w3.org/2000/svg" xmlns:xlink="http://www.w3.org/1999/xlink" version="1.1">
<metadata>
Created by FontForge 20181014 at Mon Jul  6 12:09:02 2020
 By convertio
Copyright \(c\) 2009-2020 by Hamish Makgill. All rights reserved.
</metadata>
<defs>
<font id="Pantograph-Regular" horiz-adv-x="0" >
  <font-face 
    font-family="Pantograph"
    font-weight="400"
    font-stretch="normal"
    units-per-em="1000"
    panose-1="2 15 5 3 3 2 1 4 1 3"
    ascent="800"
    descent="-200"
    x-height="498"
    cap-height="704"
    bbox="-314 -211.979 962 902.453"
    underline-thickness="50"
    underline-position="-100"
    stemh="76"
    stemv="86"
    unicode-range="U+000D-FB02"
  />
<missing-glyph horiz-adv-x="612" 
d="M120 0c-23 0 -45 17 -45 48v604c0 31 22 48 45 48h372c23 0 44 -17 44 -48v-604c0 -31 -21 -48 -44 -48h-372zM164 79h283v542h-283v-542z" />
    <glyph glyph-name="f_i" unicode="fi" horiz-adv-x="530" 
d="M242 629c-38 0 -61 -27 -61 -80v-50h98c24 0 44 -14 44 -38s-19 -38 -44 -38h-98v-382c0 -28 -20 -45 -43 -45s-43 17 -43 45v382h-50c-26 0 -45 14 -45 38s19 38 45 38h50v49c0 101 60 161 146 161c18 0 34 -2 53 -9c28 -11 36 -38 26 -57c-9 -16 -27 -23 -50 -18
c-9 2 -18 4 -28 4zM423 569c-29 0 -55 22 -55 55s26 56 55 56s54 -23 54 -56s-25 -55 -54 -55zM423 503c23 0 43 -17 43 -45v-417c0 -28 -21 -45 -43 -45c-23 0 -44 17 -44 45v417c0 28 21 45 44 45z" />
    <glyph glyph-name="f_l" unicode="fl" horiz-adv-x="530" 
d="M242 629c-38 0 -61 -27 -61 -80v-50h98c24 0 44 -14 44 -38s-19 -38 -44 -38h-98v-382c0 -28 -20 -45 -43 -45s-43 17 -43 45v382h-50c-26 0 -45 14 -45 38s19 38 45 38h50v49c0 101 60 161 146 161c18 0 34 -2 53 -9c28 -11 36 -38 26 -57c-9 -16 -27 -23 -50 -18
c-9 2 -18 4 -28 4zM423 704c23 0 43 -17 43 -45v-618c0 -28 -21 -45 -43 -45c-23 0 -43 17 -43 45v618c0 28 20 45 43 45z" />
    <glyph glyph-name=".notdef" horiz-adv-x="612" 
d="M120 0c-23 0 -45 17 -45 48v604c0 31 22 48 45 48h372c23 0 44 -17 44 -48v-604c0 -31 -21 -48 -44 -48h-372zM164 79h283v542h-283v-542z" />
    <glyph glyph-name="CR" unicode="&#xd;" 
 />
    <glyph glyph-name="space" unicode=" " horiz-adv-x="200" 
 />
    <glyph glyph-name="A" unicode="A" horiz-adv-x="531" 
d="M506 58c10 -30 -2 -51 -23 -58c-21 -8 -51 -1 -62 33l-40 128h-231l-40 -128c-10 -33 -39 -41 -61 -34c-21 7 -33 29 -24 58l197 612c8 24 26 35 44 35s36 -11 44 -35zM173 238h184l-93 294z" />
    <glyph glyph-name="Aacute" unicode="&#xc1;" horiz-adv-x="531" 
d="M244 744c-14 12 -19 36 -1 57l64 73c19 22 44 23 59 10s19 -37 1 -58l-64 -72c-19 -22 -43 -23 -59 -10zM506 58c10 -30 -2 -51 -23 -58c-21 -8 -51 -1 -62 33l-40 128h-231l-40 -128c-10 -33 -39 -41 -61 -34c-21 7 -33 29 -24 58l197 612c8 24 26 35 44 35
s36 -11 44 -35zM173 238h184l-93 294z" />
    <glyph glyph-name="Abreve" unicode="&#x102;" horiz-adv-x="531" 
d="M266 740c-61 0 -103 38 -105 93c-1 24 14 39 32 40c19 0 33 -13 36 -35s16 -35 37 -35c20 0 33 13 36 35s17 35 36 35c19 -1 33 -16 32 -40c-2 -54 -42 -93 -104 -93zM506 58c10 -30 -2 -51 -23 -58c-21 -8 -51 -1 -62 33l-40 128h-231l-40 -128c-10 -33 -39 -41 -61 -34
c-21 7 -33 29 -24 58l197 612c8 24 26 35 44 35s36 -11 44 -35zM173 238h184l-93 294z" />
    <glyph glyph-name="Acircumflex" unicode="&#xc2;" horiz-adv-x="531" 
d="M214 754c-19 -16 -42 -16 -55 0c-11 15 -9 37 11 53l63 53c13 11 23 14 33 14c11 0 21 -3 34 -14l63 -53c20 -16 23 -38 10 -53c-12 -16 -35 -16 -54 0l-52 43zM506 58c10 -30 -2 -51 -23 -58c-21 -8 -51 -1 -62 33l-40 128h-231l-40 -128c-10 -33 -39 -41 -61 -34
c-21 7 -33 29 -24 58l197 612c8 24 26 35 44 35s36 -11 44 -35zM173 238h184l-93 294z" />
    <glyph glyph-name="Adieresis" unicode="&#xc4;" horiz-adv-x="531" 
d="M179 754c-29 0 -55 22 -55 56c0 33 26 55 55 55s55 -22 55 -55c0 -34 -26 -56 -55 -56zM353 754c-29 0 -55 22 -55 56c0 33 26 55 55 55s55 -22 55 -55c0 -34 -26 -56 -55 -56zM506 58c10 -30 -2 -51 -23 -58c-21 -8 -51 -1 -62 33l-40 128h-231l-40 -128
c-10 -33 -39 -41 -61 -34c-21 7 -33 29 -24 58l197 612c8 24 26 35 44 35s36 -11 44 -35zM173 238h184l-93 294z" />
    <glyph glyph-name="Agrave" unicode="&#xc0;" horiz-adv-x="531" 
d="M231 754l-65 72c-17 21 -13 45 2 58s40 12 58 -10l65 -73c18 -21 13 -45 -2 -57c-15 -13 -39 -12 -58 10zM506 58c10 -30 -2 -51 -23 -58c-21 -8 -51 -1 -62 33l-40 128h-231l-40 -128c-10 -33 -39 -41 -61 -34c-21 7 -33 29 -24 58l197 612c8 24 26 35 44 35
s36 -11 44 -35zM173 238h184l-93 294z" />
    <glyph glyph-name="Amacron" unicode="&#x100;" horiz-adv-x="531" 
d="M189 768c-23 0 -41 13 -41 36s18 35 41 35h156c22 0 39 -12 39 -35s-17 -36 -39 -36h-156zM506 58c10 -30 -2 -51 -23 -58c-21 -8 -51 -1 -62 33l-40 128h-231l-40 -128c-10 -33 -39 -41 -61 -34c-21 7 -33 29 -24 58l197 612c8 24 26 35 44 35s36 -11 44 -35zM173 238
h184l-93 294z" />
    <glyph glyph-name="Aogonek" unicode="&#x104;" horiz-adv-x="531" 
d="M483 -101c21 -2 33 -14 32 -31c-1 -18 -14 -30 -41 -31c-55 -2 -97 34 -97 87c0 35 20 69 53 92c-4 4 -7 10 -9 17l-40 128h-231l-40 -128c-10 -33 -39 -41 -61 -34c-21 7 -33 29 -24 58l197 612c8 24 26 35 44 35s36 -11 44 -35l196 -611c9 -27 0 -46 -17 -56l-15 -10
c-16 -13 -28 -33 -28 -54c0 -24 15 -38 37 -39zM173 238h184l-93 294z" />
    <glyph glyph-name="Aring" unicode="&#xc5;" horiz-adv-x="531" 
d="M268 725c-50 0 -86 36 -86 81c0 46 36 82 86 82c49 0 85 -36 85 -82c0 -45 -36 -81 -85 -81zM268 839c-18 0 -32 -14 -32 -33c0 -17 14 -32 32 -32s31 15 31 32c0 19 -13 33 -31 33zM506 58c10 -30 -2 -51 -23 -58c-21 -8 -51 -1 -62 33l-40 128h-231l-40 -128
c-10 -33 -39 -41 -61 -34c-21 7 -33 29 -24 58l197 612c8 24 26 35 44 35s36 -11 44 -35zM173 238h184l-93 294z" />
    <glyph glyph-name="Atilde" unicode="&#xc3;" horiz-adv-x="531" 
d="M163 751c-17 4 -27 19 -22 44c8 39 38 62 74 62c14 0 26 -2 37 -6c16 -7 27 -13 42 -20c7 -3 12 -5 17 -5c8 0 13 3 17 13c8 20 26 26 42 23c16 -4 26 -19 21 -43c-7 -39 -37 -63 -74 -63c-14 0 -26 2 -37 6c-17 7 -28 14 -42 20c-7 3 -12 5 -17 5c-8 0 -13 -4 -17 -13
c-8 -20 -26 -27 -41 -23zM506 58c10 -30 -2 -51 -23 -58c-21 -8 -51 -1 -62 33l-40 128h-231l-40 -128c-10 -33 -39 -41 -61 -34c-21 7 -33 29 -24 58l197 612c8 24 26 35 44 35s36 -11 44 -35zM173 238h184l-93 294z" />
    <glyph glyph-name="AE" unicode="&#xc6;" horiz-adv-x="725" 
d="M654 79c25 0 44 -15 44 -39c0 -25 -19 -40 -44 -40h-256c-22 0 -44 17 -44 46v116h-184l-72 -137c-16 -30 -45 -34 -64 -23c-19 10 -29 33 -13 62l322 601c13 23 29 35 52 35h1h258c25 0 44 -15 44 -40c0 -24 -19 -39 -44 -39h-214v-212h163c25 0 44 -16 44 -40
s-20 -40 -44 -40h-163v-250h214zM209 238h145v277z" />
    <glyph glyph-name="AEacute" unicode="&#x1fc;" horiz-adv-x="725" 
d="M400 744c-14 12 -19 36 -1 57l64 73c19 22 44 23 59 10s19 -37 1 -58l-64 -72c-19 -22 -43 -23 -59 -10zM654 79c25 0 44 -15 44 -39c0 -25 -19 -40 -44 -40h-256c-22 0 -44 17 -44 46v116h-184l-72 -137c-16 -30 -45 -34 -64 -23c-19 10 -29 33 -13 62l322 601
c13 23 29 35 52 35h1h258c25 0 44 -15 44 -40c0 -24 -19 -39 -44 -39h-214v-212h163c25 0 44 -16 44 -40s-20 -40 -44 -40h-163v-250h214zM209 238h145v277z" />
    <glyph glyph-name="B" unicode="B" horiz-adv-x="528" 
d="M392 374c70 -32 105 -102 105 -175c0 -110 -77 -199 -202 -199h-175c-23 0 -45 17 -45 48v605c0 30 22 47 45 47h158c109 0 188 -75 188 -182c0 -63 -27 -115 -74 -144zM164 621v-214h119c50 0 92 40 92 106c0 68 -47 108 -98 108h-113zM293 79c67 0 112 54 112 123
c0 74 -52 127 -124 127h-117v-250h129z" />
    <glyph glyph-name="C" unicode="C" horiz-adv-x="555" 
d="M310 -9c-145 0 -265 138 -264 359c0 221 119 359 264 359c86 0 166 -56 202 -155c12 -30 1 -52 -17 -61c-19 -9 -46 -3 -60 26c-28 68 -76 102 -125 102c-84 0 -172 -86 -172 -271s88 -271 172 -271c49 0 97 33 125 102c14 29 41 35 60 26c18 -9 29 -31 17 -61
c-36 -99 -116 -155 -202 -155z" />
    <glyph glyph-name="Cacute" unicode="&#x106;" horiz-adv-x="555" 
d="M290 744c-14 12 -19 36 -1 57l64 73c19 22 44 23 59 10s19 -37 1 -58l-64 -72c-19 -22 -43 -23 -59 -10zM310 -9c-145 0 -265 138 -264 359c0 221 119 359 264 359c86 0 166 -56 202 -155c12 -30 1 -52 -17 -61c-19 -9 -46 -3 -60 26c-28 68 -76 102 -125 102
c-84 0 -172 -86 -172 -271s88 -271 172 -271c49 0 97 33 125 102c14 29 41 35 60 26c18 -9 29 -31 17 -61c-36 -99 -116 -155 -202 -155z" />
    <glyph glyph-name="Ccaron" unicode="&#x10c;" horiz-adv-x="555" 
d="M215 808c-20 16 -23 38 -10 54c12 15 35 16 54 0l53 -42l52 42c19 16 42 15 54 0c12 -16 10 -38 -10 -54l-63 -53c-13 -10 -23 -14 -34 -14c-10 0 -20 4 -33 14zM495 207c18 -9 29 -31 17 -61c-36 -99 -116 -155 -202 -155c-145 0 -265 138 -264 359
c0 221 119 359 264 359c86 0 166 -56 202 -155c12 -30 1 -52 -17 -61c-19 -9 -46 -3 -60 26c-28 68 -76 102 -125 102c-84 0 -172 -86 -172 -271s88 -271 172 -271c49 0 97 33 125 102c14 29 41 35 60 26z" />
    <glyph glyph-name="Ccedilla" unicode="&#xc7;" horiz-adv-x="555" 
d="M495 207c18 -9 29 -31 17 -61c-33 -90 -102 -144 -178 -154l-9 -14c42 0 76 -28 76 -69c0 -48 -39 -76 -93 -76c-27 0 -52 6 -68 17c-18 12 -18 30 -9 41c7 8 20 10 35 3c15 -9 26 -12 43 -12c19 0 34 10 34 26c0 13 -12 24 -29 24c-9 0 -15 -1 -24 -5
c-12 -5 -23 -5 -31 1c-9 7 -12 19 -3 33l20 33c-129 20 -231 153 -230 356c0 221 119 359 264 359c86 0 166 -56 202 -155c12 -30 1 -52 -17 -61c-19 -9 -46 -3 -60 26c-28 68 -76 102 -125 102c-84 0 -172 -86 -172 -271s88 -271 172 -271c49 0 97 33 125 102
c14 29 41 35 60 26z" />
    <glyph glyph-name="Ccircumflex" unicode="&#x108;" horiz-adv-x="555" 
d="M259 754c-19 -16 -42 -16 -55 0c-11 15 -9 37 11 53l63 53c13 11 23 14 33 14c11 0 21 -3 34 -14l63 -53c20 -16 23 -38 10 -53c-12 -16 -35 -16 -54 0l-52 43zM495 207c18 -9 29 -31 17 -61c-36 -99 -116 -155 -202 -155c-145 0 -265 138 -264 359
c0 221 119 359 264 359c86 0 166 -56 202 -155c12 -30 1 -52 -17 -61c-19 -9 -46 -3 -60 26c-28 68 -76 102 -125 102c-84 0 -172 -86 -172 -271s88 -271 172 -271c49 0 97 33 125 102c14 29 41 35 60 26z" />
    <glyph glyph-name="Cdotaccent" unicode="&#x10a;" horiz-adv-x="555" 
d="M311 754c-29 0 -55 22 -55 56c0 33 26 55 55 55s55 -22 55 -55c0 -34 -26 -56 -55 -56zM310 -9c-145 0 -265 138 -264 359c0 221 119 359 264 359c86 0 166 -56 202 -155c12 -30 1 -52 -17 -61c-19 -9 -46 -3 -60 26c-28 68 -76 102 -125 102c-84 0 -172 -86 -172 -271
s88 -271 172 -271c49 0 97 33 125 102c14 29 41 35 60 26c18 -9 29 -31 17 -61c-36 -99 -116 -155 -202 -155z" />
    <glyph glyph-name="D" unicode="D" horiz-adv-x="585" 
d="M119 0c-22 0 -44 17 -44 47v606c0 30 22 47 45 47h143c165 0 277 -141 277 -350c0 -208 -112 -350 -277 -350h-144zM164 79h95c106 0 188 94 188 271s-82 271 -188 271h-95v-542z" />
    <glyph glyph-name="Eth" unicode="&#xd0;" horiz-adv-x="586" 
d="M264 700c165 0 276 -141 276 -350c0 -208 -111 -350 -276 -350h-144c-22 0 -44 17 -44 47v283h-42c-24 0 -44 14 -44 39s20 39 44 39h42v245c0 30 22 47 45 47h143zM259 79c107 0 189 94 189 271s-82 271 -189 271h-94v-213h101c24 0 44 -14 44 -39s-20 -39 -44 -39h-101
v-251h94z" />
    <glyph glyph-name="Dcaron" unicode="&#x10e;" horiz-adv-x="585" 
d="M157 808c-20 16 -23 38 -10 54c12 15 35 16 54 0l53 -42l52 42c19 16 42 15 54 0c12 -16 10 -38 -10 -54l-63 -53c-13 -10 -23 -14 -34 -14c-10 0 -20 4 -33 14zM263 700c165 0 277 -141 277 -350c0 -208 -112 -350 -277 -350h-144c-22 0 -44 17 -44 47v606
c0 30 22 47 45 47h143zM259 79c106 0 188 94 188 271s-82 271 -188 271h-95v-542h95z" />
    <glyph glyph-name="Dcroat" unicode="&#x110;" horiz-adv-x="586" 
d="M264 700c165 0 276 -141 276 -350c0 -208 -111 -350 -276 -350h-144c-22 0 -44 17 -44 47v283h-42c-24 0 -44 14 -44 39s20 39 44 39h42v245c0 30 22 47 45 47h143zM259 79c107 0 189 94 189 271s-82 271 -189 271h-94v-213h101c24 0 44 -14 44 -39s-20 -39 -44 -39h-101
v-251h94z" />
    <glyph glyph-name="E" unicode="E" horiz-adv-x="450" 
d="M119 0c-22 0 -44 17 -44 47v606c0 30 22 47 45 47h259c25 0 44 -15 44 -40c0 -24 -20 -39 -44 -39h-215v-212h163c25 0 44 -16 44 -40s-19 -40 -44 -40h-163v-250h215c25 0 44 -15 44 -39c0 -25 -20 -40 -44 -40h-260z" />
    <glyph glyph-name="Eacute" unicode="&#xc9;" horiz-adv-x="450" 
d="M226 744c-14 12 -19 36 -1 57l64 73c19 22 44 23 59 10s19 -37 1 -58l-64 -72c-19 -22 -43 -23 -59 -10zM119 0c-22 0 -44 17 -44 47v606c0 30 22 47 45 47h259c25 0 44 -15 44 -40c0 -24 -20 -39 -44 -39h-215v-212h163c25 0 44 -16 44 -40s-19 -40 -44 -40h-163v-250
h215c25 0 44 -15 44 -39c0 -25 -20 -40 -44 -40h-260z" />
    <glyph glyph-name="Ebreve" unicode="&#x114;" horiz-adv-x="450" 
d="M248 740c-61 0 -103 38 -105 93c-1 24 14 39 32 40c19 0 33 -13 36 -35s16 -35 37 -35c20 0 33 13 36 35s17 35 36 35c19 -1 33 -16 32 -40c-2 -54 -42 -93 -104 -93zM119 0c-22 0 -44 17 -44 47v606c0 30 22 47 45 47h259c25 0 44 -15 44 -40c0 -24 -20 -39 -44 -39
h-215v-212h163c25 0 44 -16 44 -40s-19 -40 -44 -40h-163v-250h215c25 0 44 -15 44 -39c0 -25 -20 -40 -44 -40h-260z" />
    <glyph glyph-name="Ecaron" unicode="&#x11a;" horiz-adv-x="450" 
d="M151 808c-20 16 -23 38 -10 54c12 15 35 16 54 0l53 -42l52 42c19 16 42 15 54 0c12 -16 10 -38 -10 -54l-63 -53c-13 -10 -23 -14 -34 -14c-10 0 -20 4 -33 14zM379 79c25 0 44 -15 44 -39c0 -25 -20 -40 -44 -40h-260c-22 0 -44 17 -44 47v606c0 30 22 47 45 47h259
c25 0 44 -15 44 -40c0 -24 -20 -39 -44 -39h-215v-212h163c25 0 44 -16 44 -40s-19 -40 -44 -40h-163v-250h215z" />
    <glyph glyph-name="Ecircumflex" unicode="&#xca;" horiz-adv-x="450" 
d="M196 754c-19 -16 -42 -16 -55 0c-11 15 -9 37 11 53l63 53c13 11 23 14 33 14c11 0 21 -3 34 -14l63 -53c20 -16 23 -38 10 -53c-12 -16 -35 -16 -54 0l-52 43zM379 79c25 0 44 -15 44 -39c0 -25 -20 -40 -44 -40h-260c-22 0 -44 17 -44 47v606c0 30 22 47 45 47h259
c25 0 44 -15 44 -40c0 -24 -20 -39 -44 -39h-215v-212h163c25 0 44 -16 44 -40s-19 -40 -44 -40h-163v-250h215z" />
    <glyph glyph-name="Edieresis" unicode="&#xcb;" horiz-adv-x="450" 
d="M161 754c-29 0 -55 22 -55 56c0 33 26 55 55 55s55 -22 55 -55c0 -34 -26 -56 -55 -56zM335 754c-29 0 -55 22 -55 56c0 33 26 55 55 55s55 -22 55 -55c0 -34 -26 -56 -55 -56zM119 0c-22 0 -44 17 -44 47v606c0 30 22 47 45 47h259c25 0 44 -15 44 -40
c0 -24 -20 -39 -44 -39h-215v-212h163c25 0 44 -16 44 -40s-19 -40 -44 -40h-163v-250h215c25 0 44 -15 44 -39c0 -25 -20 -40 -44 -40h-260z" />
    <glyph glyph-name="Edotaccent" unicode="&#x116;" horiz-adv-x="450" 
d="M248 754c-29 0 -55 22 -55 56c0 33 26 55 55 55s55 -22 55 -55c0 -34 -26 -56 -55 -56zM119 0c-22 0 -44 17 -44 47v606c0 30 22 47 45 47h259c25 0 44 -15 44 -40c0 -24 -20 -39 -44 -39h-215v-212h163c25 0 44 -16 44 -40s-19 -40 -44 -40h-163v-250h215
c25 0 44 -15 44 -39c0 -25 -20 -40 -44 -40h-260z" />
    <glyph glyph-name="Egrave" unicode="&#xc8;" horiz-adv-x="450" 
d="M271 744c-15 -13 -39 -12 -58 10l-65 72c-17 21 -13 45 2 58s40 12 58 -10l65 -73c18 -21 13 -45 -2 -57zM119 0c-22 0 -44 17 -44 47v606c0 30 22 47 45 47h259c25 0 44 -15 44 -40c0 -24 -20 -39 -44 -39h-215v-212h163c25 0 44 -16 44 -40s-19 -40 -44 -40h-163v-250
h215c25 0 44 -15 44 -39c0 -25 -20 -40 -44 -40h-260z" />
    <glyph glyph-name="Emacron" unicode="&#x112;" horiz-adv-x="450" 
d="M171 768c-23 0 -41 13 -41 36s18 35 41 35h156c22 0 39 -12 39 -35s-17 -36 -39 -36h-156zM119 0c-22 0 -44 17 -44 47v606c0 30 22 47 45 47h259c25 0 44 -15 44 -40c0 -24 -20 -39 -44 -39h-215v-212h163c25 0 44 -16 44 -40s-19 -40 -44 -40h-163v-250h215
c25 0 44 -15 44 -39c0 -25 -20 -40 -44 -40h-260z" />
    <glyph glyph-name="Eogonek" unicode="&#x118;" horiz-adv-x="446" 
d="M395 2c-27 -12 -44 -37 -44 -64c0 -24 15 -38 37 -39c21 -2 33 -13 33 -30c0 -19 -15 -31 -42 -32c-55 -2 -97 34 -97 87c0 29 13 57 35 76h-197c-23 0 -45 17 -45 46v607c0 30 23 47 45 47h258c25 0 45 -14 45 -40c0 -24 -20 -39 -45 -39h-214v-212h163
c24 0 44 -15 44 -40s-20 -40 -44 -40h-163v-250h214c25 0 45 -14 45 -39c0 -20 -13 -31 -28 -38z" />
    <glyph glyph-name="F" unicode="F" horiz-adv-x="428" 
d="M120 -4c-23 0 -45 17 -45 48v609c0 30 23 47 45 47h261c25 0 44 -15 44 -40c0 -24 -20 -39 -44 -39h-217v-212h166c25 0 44 -16 44 -40s-20 -40 -44 -40h-166v-285c0 -30 -21 -48 -44 -48z" />
    <glyph glyph-name="G" unicode="G" horiz-adv-x="564" 
d="M481 360c23 0 43 -17 43 -44v-165c0 -13 0 -23 -7 -36c-36 -74 -116 -124 -203 -124c-146 0 -269 139 -268 359c0 221 119 359 265 359c85 0 165 -56 202 -158c11 -30 1 -52 -17 -60c-20 -10 -47 -4 -60 25c-29 71 -78 105 -126 105c-83 0 -172 -88 -172 -271
s91 -271 175 -271c48 0 95 26 119 66c3 3 3 7 3 13v122h-109c-26 0 -45 16 -45 40s20 40 45 40h155z" />
    <glyph glyph-name="Gbreve" unicode="&#x11e;" horiz-adv-x="564" 
d="M312 740c-61 0 -103 38 -105 93c-1 24 14 39 32 40c19 0 33 -13 36 -35s16 -35 37 -35c20 0 33 13 36 35s17 35 36 35c19 -1 33 -16 32 -40c-2 -54 -42 -93 -104 -93zM481 360c23 0 43 -17 43 -44v-165c0 -13 0 -23 -7 -36c-36 -74 -116 -124 -203 -124
c-146 0 -269 139 -268 359c0 221 119 359 265 359c85 0 165 -56 202 -158c11 -30 1 -52 -17 -60c-20 -10 -47 -4 -60 25c-29 71 -78 105 -126 105c-83 0 -172 -88 -172 -271s91 -271 175 -271c48 0 95 26 119 66c3 3 3 7 3 13v122h-109c-26 0 -45 16 -45 40s20 40 45 40h155
z" />
    <glyph glyph-name="Gcircumflex" unicode="&#x11c;" horiz-adv-x="564" 
d="M259 754c-19 -16 -42 -16 -55 0c-11 15 -9 37 11 53l63 53c13 11 23 14 33 14c11 0 21 -3 34 -14l63 -53c20 -16 23 -38 10 -53c-12 -16 -35 -16 -54 0l-52 43zM481 360c23 0 43 -17 43 -44v-165c0 -13 0 -23 -7 -36c-36 -74 -116 -124 -203 -124
c-146 0 -269 139 -268 359c0 221 119 359 265 359c85 0 165 -56 202 -158c11 -30 1 -52 -17 -60c-20 -10 -47 -4 -60 25c-29 71 -78 105 -126 105c-83 0 -172 -88 -172 -271s91 -271 175 -271c48 0 95 26 119 66c3 3 3 7 3 13v122h-109c-26 0 -45 16 -45 40s20 40 45 40h155
z" />
    <glyph glyph-name="uni0122" unicode="&#x122;" horiz-adv-x="564" 
d="M481 360c23 0 43 -17 43 -44v-165c0 -13 0 -23 -7 -36c-36 -74 -116 -124 -203 -124c-146 0 -269 139 -268 359c0 221 119 359 265 359c85 0 165 -56 202 -158c11 -30 1 -52 -17 -60c-20 -10 -47 -4 -60 25c-29 71 -78 105 -126 105c-83 0 -172 -88 -172 -271
s91 -271 175 -271c48 0 95 26 119 66c3 3 3 7 3 13v122h-109c-26 0 -45 16 -45 40s20 40 45 40h155zM313 -38c29 0 54 -23 54 -55c0 -14 -5 -31 -16 -48l-34 -50c-15 -23 -36 -25 -51 -16c-13 9 -17 28 -3 48l17 25c-12 9 -20 24 -20 42c0 31 24 54 53 54z" />
    <glyph glyph-name="Gdotaccent" unicode="&#x120;" horiz-adv-x="564" 
d="M311 754c-29 0 -55 22 -55 56c0 33 26 55 55 55s55 -22 55 -55c0 -34 -26 -56 -55 -56zM481 360c23 0 43 -17 43 -44v-165c0 -13 0 -23 -7 -36c-36 -74 -116 -124 -203 -124c-146 0 -269 139 -268 359c0 221 119 359 265 359c85 0 165 -56 202 -158c11 -30 1 -52 -17 -60
c-20 -10 -47 -4 -60 25c-29 71 -78 105 -126 105c-83 0 -172 -88 -172 -271s91 -271 175 -271c48 0 95 26 119 66c3 3 3 7 3 13v122h-109c-26 0 -45 16 -45 40s20 40 45 40h155z" />
    <glyph glyph-name="H" unicode="H" horiz-adv-x="612" 
d="M492 704c23 0 44 -17 44 -48v-612c0 -31 -21 -48 -44 -48s-45 17 -45 48v285h-283v-285c0 -31 -21 -48 -44 -48s-45 17 -45 48v612c0 31 22 48 45 48s44 -17 44 -48v-247h283v247c0 31 22 48 45 48z" />
    <glyph glyph-name="Hbar" unicode="&#x126;" horiz-adv-x="625" 
d="M584 611c24 0 44 -14 44 -39s-20 -39 -44 -39h-41v-489c0 -31 -22 -48 -45 -48c-22 0 -44 17 -44 48v285h-283v-285c0 -31 -22 -48 -45 -48c-22 0 -44 17 -44 48v489h-40c-25 0 -45 14 -45 39s20 39 45 39h40v45c0 31 22 48 44 48c23 0 45 -17 45 -48v-45h283v45
c0 31 22 48 44 48c23 0 45 -17 45 -48v-45h41zM454 409v124h-283v-124h283z" />
    <glyph glyph-name="Hcircumflex" unicode="&#x124;" horiz-adv-x="612" 
d="M254 754c-19 -16 -42 -16 -55 0c-11 15 -9 37 11 53l63 53c13 11 23 14 33 14c11 0 21 -3 34 -14l63 -53c20 -16 23 -38 10 -53c-12 -16 -35 -16 -54 0l-52 43zM492 704c23 0 44 -17 44 -48v-612c0 -31 -21 -48 -44 -48s-45 17 -45 48v285h-283v-285
c0 -31 -21 -48 -44 -48s-45 17 -45 48v612c0 31 22 48 45 48s44 -17 44 -48v-247h283v247c0 31 22 48 45 48z" />
    <glyph glyph-name="I" unicode="I" horiz-adv-x="240" 
d="M120 -4c-23 0 -45 17 -45 48v612c0 31 22 48 45 48s44 -17 44 -48v-612c0 -31 -21 -48 -44 -48z" />
    <glyph glyph-name="IJ" unicode="&#x132;" horiz-adv-x="642" 
d="M120 -4c-23 0 -45 17 -45 48v612c0 31 22 48 45 48s44 -17 44 -48v-612c0 -31 -21 -48 -44 -48zM404 -9c-72 0 -133 38 -151 99c-10 29 3 52 22 59c18 7 42 1 54 -24c14 -33 42 -49 74 -49c42 0 75 31 75 93v487c0 31 22 48 45 48c22 0 44 -17 44 -48v-483
c0 -122 -70 -182 -163 -182z" />
    <glyph glyph-name="Iacute" unicode="&#xcd;" horiz-adv-x="240" 
d="M98 744c-14 12 -19 36 -1 57l64 73c19 22 44 23 59 10s19 -37 1 -58l-64 -72c-19 -22 -43 -23 -59 -10zM120 -4c-23 0 -45 17 -45 48v612c0 31 22 48 45 48s44 -17 44 -48v-612c0 -31 -21 -48 -44 -48z" />
    <glyph glyph-name="Ibreve" unicode="&#x12c;" horiz-adv-x="240" 
d="M120 740c-61 0 -103 38 -105 93c-1 24 14 39 32 40c19 0 33 -13 36 -35s16 -35 37 -35c20 0 33 13 36 35s17 35 36 35c19 -1 33 -16 32 -40c-2 -54 -42 -93 -104 -93zM120 -4c-23 0 -45 17 -45 48v612c0 31 22 48 45 48s44 -17 44 -48v-612c0 -31 -21 -48 -44 -48z" />
    <glyph glyph-name="Icircumflex" unicode="&#xce;" horiz-adv-x="240" 
d="M216 807c20 -16 23 -38 10 -53c-12 -16 -35 -16 -54 0l-52 43l-53 -43c-19 -16 -42 -16 -55 0c-11 15 -9 37 11 53l63 53c13 11 23 14 33 14c11 0 21 -3 34 -14zM120 704c23 0 44 -17 44 -48v-612c0 -31 -21 -48 -44 -48s-45 17 -45 48v612c0 31 22 48 45 48z" />
    <glyph glyph-name="Idieresis" unicode="&#xcf;" horiz-adv-x="240" 
d="M33 754c-29 0 -55 22 -55 56c0 33 26 55 55 55s55 -22 55 -55c0 -34 -26 -56 -55 -56zM207 754c-29 0 -55 22 -55 56c0 33 26 55 55 55s55 -22 55 -55c0 -34 -26 -56 -55 -56zM120 -4c-23 0 -45 17 -45 48v612c0 31 22 48 45 48s44 -17 44 -48v-612
c0 -31 -21 -48 -44 -48z" />
    <glyph glyph-name="Idotaccent" unicode="&#x130;" horiz-adv-x="240" 
d="M120 754c-29 0 -55 22 -55 56c0 33 26 55 55 55s55 -22 55 -55c0 -34 -26 -56 -55 -56zM120 -4c-23 0 -45 17 -45 48v612c0 31 22 48 45 48s44 -17 44 -48v-612c0 -31 -21 -48 -44 -48z" />
    <glyph glyph-name="Igrave" unicode="&#xcc;" horiz-adv-x="240" 
d="M144 744c-16 -13 -40 -12 -59 10l-65 72c-17 21 -13 45 2 58s40 12 58 -10l65 -73c18 -21 13 -45 -1 -57zM120 -4c-23 0 -45 17 -45 48v612c0 31 22 48 45 48s44 -17 44 -48v-612c0 -31 -21 -48 -44 -48z" />
    <glyph glyph-name="Imacron" unicode="&#x12a;" horiz-adv-x="240" 
d="M42 768c-23 0 -41 13 -41 36s18 35 41 35h156c22 0 39 -12 39 -35s-17 -36 -39 -36h-156zM120 -4c-23 0 -45 17 -45 48v612c0 31 22 48 45 48s44 -17 44 -48v-612c0 -31 -21 -48 -44 -48z" />
    <glyph glyph-name="Iogonek" unicode="&#x12e;" horiz-adv-x="240" 
d="M138 -101c20 -2 33 -13 32 -30c0 -19 -15 -31 -41 -32c-56 -2 -97 34 -97 87c0 35 19 68 52 89c-6 9 -9 19 -9 31v612c0 31 22 48 45 48s44 -17 44 -48v-612c0 -19 -8 -32 -19 -40c-30 -19 -44 -41 -44 -66c0 -24 15 -38 37 -39z" />
    <glyph glyph-name="Itilde" unicode="&#x128;" horiz-adv-x="240" 
d="M17 751c-17 4 -28 19 -22 44c8 39 38 62 74 62c14 0 26 -2 37 -6c16 -7 27 -13 42 -20c7 -3 12 -5 17 -5c8 0 13 3 17 13c8 20 26 26 42 23c16 -4 26 -19 21 -43c-7 -39 -37 -63 -74 -63c-14 0 -26 2 -37 6c-17 7 -28 14 -42 20c-7 3 -12 5 -17 5c-8 0 -13 -4 -17 -13
c-8 -20 -26 -27 -41 -23zM120 -4c-23 0 -45 17 -45 48v612c0 31 22 48 45 48s44 -17 44 -48v-612c0 -31 -21 -48 -44 -48z" />
    <glyph glyph-name="J" unicode="J" horiz-adv-x="402" 
d="M164 -9c-72 0 -133 38 -151 99c-10 29 3 52 22 59c18 7 42 1 54 -24c14 -33 42 -49 74 -49c42 0 75 31 75 93v487c0 31 22 48 45 48c22 0 44 -17 44 -48v-483c0 -122 -70 -182 -163 -182z" />
    <glyph glyph-name="Jcircumflex" unicode="&#x134;" horiz-adv-x="402" 
d="M379 807c20 -16 23 -38 10 -53c-12 -16 -35 -16 -54 0l-52 43l-53 -43c-19 -16 -42 -16 -55 0c-11 15 -9 37 11 53l63 53c13 11 23 14 33 14c11 0 21 -3 34 -14zM283 704c22 0 44 -17 44 -48v-483c0 -122 -70 -182 -163 -182c-72 0 -133 38 -151 99c-10 29 3 52 22 59
c18 7 42 1 54 -24c14 -33 42 -49 74 -49c42 0 75 31 75 93v487c0 31 22 48 45 48z" />
    <glyph glyph-name="K" unicode="K" horiz-adv-x="533" 
d="M507 68c18 -29 10 -54 -7 -65c-20 -13 -50 -9 -69 21l-189 312l-78 -90v-202c0 -31 -21 -48 -44 -48s-45 17 -45 48v612c0 31 22 48 45 48s44 -17 44 -48v-279l265 306c21 25 49 25 66 12c18 -14 22 -41 -1 -67l-192 -223z" />
    <glyph glyph-name="uni0136" unicode="&#x136;" horiz-adv-x="533" 
d="M507 68c18 -29 10 -54 -7 -65c-20 -13 -50 -9 -69 21l-189 312l-78 -90v-202c0 -31 -21 -48 -44 -48s-45 17 -45 48v612c0 31 22 48 45 48s44 -17 44 -48v-279l265 306c21 25 49 25 66 12c18 -14 22 -41 -1 -67l-192 -223zM281 -38c29 0 54 -23 54 -55
c0 -14 -5 -31 -16 -48l-34 -50c-15 -23 -36 -25 -51 -16c-13 9 -17 28 -3 48l17 25c-12 9 -20 24 -20 42c0 31 24 54 53 54z" />
    <glyph glyph-name="L" unicode="L" horiz-adv-x="414" 
d="M360 79c25 0 44 -15 44 -39c0 -25 -19 -40 -44 -40h-240c-23 0 -45 17 -45 47v610c0 30 23 47 45 47c23 0 44 -17 44 -47v-578h196z" />
    <glyph glyph-name="Lacute" unicode="&#x139;" horiz-adv-x="414" 
d="M98 744c-14 12 -19 36 -1 57l64 73c19 22 44 23 59 10s19 -37 1 -58l-64 -72c-19 -22 -43 -23 -59 -10zM360 79c25 0 44 -15 44 -39c0 -25 -19 -40 -44 -40h-240c-23 0 -45 17 -45 47v610c0 30 23 47 45 47c23 0 44 -17 44 -47v-578h196z" />
    <glyph glyph-name="Lcaron" unicode="&#x13d;" horiz-adv-x="414" 
d="M360 79c25 0 44 -15 44 -39c0 -25 -19 -40 -44 -40h-240c-23 0 -45 17 -45 47v610c0 30 23 47 45 47c23 0 44 -17 44 -47v-578h196zM284 492c-22 1 -37 19 -35 47l11 125c2 27 23 41 43 39c21 -1 38 -20 36 -47l-11 -125c-3 -27 -24 -41 -44 -39z" />
    <glyph glyph-name="uni013B" unicode="&#x13b;" horiz-adv-x="414" 
d="M360 79c25 0 44 -15 44 -39c0 -25 -19 -40 -44 -40h-240c-23 0 -45 17 -45 47v610c0 30 23 47 45 47c23 0 44 -17 44 -47v-578h196zM244 -38c29 0 54 -23 54 -55c0 -14 -5 -31 -16 -48l-34 -50c-15 -23 -36 -25 -51 -16c-13 9 -17 28 -3 48l17 25c-12 9 -20 24 -20 42
c0 31 24 54 53 54z" />
    <glyph glyph-name="Ldot" unicode="&#x13f;" horiz-adv-x="414" 
d="M360 79c25 0 44 -15 44 -39c0 -25 -19 -40 -44 -40h-240c-23 0 -45 17 -45 47v610c0 30 23 47 45 47c23 0 44 -17 44 -47v-578h196zM327 307c-30 0 -58 24 -58 58c0 35 28 58 58 58c31 0 58 -23 58 -58c0 -34 -27 -58 -58 -58z" />
    <glyph glyph-name="Lslash" unicode="&#x141;" horiz-adv-x="421" 
d="M367 79c25 0 44 -15 44 -39c0 -25 -20 -40 -44 -40h-240c-23 0 -45 17 -45 47v238l-32 -12c-25 -9 -46 -1 -54 17c-9 20 1 43 27 52l59 22v293c0 30 22 47 44 47c23 0 45 -17 45 -47v-260l101 37c25 9 46 1 54 -17c9 -20 -2 -43 -27 -52l-128 -47v-239h196z" />
    <glyph glyph-name="M" unicode="M" horiz-adv-x="710" 
d="M590 704c23 0 45 -17 45 -48v-613c0 -30 -22 -47 -44 -47s-44 17 -44 47v450l-140 -279c-13 -26 -29 -38 -51 -38s-38 12 -51 38l-142 279v-450c0 -30 -21 -47 -44 -47c-22 0 -44 17 -44 47v613c0 31 22 48 45 48s38 -12 52 -37l185 -364l181 364c13 24 29 37 52 37z" />
    <glyph glyph-name="N" unicode="N" horiz-adv-x="617" 
d="M498 704c22 0 44 -17 44 -47v-614c0 -30 -21 -47 -44 -47c-21 0 -38 10 -52 33l-284 480v-466c0 -30 -20 -47 -43 -47c-22 0 -44 17 -44 47v614c0 30 21 47 45 47c23 0 40 -15 54 -38l281 -473v464c0 30 20 47 43 47z" />
    <glyph glyph-name="Nacute" unicode="&#x143;" horiz-adv-x="617" 
d="M287 744c-14 12 -19 36 -1 57l64 73c19 22 44 23 59 10s19 -37 1 -58l-64 -72c-19 -22 -43 -23 -59 -10zM498 704c22 0 44 -17 44 -47v-614c0 -30 -21 -47 -44 -47c-21 0 -38 10 -52 33l-284 480v-466c0 -30 -20 -47 -43 -47c-22 0 -44 17 -44 47v614c0 30 21 47 45 47
c23 0 40 -15 54 -38l281 -473v464c0 30 20 47 43 47z" />
    <glyph glyph-name="Ncaron" unicode="&#x147;" horiz-adv-x="617" 
d="M212 808c-20 16 -23 38 -10 54c12 15 35 16 54 0l53 -42l52 42c19 16 42 15 54 0c12 -16 10 -38 -10 -54l-63 -53c-13 -10 -23 -14 -34 -14c-10 0 -20 4 -33 14zM498 704c22 0 44 -17 44 -47v-614c0 -30 -21 -47 -44 -47c-21 0 -38 10 -52 33l-284 480v-466
c0 -30 -20 -47 -43 -47c-22 0 -44 17 -44 47v614c0 30 21 47 45 47c23 0 40 -15 54 -38l281 -473v464c0 30 20 47 43 47z" />
    <glyph glyph-name="uni0145" unicode="&#x145;" horiz-adv-x="617" 
d="M498 704c22 0 44 -17 44 -47v-614c0 -30 -21 -47 -44 -47c-21 0 -38 10 -52 33l-284 480v-466c0 -30 -20 -47 -43 -47c-22 0 -44 17 -44 47v614c0 30 21 47 45 47c23 0 40 -15 54 -38l281 -473v464c0 30 20 47 43 47zM308 -38c29 0 54 -23 54 -55c0 -14 -5 -31 -16 -48
l-34 -50c-15 -23 -36 -25 -51 -16c-13 9 -17 28 -3 48l17 25c-12 9 -20 24 -20 42c0 31 24 54 53 54z" />
    <glyph glyph-name="Eng" unicode="&#x14a;" horiz-adv-x="617" 
d="M498 704c22 0 44 -17 44 -47v-683c0 -86 -47 -137 -124 -137c-18 0 -32 2 -48 7c-26 10 -35 33 -30 51c6 18 22 28 46 25c11 -3 18 -4 26 -4c27 0 43 17 43 63v33l-293 497v-466c0 -30 -20 -47 -43 -47c-22 0 -44 17 -44 47v614c0 30 21 47 45 47c23 0 40 -15 54 -38
l281 -473v464c0 30 20 47 43 47z" />
    <glyph glyph-name="Ntilde" unicode="&#xd1;" horiz-adv-x="617" 
d="M206 751c-17 4 -27 19 -22 44c8 39 38 62 74 62c14 0 26 -2 37 -6c16 -7 27 -13 42 -20c7 -3 12 -5 17 -5c8 0 13 3 17 13c8 20 26 26 42 23c16 -4 26 -19 21 -43c-7 -39 -37 -63 -74 -63c-14 0 -26 2 -37 6c-17 7 -28 14 -42 20c-7 3 -12 5 -17 5c-8 0 -13 -4 -17 -13
c-8 -20 -26 -27 -41 -23zM498 704c22 0 44 -17 44 -47v-614c0 -30 -21 -47 -44 -47c-21 0 -38 10 -52 33l-284 480v-466c0 -30 -20 -47 -43 -47c-22 0 -44 17 -44 47v614c0 30 21 47 45 47c23 0 40 -15 54 -38l281 -473v464c0 30 20 47 43 47z" />
    <glyph glyph-name="O" unicode="O" horiz-adv-x="620" 
d="M310 -9c-145 0 -265 138 -264 359c0 221 119 359 264 359c144 0 264 -138 264 -359s-120 -359 -264 -359zM310 79c83 0 171 86 171 271s-88 271 -171 271c-84 0 -172 -86 -172 -271s88 -271 172 -271z" />
    <glyph glyph-name="Oacute" unicode="&#xd3;" horiz-adv-x="620" 
d="M288 744c-14 12 -19 36 -1 57l64 73c19 22 44 23 59 10s19 -37 1 -58l-64 -72c-19 -22 -43 -23 -59 -10zM310 -9c-145 0 -265 138 -264 359c0 221 119 359 264 359c144 0 264 -138 264 -359s-120 -359 -264 -359zM310 79c83 0 171 86 171 271s-88 271 -171 271
c-84 0 -172 -86 -172 -271s88 -271 172 -271z" />
    <glyph glyph-name="Obreve" unicode="&#x14e;" horiz-adv-x="620" 
d="M310 740c-61 0 -103 38 -105 93c-1 24 14 39 32 40c19 0 33 -13 36 -35s16 -35 37 -35c20 0 33 13 36 35s17 35 36 35c19 -1 33 -16 32 -40c-2 -54 -42 -93 -104 -93zM310 -9c-145 0 -265 138 -264 359c0 221 119 359 264 359c144 0 264 -138 264 -359
s-120 -359 -264 -359zM310 79c83 0 171 86 171 271s-88 271 -171 271c-84 0 -172 -86 -172 -271s88 -271 172 -271z" />
    <glyph glyph-name="Ocircumflex" unicode="&#xd4;" horiz-adv-x="620" 
d="M257 754c-19 -16 -42 -16 -55 0c-11 15 -9 37 11 53l63 53c13 11 23 14 33 14c11 0 21 -3 34 -14l63 -53c20 -16 23 -38 10 -53c-12 -16 -35 -16 -54 0l-52 43zM310 709c144 0 264 -138 264 -359s-120 -359 -264 -359c-145 0 -265 138 -264 359c0 221 119 359 264 359z
M310 79c83 0 171 86 171 271s-88 271 -171 271c-84 0 -172 -86 -172 -271s88 -271 172 -271z" />
    <glyph glyph-name="Odieresis" unicode="&#xd6;" horiz-adv-x="620" 
d="M223 754c-29 0 -55 22 -55 56c0 33 26 55 55 55s55 -22 55 -55c0 -34 -26 -56 -55 -56zM397 754c-29 0 -55 22 -55 56c0 33 26 55 55 55s55 -22 55 -55c0 -34 -26 -56 -55 -56zM310 -9c-145 0 -265 138 -264 359c0 221 119 359 264 359c144 0 264 -138 264 -359
s-120 -359 -264 -359zM310 79c83 0 171 86 171 271s-88 271 -171 271c-84 0 -172 -86 -172 -271s88 -271 172 -271z" />
    <glyph glyph-name="Ograve" unicode="&#xd2;" horiz-adv-x="620" 
d="M333 744c-15 -13 -39 -12 -58 10l-65 72c-17 21 -13 45 2 58s40 12 58 -10l65 -73c18 -21 13 -45 -2 -57zM310 -9c-145 0 -265 138 -264 359c0 221 119 359 264 359c144 0 264 -138 264 -359s-120 -359 -264 -359zM310 79c83 0 171 86 171 271s-88 271 -171 271
c-84 0 -172 -86 -172 -271s88 -271 172 -271z" />
    <glyph glyph-name="Ohungarumlaut" unicode="&#x150;" horiz-adv-x="620" 
d="M213 746c-15 12 -19 35 -1 56l66 74c18 23 42 23 57 11s19 -36 2 -57l-67 -74c-18 -22 -42 -23 -57 -10zM348 746c-15 12 -19 36 -2 56l67 74c18 23 42 23 57 11c14 -12 19 -36 1 -57l-66 -74c-18 -22 -42 -23 -57 -10zM310 -9c-145 0 -265 138 -264 359
c0 221 119 359 264 359c144 0 264 -138 264 -359s-120 -359 -264 -359zM310 79c83 0 171 86 171 271s-88 271 -171 271c-84 0 -172 -86 -172 -271s88 -271 172 -271z" />
    <glyph glyph-name="Omacron" unicode="&#x14c;" horiz-adv-x="620" 
d="M233 768c-23 0 -41 13 -41 36s18 35 41 35h156c22 0 39 -12 39 -35s-17 -36 -39 -36h-156zM310 -9c-145 0 -265 138 -264 359c0 221 119 359 264 359c144 0 264 -138 264 -359s-120 -359 -264 -359zM310 79c83 0 171 86 171 271s-88 271 -171 271
c-84 0 -172 -86 -172 -271s88 -271 172 -271z" />
    <glyph glyph-name="Oslash" unicode="&#xd8;" horiz-adv-x="620" 
d="M512 590c39 -61 62 -142 62 -240c0 -221 -120 -359 -264 -359c-58 0 -112 22 -156 63l-25 -37c-16 -23 -39 -25 -54 -15c-14 9 -19 30 -4 53l37 55c-39 60 -62 142 -62 240c0 221 119 359 264 359c58 0 112 -22 156 -63l25 37c15 22 38 25 53 15c14 -9 20 -30 5 -53z
M138 350c0 -63 10 -114 27 -155l250 374c-31 35 -68 52 -105 52c-84 0 -172 -86 -172 -271zM310 79c83 0 171 86 171 271c0 62 -10 113 -26 154l-250 -374c30 -34 68 -51 105 -51z" />
    <glyph glyph-name="Otilde" unicode="&#xd5;" horiz-adv-x="620" 
d="M207 751c-17 4 -27 19 -22 44c8 39 38 62 74 62c14 0 26 -2 37 -6c16 -7 27 -13 42 -20c7 -3 12 -5 17 -5c8 0 13 3 17 13c8 20 26 26 42 23c16 -4 26 -19 21 -43c-7 -39 -37 -63 -74 -63c-14 0 -26 2 -37 6c-17 7 -28 14 -42 20c-7 3 -12 5 -17 5c-8 0 -13 -4 -17 -13
c-8 -20 -26 -27 -41 -23zM310 -9c-145 0 -265 138 -264 359c0 221 119 359 264 359c144 0 264 -138 264 -359s-120 -359 -264 -359zM310 79c83 0 171 86 171 271s-88 271 -171 271c-84 0 -172 -86 -172 -271s88 -271 172 -271z" />
    <glyph glyph-name="OE" unicode="&#x152;" horiz-adv-x="855" 
d="M784 79c25 0 44 -15 44 -39c0 -25 -20 -40 -44 -40h-251c-22 0 -44 17 -44 46v42c-43 -63 -106 -97 -180 -97c-144 0 -264 138 -263 359c0 221 119 359 263 359c74 0 137 -34 180 -97v41c0 30 22 47 45 47h250c25 0 44 -15 44 -40c0 -24 -20 -39 -44 -39h-215v-212h163
c26 0 45 -16 45 -40s-20 -40 -45 -40h-163v-250h215zM310 80c83 0 171 86 171 270c0 185 -88 271 -171 271c-84 0 -172 -86 -172 -271c0 -184 88 -270 172 -270z" />
    <glyph glyph-name="P" unicode="P" horiz-adv-x="513" 
d="M120 -4c-23 0 -45 17 -45 48v609c0 30 22 47 45 47h173c115 0 200 -84 200 -201c0 -114 -75 -200 -193 -200h-136v-255c0 -31 -21 -48 -44 -48zM164 378h135c59 0 103 46 103 121c0 76 -50 122 -112 122h-126v-243z" />
    <glyph glyph-name="Thorn" unicode="&#xde;" horiz-adv-x="513" 
d="M293 573c115 0 200 -84 200 -201c0 -114 -75 -200 -193 -200h-136v-128c0 -31 -21 -48 -44 -48s-45 17 -45 48v612c0 31 22 48 45 48s44 -17 44 -48v-83h129zM299 251c59 0 103 46 103 121c0 76 -50 122 -112 122h-126v-243h135z" />
    <glyph glyph-name="Q" unicode="Q" horiz-adv-x="620" 
d="M564 23c27 -2 41 -20 40 -39c-2 -21 -18 -37 -49 -36c-51 -2 -97 22 -139 70c-33 -18 -69 -27 -106 -27c-145 0 -265 138 -264 359c0 221 119 359 264 359c144 0 264 -138 264 -359c0 -123 -37 -220 -94 -282c26 -30 51 -44 84 -45zM138 350c0 -185 88 -271 172 -271
c18 0 36 4 53 12c-31 42 -55 56 -93 58c-27 3 -41 21 -40 40c1 21 19 37 49 36c54 1 105 -28 147 -81c33 44 55 113 55 206c0 185 -88 271 -171 271c-84 0 -172 -86 -172 -271z" />
    <glyph glyph-name="R" unicode="R" horiz-adv-x="542" 
d="M502 63c14 -31 3 -54 -16 -63c-21 -10 -51 -3 -65 30l-116 269h-5h-136v-255c0 -31 -21 -48 -44 -48s-45 17 -45 48v609c0 30 22 47 45 47h173c115 0 200 -84 200 -201c0 -81 -38 -148 -102 -180zM164 621v-243h135c59 0 103 46 103 121c0 76 -50 122 -112 122h-126z" />
    <glyph glyph-name="Racute" unicode="&#x154;" horiz-adv-x="542" 
d="M233 744c-14 12 -19 36 -1 57l64 73c19 22 44 23 59 10s19 -37 1 -58l-64 -72c-19 -22 -43 -23 -59 -10zM502 63c14 -31 3 -54 -16 -63c-21 -10 -51 -3 -65 30l-116 269h-5h-136v-255c0 -31 -21 -48 -44 -48s-45 17 -45 48v609c0 30 22 47 45 47h173
c115 0 200 -84 200 -201c0 -81 -38 -148 -102 -180zM164 621v-243h135c59 0 103 46 103 121c0 76 -50 122 -112 122h-126z" />
    <glyph glyph-name="Rcaron" unicode="&#x158;" horiz-adv-x="542" 
d="M159 808c-20 16 -23 38 -10 54c12 15 35 16 54 0l53 -42l52 42c19 16 42 15 54 0c12 -16 10 -38 -10 -54l-63 -53c-13 -10 -23 -14 -34 -14c-10 0 -20 4 -33 14zM502 63c14 -31 3 -54 -16 -63c-21 -10 -51 -3 -65 30l-116 269h-5h-136v-255c0 -31 -21 -48 -44 -48
s-45 17 -45 48v609c0 30 22 47 45 47h173c115 0 200 -84 200 -201c0 -81 -38 -148 -102 -180zM164 621v-243h135c59 0 103 46 103 121c0 76 -50 122 -112 122h-126z" />
    <glyph glyph-name="uni0156" unicode="&#x156;" horiz-adv-x="542" 
d="M502 63c14 -31 3 -54 -16 -63c-21 -10 -51 -3 -65 30l-116 269h-5h-136v-255c0 -31 -21 -48 -44 -48s-45 17 -45 48v609c0 30 22 47 45 47h173c115 0 200 -84 200 -201c0 -81 -38 -148 -102 -180zM164 621v-243h135c59 0 103 46 103 121c0 76 -50 122 -112 122h-126z
M286 -38c29 0 54 -23 54 -55c0 -14 -5 -31 -16 -48l-34 -50c-15 -23 -36 -25 -51 -16c-13 9 -17 28 -3 48l17 25c-12 9 -20 24 -20 42c0 31 24 54 53 54z" />
    <glyph glyph-name="S" unicode="S" horiz-adv-x="478" 
d="M248 -9c-83 0 -155 46 -187 114c-15 30 -5 54 15 62c18 8 40 2 54 -21c27 -43 69 -71 117 -71c64 0 105 38 105 99c0 42 -21 79 -67 108c-42 29 -96 50 -139 78c-72 41 -106 97 -106 164c0 108 87 185 200 185c83 0 152 -46 182 -114c15 -29 6 -52 -12 -61
c-18 -8 -41 -3 -56 20c-26 43 -68 70 -117 70c-60 0 -105 -37 -105 -94c0 -41 22 -72 68 -100c45 -29 88 -45 132 -73c74 -44 112 -104 112 -176c0 -112 -81 -190 -196 -190z" />
    <glyph glyph-name="Sacute" unicode="&#x15a;" horiz-adv-x="478" 
d="M218 744c-14 12 -19 36 -1 57l64 73c19 22 44 23 59 10s19 -37 1 -58l-64 -72c-19 -22 -43 -23 -59 -10zM248 -9c-83 0 -155 46 -187 114c-15 30 -5 54 15 62c18 8 40 2 54 -21c27 -43 69 -71 117 -71c64 0 105 38 105 99c0 42 -21 79 -67 108c-42 29 -96 50 -139 78
c-72 41 -106 97 -106 164c0 108 87 185 200 185c83 0 152 -46 182 -114c15 -29 6 -52 -12 -61c-18 -8 -41 -3 -56 20c-26 43 -68 70 -117 70c-60 0 -105 -37 -105 -94c0 -41 22 -72 68 -100c45 -29 88 -45 132 -73c74 -44 112 -104 112 -176c0 -112 -81 -190 -196 -190z" />
    <glyph glyph-name="Scaron" unicode="&#x160;" horiz-adv-x="478" 
d="M143 808c-20 16 -23 38 -10 54c12 15 35 16 54 0l53 -42l52 42c19 16 42 15 54 0c12 -16 10 -38 -10 -54l-63 -53c-13 -10 -23 -14 -34 -14c-10 0 -20 4 -33 14zM332 357c74 -44 112 -104 112 -176c0 -112 -81 -190 -196 -190c-83 0 -155 46 -187 114c-15 30 -5 54 15 62
c18 8 40 2 54 -21c27 -43 69 -71 117 -71c64 0 105 38 105 99c0 42 -21 79 -67 108c-42 29 -96 50 -139 78c-72 41 -106 97 -106 164c0 108 87 185 200 185c83 0 152 -46 182 -114c15 -29 6 -52 -12 -61c-18 -8 -41 -3 -56 20c-26 43 -68 70 -117 70
c-60 0 -105 -37 -105 -94c0 -41 22 -72 68 -100c45 -29 88 -45 132 -73z" />
    <glyph glyph-name="Scedilla" unicode="&#x15e;" horiz-adv-x="478" 
d="M444 181c0 -104 -70 -178 -171 -189l-9 -14c42 0 76 -28 76 -69c0 -48 -39 -76 -93 -76c-27 0 -52 6 -68 17c-18 12 -18 30 -9 41c7 8 20 10 35 3c15 -9 26 -12 43 -12c19 0 34 10 34 26c0 13 -12 24 -29 24c-9 0 -15 -1 -24 -5c-12 -5 -23 -5 -31 1c-9 7 -12 19 -3 33
l20 33c-69 10 -126 52 -154 111c-15 30 -5 54 15 62c18 8 40 2 54 -21c27 -43 69 -71 117 -71c64 0 105 38 105 99c0 42 -21 79 -67 108c-42 29 -96 50 -139 78c-72 41 -106 97 -106 164c0 108 87 185 200 185c83 0 152 -46 182 -114c15 -29 6 -52 -12 -61
c-18 -8 -41 -3 -56 20c-26 43 -68 70 -117 70c-60 0 -105 -37 -105 -94c0 -41 22 -72 68 -100c45 -29 88 -45 132 -73c74 -44 112 -104 112 -176z" />
    <glyph glyph-name="Scircumflex" unicode="&#x15c;" horiz-adv-x="478" 
d="M188 754c-19 -16 -42 -16 -55 0c-11 15 -9 37 11 53l63 53c13 11 23 14 33 14c11 0 21 -3 34 -14l63 -53c20 -16 23 -38 10 -53c-12 -16 -35 -16 -54 0l-52 43zM332 357c74 -44 112 -104 112 -176c0 -112 -81 -190 -196 -190c-83 0 -155 46 -187 114c-15 30 -5 54 15 62
c18 8 40 2 54 -21c27 -43 69 -71 117 -71c64 0 105 38 105 99c0 42 -21 79 -67 108c-42 29 -96 50 -139 78c-72 41 -106 97 -106 164c0 108 87 185 200 185c83 0 152 -46 182 -114c15 -29 6 -52 -12 -61c-18 -8 -41 -3 -56 20c-26 43 -68 70 -117 70
c-60 0 -105 -37 -105 -94c0 -41 22 -72 68 -100c45 -29 88 -45 132 -73z" />
    <glyph glyph-name="uni0218" unicode="&#x218;" horiz-adv-x="478" 
d="M332 357c74 -44 112 -104 112 -176c0 -112 -81 -190 -196 -190c-83 0 -155 46 -187 114c-15 30 -5 54 15 62c18 8 40 2 54 -21c27 -43 69 -71 117 -71c64 0 105 38 105 99c0 42 -21 79 -67 108c-42 29 -96 50 -139 78c-72 41 -106 97 -106 164c0 108 87 185 200 185
c83 0 152 -46 182 -114c15 -29 6 -52 -12 -61c-18 -8 -41 -3 -56 20c-26 43 -68 70 -117 70c-60 0 -105 -37 -105 -94c0 -41 22 -72 68 -100c45 -29 88 -45 132 -73zM250 -38c29 0 54 -23 54 -55c0 -14 -5 -31 -16 -48l-34 -50c-15 -23 -36 -25 -51 -16c-13 9 -17 28 -3 48
l17 25c-12 9 -20 24 -20 42c0 31 24 54 53 54z" />
    <glyph glyph-name="uni1E9E" unicode="&#x1e9e;" horiz-adv-x="578" 
d="M380 419c101 -18 178 -90 178 -212c0 -130 -87 -213 -201 -213c-29 0 -52 4 -70 11c-28 11 -37 35 -30 54c6 18 25 28 47 23c15 -4 29 -6 47 -6c66 0 115 51 115 131c0 84 -59 133 -144 138c-25 1 -43 17 -43 42c0 13 4 24 12 38l115 196h-241v-575
c0 -30 -22 -48 -45 -48c-22 0 -45 17 -45 48v608c0 29 22 46 45 46h348c28 0 45 -14 47 -35c2 -14 -2 -28 -13 -46z" />
    <glyph glyph-name="T" unicode="T" horiz-adv-x="481" 
d="M431 700c26 0 44 -16 44 -40c0 -23 -19 -39 -44 -39h-146v-577c0 -31 -22 -48 -44 -48c-23 0 -45 17 -45 48v577h-146c-25 0 -44 16 -44 39c0 24 19 40 44 40h381z" />
    <glyph glyph-name="Tbar" unicode="&#x166;" horiz-adv-x="481" 
d="M431 700c26 0 44 -16 44 -40c0 -23 -19 -39 -44 -39h-146v-213h83c24 0 43 -14 43 -39s-19 -39 -43 -39h-83v-286c0 -31 -22 -48 -44 -48c-23 0 -45 17 -45 48v286h-84c-25 0 -45 14 -45 39s20 39 45 39h84v213h-146c-25 0 -44 16 -44 39c0 24 19 40 44 40h381z" />
    <glyph glyph-name="Tcaron" unicode="&#x164;" horiz-adv-x="481" 
d="M144 808c-20 16 -23 38 -10 54c12 15 35 16 54 0l53 -42l52 42c19 16 42 15 54 0c12 -16 10 -38 -10 -54l-63 -53c-13 -10 -23 -14 -34 -14c-10 0 -20 4 -33 14zM431 700c26 0 44 -16 44 -40c0 -23 -19 -39 -44 -39h-146v-577c0 -31 -22 -48 -44 -48c-23 0 -45 17 -45 48
v577h-146c-25 0 -44 16 -44 39c0 24 19 40 44 40h381z" />
    <glyph glyph-name="uni0162" unicode="&#x162;" horiz-adv-x="481" 
d="M431 700c26 0 44 -16 44 -40c0 -23 -19 -39 -44 -39h-146v-577c0 -17 -6 -29 -16 -37l-17 -29c42 0 76 -28 76 -69c0 -48 -39 -76 -93 -76c-27 0 -52 6 -68 17c-19 12 -19 30 -10 41c8 8 21 10 35 3c16 -9 27 -12 44 -12c19 0 34 10 34 26c0 13 -12 24 -30 24
c-8 0 -14 -1 -23 -5c-12 -5 -24 -5 -31 1c-9 7 -12 19 -3 33l28 46c-9 8 -15 21 -15 37v577h-146c-25 0 -44 16 -44 39c0 24 19 40 44 40h381z" />
    <glyph glyph-name="uni021A" unicode="&#x21a;" horiz-adv-x="481" 
d="M431 700c26 0 44 -16 44 -40c0 -23 -19 -39 -44 -39h-146v-577c0 -31 -22 -48 -44 -48c-23 0 -45 17 -45 48v577h-146c-25 0 -44 16 -44 39c0 24 19 40 44 40h381zM240 -38c29 0 54 -23 54 -55c0 -14 -5 -31 -16 -48l-34 -50c-15 -23 -36 -25 -51 -16c-13 9 -17 28 -3 48
l17 25c-12 9 -20 24 -20 42c0 31 24 54 53 54z" />
    <glyph glyph-name="U" unicode="U" horiz-adv-x="601" 
d="M301 -9c-136 0 -226 85 -226 237v429c0 30 22 47 45 47s44 -17 44 -47v-432c0 -94 56 -147 137 -147c80 0 136 53 136 147v432c0 30 22 47 44 47s45 -17 45 -47v-429c0 -152 -91 -237 -225 -237z" />
    <glyph glyph-name="Uacute" unicode="&#xda;" horiz-adv-x="601" 
d="M279 744c-14 12 -19 36 -1 57l64 73c19 22 44 23 59 10s19 -37 1 -58l-64 -72c-19 -22 -43 -23 -59 -10zM301 -9c-136 0 -226 85 -226 237v429c0 30 22 47 45 47s44 -17 44 -47v-432c0 -94 56 -147 137 -147c80 0 136 53 136 147v432c0 30 22 47 44 47s45 -17 45 -47
v-429c0 -152 -91 -237 -225 -237z" />
    <glyph glyph-name="Ubreve" unicode="&#x16c;" horiz-adv-x="601" 
d="M301 740c-61 0 -103 38 -105 93c-1 24 14 39 32 40c19 0 33 -13 36 -35s16 -35 37 -35c20 0 33 13 36 35s17 35 36 35c19 -1 33 -16 32 -40c-2 -54 -42 -93 -104 -93zM301 -9c-136 0 -226 85 -226 237v429c0 30 22 47 45 47s44 -17 44 -47v-432c0 -94 56 -147 137 -147
c80 0 136 53 136 147v432c0 30 22 47 44 47s45 -17 45 -47v-429c0 -152 -91 -237 -225 -237z" />
    <glyph glyph-name="Ucircumflex" unicode="&#xdb;" horiz-adv-x="601" 
d="M248 754c-19 -16 -42 -16 -55 0c-11 15 -9 37 11 53l63 53c13 11 23 14 33 14c11 0 21 -3 34 -14l63 -53c20 -16 23 -38 10 -53c-12 -16 -35 -16 -54 0l-52 43zM481 704c22 0 45 -17 45 -47v-429c0 -152 -91 -237 -225 -237c-136 0 -226 85 -226 237v429
c0 30 22 47 45 47s44 -17 44 -47v-432c0 -94 56 -147 137 -147c80 0 136 53 136 147v432c0 30 22 47 44 47z" />
    <glyph glyph-name="Udieresis" unicode="&#xdc;" horiz-adv-x="601" 
d="M214 754c-29 0 -55 22 -55 56c0 33 26 55 55 55s55 -22 55 -55c0 -34 -26 -56 -55 -56zM388 754c-29 0 -55 22 -55 56c0 33 26 55 55 55s55 -22 55 -55c0 -34 -26 -56 -55 -56zM301 -9c-136 0 -226 85 -226 237v429c0 30 22 47 45 47s44 -17 44 -47v-432
c0 -94 56 -147 137 -147c80 0 136 53 136 147v432c0 30 22 47 44 47s45 -17 45 -47v-429c0 -152 -91 -237 -225 -237z" />
    <glyph glyph-name="Ugrave" unicode="&#xd9;" horiz-adv-x="601" 
d="M323 744c-15 -13 -39 -12 -58 10l-65 72c-17 21 -13 45 2 58s40 12 58 -10l65 -73c18 -21 13 -45 -2 -57zM301 -9c-136 0 -226 85 -226 237v429c0 30 22 47 45 47s44 -17 44 -47v-432c0 -94 56 -147 137 -147c80 0 136 53 136 147v432c0 30 22 47 44 47s45 -17 45 -47
v-429c0 -152 -91 -237 -225 -237z" />
    <glyph glyph-name="Uhungarumlaut" unicode="&#x170;" horiz-adv-x="601" 
d="M204 746c-15 12 -19 35 -1 56l66 74c18 23 42 23 57 11s19 -36 2 -57l-67 -74c-18 -22 -42 -23 -57 -10zM339 746c-15 12 -19 36 -2 56l67 74c18 23 42 23 57 11c14 -12 19 -36 1 -57l-66 -74c-18 -22 -42 -23 -57 -10zM301 -9c-136 0 -226 85 -226 237v429
c0 30 22 47 45 47s44 -17 44 -47v-432c0 -94 56 -147 137 -147c80 0 136 53 136 147v432c0 30 22 47 44 47s45 -17 45 -47v-429c0 -152 -91 -237 -225 -237z" />
    <glyph glyph-name="Umacron" unicode="&#x16a;" horiz-adv-x="601" 
d="M223 768c-23 0 -41 13 -41 36s18 35 41 35h156c22 0 39 -12 39 -35s-17 -36 -39 -36h-156zM301 -9c-136 0 -226 85 -226 237v429c0 30 22 47 45 47s44 -17 44 -47v-432c0 -94 56 -147 137 -147c80 0 136 53 136 147v432c0 30 22 47 44 47s45 -17 45 -47v-429
c0 -152 -91 -237 -225 -237z" />
    <glyph glyph-name="Uogonek" unicode="&#x172;" horiz-adv-x="601" 
d="M481 704c22 0 45 -17 45 -47v-428c0 -113 -50 -184 -128 -221c-35 -16 -55 -42 -55 -70c0 -25 15 -38 37 -39c21 -2 33 -13 33 -30c-1 -19 -15 -31 -42 -32c-55 -2 -97 34 -97 87c0 25 10 48 29 68c-144 1 -228 90 -228 237v428c0 30 22 47 45 47s44 -17 44 -47v-431
c0 -94 56 -147 137 -147c80 0 136 53 136 147v431c0 30 22 47 44 47z" />
    <glyph glyph-name="Uring" unicode="&#x16e;" horiz-adv-x="601" 
d="M303 725c-50 0 -86 36 -86 81c0 46 36 82 86 82c49 0 85 -36 85 -82c0 -45 -36 -81 -85 -81zM303 774c18 0 31 15 31 32c0 19 -13 33 -31 33s-32 -14 -32 -33c0 -17 14 -32 32 -32zM301 -9c-136 0 -226 85 -226 237v429c0 30 22 47 45 47s44 -17 44 -47v-432
c0 -94 56 -147 137 -147c80 0 136 53 136 147v432c0 30 22 47 44 47s45 -17 45 -47v-429c0 -152 -91 -237 -225 -237z" />
    <glyph glyph-name="Utilde" unicode="&#x168;" horiz-adv-x="601" 
d="M198 751c-17 4 -27 19 -22 44c8 39 38 62 74 62c14 0 26 -2 37 -6c16 -7 27 -13 42 -20c7 -3 12 -5 17 -5c8 0 13 3 17 13c8 20 26 26 42 23c16 -4 26 -19 21 -43c-7 -39 -37 -63 -74 -63c-14 0 -26 2 -37 6c-17 7 -28 14 -42 20c-7 3 -12 5 -17 5c-8 0 -13 -4 -17 -13
c-8 -20 -26 -27 -41 -23zM301 -9c-136 0 -226 85 -226 237v429c0 30 22 47 45 47s44 -17 44 -47v-432c0 -94 56 -147 137 -147c80 0 136 53 136 147v432c0 30 22 47 44 47s45 -17 45 -47v-429c0 -152 -91 -237 -225 -237z" />
    <glyph glyph-name="V" unicode="V" horiz-adv-x="547" 
d="M498 701c21 -8 32 -31 22 -62l-199 -608c-9 -25 -28 -35 -47 -35s-39 11 -47 35l-200 609c-11 31 3 56 27 63c22 5 46 -5 57 -36l165 -510l161 509c11 34 38 43 61 35z" />
    <glyph glyph-name="W" unicode="W" horiz-adv-x="769" 
d="M709 703c22 -5 38 -26 31 -58l-139 -612c-6 -26 -27 -37 -46 -37s-39 11 -46 37l-122 434l-127 -435c-7 -25 -27 -36 -46 -36s-41 11 -47 36l-138 613c-8 33 10 54 33 58c22 4 46 -9 53 -40l106 -476l119 425c8 27 26 42 48 42c23 0 41 -15 48 -42l115 -420l103 471
c8 33 33 45 55 40z" />
    <glyph glyph-name="Wacute" unicode="&#x1e82;" horiz-adv-x="769" 
d="M365 744c-14 12 -19 36 -1 57l64 73c19 22 44 23 59 10s19 -37 1 -58l-64 -72c-19 -22 -43 -23 -59 -10zM709 703c22 -5 38 -26 31 -58l-139 -612c-6 -26 -27 -37 -46 -37s-39 11 -46 37l-122 434l-127 -435c-7 -25 -27 -36 -46 -36s-41 11 -47 36l-138 613
c-8 33 10 54 33 58c22 4 46 -9 53 -40l106 -476l119 425c8 27 26 42 48 42c23 0 41 -15 48 -42l115 -420l103 471c8 33 33 45 55 40z" />
    <glyph glyph-name="Wcircumflex" unicode="&#x174;" horiz-adv-x="769" 
d="M335 754c-19 -16 -42 -16 -55 0c-11 15 -9 37 11 53l63 53c13 11 23 14 33 14c11 0 21 -3 34 -14l63 -53c20 -16 23 -38 10 -53c-12 -16 -35 -16 -54 0l-52 43zM709 703c22 -5 38 -26 31 -58l-139 -612c-6 -26 -27 -37 -46 -37s-39 11 -46 37l-122 434l-127 -435
c-7 -25 -27 -36 -46 -36s-41 11 -47 36l-138 613c-8 33 10 54 33 58c22 4 46 -9 53 -40l106 -476l119 425c8 27 26 42 48 42c23 0 41 -15 48 -42l115 -420l103 471c8 33 33 45 55 40z" />
    <glyph glyph-name="Wdieresis" unicode="&#x1e84;" horiz-adv-x="769" 
d="M301 754c-29 0 -55 22 -55 56c0 33 26 55 55 55s55 -22 55 -55c0 -34 -26 -56 -55 -56zM475 754c-29 0 -55 22 -55 56c0 33 26 55 55 55s55 -22 55 -55c0 -34 -26 -56 -55 -56zM709 703c22 -5 38 -26 31 -58l-139 -612c-6 -26 -27 -37 -46 -37s-39 11 -46 37l-122 434
l-127 -435c-7 -25 -27 -36 -46 -36s-41 11 -47 36l-138 613c-8 33 10 54 33 58c22 4 46 -9 53 -40l106 -476l119 425c8 27 26 42 48 42c23 0 41 -15 48 -42l115 -420l103 471c8 33 33 45 55 40z" />
    <glyph glyph-name="Wgrave" unicode="&#x1e80;" horiz-adv-x="769" 
d="M352 754l-65 72c-17 21 -13 45 2 58s40 12 58 -10l65 -73c18 -21 13 -45 -2 -57c-15 -13 -39 -12 -58 10zM709 703c22 -5 38 -26 31 -58l-139 -612c-6 -26 -27 -37 -46 -37s-39 11 -46 37l-122 434l-127 -435c-7 -25 -27 -36 -46 -36s-41 11 -47 36l-138 613
c-8 33 10 54 33 58c22 4 46 -9 53 -40l106 -476l119 425c8 27 26 42 48 42c23 0 41 -15 48 -42l115 -420l103 471c8 33 33 45 55 40z" />
    <glyph glyph-name="X" unicode="X" horiz-adv-x="518" 
d="M312 343l166 -277c17 -27 8 -53 -11 -64s-47 -7 -65 21l-146 245l-146 -245c-17 -28 -45 -32 -64 -20c-18 11 -25 38 -9 64l169 284l-167 280c-19 31 -8 58 12 68c19 10 45 5 62 -22l150 -251l145 251c17 28 45 32 64 20c19 -11 26 -37 10 -64z" />
    <glyph glyph-name="Y" unicode="Y" horiz-adv-x="521" 
d="M485 699c18 -10 27 -35 11 -63l-191 -344v-248c0 -30 -22 -48 -45 -48c-22 0 -44 17 -44 48v250l-192 342c-17 30 -5 55 15 65c19 8 46 2 61 -26l162 -291l159 291c17 30 45 35 64 24z" />
    <glyph glyph-name="Yacute" unicode="&#xdd;" horiz-adv-x="521" 
d="M239 744c-14 12 -19 36 -1 57l64 73c19 22 44 23 59 10s19 -37 1 -58l-64 -72c-19 -22 -43 -23 -59 -10zM485 699c18 -10 27 -35 11 -63l-191 -344v-248c0 -30 -22 -48 -45 -48c-22 0 -44 17 -44 48v250l-192 342c-17 30 -5 55 15 65c19 8 46 2 61 -26l162 -291l159 291
c17 30 45 35 64 24z" />
    <glyph glyph-name="Ycircumflex" unicode="&#x176;" horiz-adv-x="521" 
d="M209 754c-19 -16 -42 -16 -55 0c-11 15 -9 37 11 53l63 53c13 11 23 14 33 14c11 0 21 -3 34 -14l63 -53c20 -16 23 -38 10 -53c-12 -16 -35 -16 -54 0l-52 43zM485 699c18 -10 27 -35 11 -63l-191 -344v-248c0 -30 -22 -48 -45 -48c-22 0 -44 17 -44 48v250l-192 342
c-17 30 -5 55 15 65c19 8 46 2 61 -26l162 -291l159 291c17 30 45 35 64 24z" />
    <glyph glyph-name="Ydieresis" unicode="&#x178;" horiz-adv-x="521" 
d="M174 754c-29 0 -55 22 -55 56c0 33 26 55 55 55s55 -22 55 -55c0 -34 -26 -56 -55 -56zM348 754c-29 0 -55 22 -55 56c0 33 26 55 55 55s55 -22 55 -55c0 -34 -26 -56 -55 -56zM485 699c18 -10 27 -35 11 -63l-191 -344v-248c0 -30 -22 -48 -45 -48c-22 0 -44 17 -44 48
v250l-192 342c-17 30 -5 55 15 65c19 8 46 2 61 -26l162 -291l159 291c17 30 45 35 64 24z" />
    <glyph glyph-name="Ygrave" unicode="&#x1ef2;" horiz-adv-x="521" 
d="M226 754l-65 72c-17 21 -13 45 2 58s40 12 58 -10l65 -73c18 -21 13 -45 -2 -57c-15 -13 -39 -12 -58 10zM485 699c18 -10 27 -35 11 -63l-191 -344v-248c0 -30 -22 -48 -45 -48c-22 0 -44 17 -44 48v250l-192 342c-17 30 -5 55 15 65c19 8 46 2 61 -26l162 -291l159 291
c17 30 45 35 64 24z" />
    <glyph glyph-name="Z" unicode="Z" horiz-adv-x="462" 
d="M390 79c24 0 43 -16 43 -39c0 -24 -19 -40 -43 -40h-319c-24 0 -41 17 -41 41c0 11 3 22 10 34l283 546h-248c-25 0 -44 16 -44 39c0 24 19 40 44 40h311c25 0 45 -14 45 -41c0 -11 -2 -21 -11 -37l-282 -543h252z" />
    <glyph glyph-name="Zacute" unicode="&#x179;" horiz-adv-x="462" 
d="M209 744c-14 12 -19 36 -1 57l64 73c19 22 44 23 59 10s19 -37 1 -58l-64 -72c-19 -22 -43 -23 -59 -10zM390 79c24 0 43 -16 43 -39c0 -24 -19 -40 -43 -40h-319c-24 0 -41 17 -41 41c0 11 3 22 10 34l283 546h-248c-25 0 -44 16 -44 39c0 24 19 40 44 40h311
c25 0 45 -14 45 -41c0 -11 -2 -21 -11 -37l-282 -543h252z" />
    <glyph glyph-name="Zcaron" unicode="&#x17d;" horiz-adv-x="462" 
d="M135 808c-20 16 -23 38 -10 54c12 15 35 16 54 0l53 -42l52 42c19 16 42 15 54 0c12 -16 10 -38 -10 -54l-63 -53c-13 -10 -23 -14 -34 -14c-10 0 -20 4 -33 14zM390 79c24 0 43 -16 43 -39c0 -24 -19 -40 -43 -40h-319c-24 0 -41 17 -41 41c0 11 3 22 10 34l283 546
h-248c-25 0 -44 16 -44 39c0 24 19 40 44 40h311c25 0 45 -14 45 -41c0 -11 -2 -21 -11 -37l-282 -543h252z" />
    <glyph glyph-name="Zdotaccent" unicode="&#x17b;" horiz-adv-x="462" 
d="M231 770c-29 0 -55 22 -55 55s26 56 55 56s55 -23 55 -56s-26 -55 -55 -55zM390 79c24 0 43 -16 43 -39c0 -24 -19 -40 -43 -40h-319c-24 0 -41 17 -41 41c0 11 3 22 10 34l283 546h-248c-25 0 -44 16 -44 39c0 24 19 40 44 40h311c25 0 45 -14 45 -41
c0 -11 -2 -21 -11 -37l-282 -543h252z" />
    <glyph glyph-name="uni01B5" unicode="&#x1b5;" horiz-adv-x="462" 
d="M390 79c24 0 43 -16 43 -39c0 -24 -19 -40 -43 -40h-319c-24 0 -41 17 -41 41c0 11 3 22 10 34l132 255h-63c-25 0 -44 14 -44 39s19 39 44 39h103l111 213h-248c-25 0 -44 16 -44 39c0 24 19 40 44 40h311c25 0 45 -14 45 -41c0 -11 -2 -21 -11 -37l-111 -214h56
c24 0 44 -14 44 -39s-20 -39 -44 -39h-96l-131 -251h252z" />
    <glyph glyph-name="a" unicode="a" horiz-adv-x="472" 
d="M468 75c9 -14 8 -36 -8 -53c-15 -16 -38 -26 -66 -26c-35 0 -63 16 -77 46c-36 -35 -83 -51 -132 -51c-91 0 -154 54 -154 139c0 79 55 136 149 158l119 25v10c0 69 -30 104 -83 104c-39 0 -71 -20 -92 -65c-12 -21 -34 -28 -52 -20c-18 7 -27 28 -17 54
c26 72 91 112 166 112c103 0 164 -62 164 -173v-226c0 -21 11 -29 23 -29c7 0 11 2 18 5c16 8 33 3 42 -10zM194 67c39 0 81 20 105 53v121l-98 -21c-53 -13 -84 -43 -84 -85s32 -68 77 -68z" />
    <glyph glyph-name="aacute" unicode="&#xe1;" horiz-adv-x="472" 
d="M199 552c-14 12 -19 36 -1 57l64 73c19 22 44 23 59 10s19 -37 1 -58l-64 -72c-19 -22 -43 -23 -59 -10zM468 75c9 -14 8 -36 -8 -53c-15 -16 -38 -26 -66 -26c-35 0 -63 16 -77 46c-36 -35 -83 -51 -132 -51c-91 0 -154 54 -154 139c0 79 55 136 149 158l119 25v10
c0 69 -30 104 -83 104c-39 0 -71 -20 -92 -65c-12 -21 -34 -28 -52 -20c-18 7 -27 28 -17 54c26 72 91 112 166 112c103 0 164 -62 164 -173v-226c0 -21 11 -29 23 -29c7 0 11 2 18 5c16 8 33 3 42 -10zM194 67c39 0 81 20 105 53v121l-98 -21c-53 -13 -84 -43 -84 -85
s32 -68 77 -68z" />
    <glyph glyph-name="abreve" unicode="&#x103;" horiz-adv-x="472" 
d="M220 554c-61 0 -103 38 -105 93c-1 24 14 39 32 39c19 1 33 -12 36 -34c3 -23 16 -35 37 -35c20 0 33 12 36 35c3 22 17 35 36 34c19 0 33 -15 32 -39c-2 -54 -42 -93 -104 -93zM468 75c9 -14 8 -36 -8 -53c-15 -16 -38 -26 -66 -26c-35 0 -63 16 -77 46
c-36 -35 -83 -51 -132 -51c-91 0 -154 54 -154 139c0 79 55 136 149 158l119 25v10c0 69 -30 104 -83 104c-39 0 -71 -20 -92 -65c-12 -21 -34 -28 -52 -20c-18 7 -27 28 -17 54c26 72 91 112 166 112c103 0 164 -62 164 -173v-226c0 -21 11 -29 23 -29c7 0 11 2 18 5
c16 8 33 3 42 -10zM194 67c39 0 81 20 105 53v121l-98 -21c-53 -13 -84 -43 -84 -85s32 -68 77 -68z" />
    <glyph glyph-name="acircumflex" unicode="&#xe2;" horiz-adv-x="472" 
d="M168 566c-19 -16 -42 -15 -55 0c-11 16 -9 38 11 54l63 52c13 11 23 15 33 15c11 0 21 -4 34 -15l63 -52c20 -17 23 -38 10 -54c-12 -15 -35 -16 -54 0l-52 43zM468 75c9 -14 8 -36 -8 -53c-15 -16 -38 -26 -66 -26c-35 0 -63 16 -77 46c-36 -35 -83 -51 -132 -51
c-91 0 -154 54 -154 139c0 79 55 136 149 158l119 25v10c0 69 -30 104 -83 104c-39 0 -71 -20 -92 -65c-12 -21 -34 -28 -52 -20c-18 7 -27 28 -17 54c26 72 91 112 166 112c103 0 164 -62 164 -173v-226c0 -21 11 -29 23 -29c7 0 11 2 18 5c16 8 33 3 42 -10zM194 67
c39 0 81 20 105 53v121l-98 -21c-53 -13 -84 -43 -84 -85s32 -68 77 -68z" />
    <glyph glyph-name="adieresis" unicode="&#xe4;" horiz-adv-x="472" 
d="M133 569c-29 0 -55 22 -55 55s26 56 55 56s55 -23 55 -56s-26 -55 -55 -55zM307 569c-29 0 -55 22 -55 55s26 56 55 56s55 -23 55 -56s-26 -55 -55 -55zM468 75c9 -14 8 -36 -8 -53c-15 -16 -38 -26 -66 -26c-35 0 -63 16 -77 46c-36 -35 -83 -51 -132 -51
c-91 0 -154 54 -154 139c0 79 55 136 149 158l119 25v10c0 69 -30 104 -83 104c-39 0 -71 -20 -92 -65c-12 -21 -34 -28 -52 -20c-18 7 -27 28 -17 54c26 72 91 112 166 112c103 0 164 -62 164 -173v-226c0 -21 11 -29 23 -29c7 0 11 2 18 5c16 8 33 3 42 -10zM194 67
c39 0 81 20 105 53v121l-98 -21c-53 -13 -84 -43 -84 -85s32 -68 77 -68z" />
    <glyph glyph-name="agrave" unicode="&#xe0;" horiz-adv-x="472" 
d="M183 562l-65 72c-17 21 -13 45 2 58s40 12 58 -10l65 -73c18 -21 13 -45 -2 -57c-15 -13 -39 -12 -58 10zM468 75c9 -14 8 -36 -8 -53c-15 -16 -38 -26 -66 -26c-35 0 -63 16 -77 46c-36 -35 -83 -51 -132 -51c-91 0 -154 54 -154 139c0 79 55 136 149 158l119 25v10
c0 69 -30 104 -83 104c-39 0 -71 -20 -92 -65c-12 -21 -34 -28 -52 -20c-18 7 -27 28 -17 54c26 72 91 112 166 112c103 0 164 -62 164 -173v-226c0 -21 11 -29 23 -29c7 0 11 2 18 5c16 8 33 3 42 -10zM194 67c39 0 81 20 105 53v121l-98 -21c-53 -13 -84 -43 -84 -85
s32 -68 77 -68z" />
    <glyph glyph-name="amacron" unicode="&#x101;" horiz-adv-x="472" 
d="M143 585c-23 0 -41 13 -41 36s18 35 41 35h156c22 0 39 -12 39 -35s-17 -36 -39 -36h-156zM468 75c9 -14 8 -36 -8 -53c-15 -16 -38 -26 -66 -26c-35 0 -63 16 -77 46c-36 -35 -83 -51 -132 -51c-91 0 -154 54 -154 139c0 79 55 136 149 158l119 25v10
c0 69 -30 104 -83 104c-39 0 -71 -20 -92 -65c-12 -21 -34 -28 -52 -20c-18 7 -27 28 -17 54c26 72 91 112 166 112c103 0 164 -62 164 -173v-226c0 -21 11 -29 23 -29c7 0 11 2 18 5c16 8 33 3 42 -10zM194 67c39 0 81 20 105 53v121l-98 -21c-53 -13 -84 -43 -84 -85
s32 -68 77 -68z" />
    <glyph glyph-name="aogonek" unicode="&#x105;" horiz-adv-x="472" 
d="M434 -101c21 -2 33 -13 33 -30c-1 -19 -15 -31 -42 -32c-55 -2 -97 34 -97 87c0 28 12 57 34 77c-20 7 -36 21 -45 41c-36 -35 -83 -51 -132 -51c-91 0 -154 54 -154 139c0 73 48 134 149 158l119 25v10c0 69 -30 104 -83 104c-39 0 -71 -20 -92 -65
c-12 -21 -34 -28 -52 -20c-18 7 -27 28 -17 54c26 72 91 112 166 112c103 0 164 -62 164 -173v-226c0 -21 11 -29 23 -29c7 0 11 2 18 5c16 8 33 3 42 -10c11 -18 4 -42 -12 -57c-7 -6 -16 -12 -26 -19c-21 -14 -33 -36 -33 -61c0 -24 15 -38 37 -39zM194 67
c39 0 81 20 105 53v121l-98 -21c-55 -13 -84 -45 -84 -85c0 -42 32 -68 77 -68z" />
    <glyph glyph-name="aring" unicode="&#xe5;" horiz-adv-x="472" 
d="M220 540c-50 0 -86 37 -86 82s36 81 86 81s85 -36 85 -81s-35 -82 -85 -82zM220 654c-18 0 -32 -13 -32 -32c0 -18 14 -33 32 -33s32 15 32 33c0 19 -14 32 -32 32zM468 75c9 -14 8 -36 -8 -53c-15 -16 -38 -26 -66 -26c-35 0 -63 16 -77 46c-36 -35 -83 -51 -132 -51
c-91 0 -154 54 -154 139c0 79 55 136 149 158l119 25v10c0 69 -30 104 -83 104c-39 0 -71 -20 -92 -65c-12 -21 -34 -28 -52 -20c-18 7 -27 28 -17 54c26 72 91 112 166 112c103 0 164 -62 164 -173v-226c0 -21 11 -29 23 -29c7 0 11 2 18 5c16 8 33 3 42 -10zM194 67
c39 0 81 20 105 53v121l-98 -21c-53 -13 -84 -43 -84 -85s32 -68 77 -68z" />
    <glyph glyph-name="atilde" unicode="&#xe3;" horiz-adv-x="472" 
d="M117 564c-17 3 -27 18 -22 43c8 39 38 62 75 62c14 0 26 -2 36 -6c17 -7 28 -13 43 -20c6 -3 11 -5 17 -5c8 0 12 4 17 13c8 20 25 27 42 23c15 -4 26 -19 21 -43c-7 -39 -37 -63 -74 -63c-15 0 -27 2 -37 6c-17 7 -28 14 -43 20c-6 3 -11 5 -17 5c-8 0 -12 -3 -17 -13
c-8 -20 -25 -26 -41 -22zM468 75c9 -14 8 -36 -8 -53c-15 -16 -38 -26 -66 -26c-35 0 -63 16 -77 46c-36 -35 -83 -51 -132 -51c-91 0 -154 54 -154 139c0 79 55 136 149 158l119 25v10c0 69 -30 104 -83 104c-39 0 -71 -20 -92 -65c-12 -21 -34 -28 -52 -20
c-18 7 -27 28 -17 54c26 72 91 112 166 112c103 0 164 -62 164 -173v-226c0 -21 11 -29 23 -29c7 0 11 2 18 5c16 8 33 3 42 -10zM194 67c39 0 81 20 105 53v121l-98 -21c-53 -13 -84 -43 -84 -85s32 -68 77 -68z" />
    <glyph glyph-name="ae" unicode="&#xe6;" horiz-adv-x="726" 
d="M695 277c0 -27 -17 -45 -45 -45h-262c6 -111 66 -160 119 -160c37 0 72 26 94 72c11 20 32 28 52 20c19 -8 26 -31 15 -56c-23 -70 -85 -117 -161 -117c-64 0 -123 32 -162 90c-33 -64 -98 -90 -157 -90c-94 0 -157 55 -157 140c0 72 47 143 174 160l94 10v22
c0 69 -30 104 -83 104c-39 0 -71 -20 -93 -65c-11 -21 -32 -27 -51 -20c-18 7 -27 29 -17 54c26 72 91 112 166 112c64 0 112 -24 139 -68c37 44 88 68 141 68c125 0 194 -123 194 -231zM500 428c-46 0 -95 -40 -108 -127h214c-7 81 -53 127 -106 127zM194 67
c55 0 105 40 105 114v50l-70 -6c-84 -10 -112 -49 -112 -89c0 -42 32 -69 77 -69z" />
    <glyph glyph-name="aeacute" unicode="&#x1fd;" horiz-adv-x="726" 
d="M342 552c-14 12 -19 36 -1 57l64 73c19 22 44 23 59 10s19 -37 1 -58l-64 -72c-19 -22 -43 -23 -59 -10zM695 277c0 -27 -17 -45 -45 -45h-262c6 -111 66 -160 119 -160c37 0 72 26 94 72c11 20 32 28 52 20c19 -8 26 -31 15 -56c-23 -70 -85 -117 -161 -117
c-64 0 -123 32 -162 90c-33 -64 -98 -90 -157 -90c-94 0 -157 55 -157 140c0 72 47 143 174 160l94 10v22c0 69 -30 104 -83 104c-39 0 -71 -20 -93 -65c-11 -21 -32 -27 -51 -20c-18 7 -27 29 -17 54c26 72 91 112 166 112c64 0 112 -24 139 -68c37 44 88 68 141 68
c125 0 194 -123 194 -231zM500 428c-46 0 -95 -40 -108 -127h214c-7 81 -53 127 -106 127zM194 67c55 0 105 40 105 114v50l-70 -6c-84 -10 -112 -49 -112 -89c0 -42 32 -69 77 -69z" />
    <glyph glyph-name="b" unicode="b" horiz-adv-x="493" 
d="M259 508c114 0 194 -99 194 -257c0 -165 -89 -260 -200 -260c-38 0 -76 12 -104 36c-5 -19 -23 -31 -41 -31c-23 0 -43 17 -43 45v618c0 28 20 45 43 45s43 -17 43 -45v-188c31 25 70 37 108 37zM245 71c58 0 119 50 119 179c0 119 -55 177 -116 177
c-35 0 -73 -16 -97 -53v-250c29 -39 63 -53 94 -53z" />
    <glyph glyph-name="c" unicode="c" horiz-adv-x="447" 
d="M245 -9c-108 0 -205 94 -205 258s97 259 205 259c75 0 142 -49 165 -128c9 -24 1 -46 -19 -53c-20 -8 -41 1 -51 21c-21 50 -54 79 -94 79c-55 0 -118 -55 -118 -178c0 -122 63 -177 118 -177c40 0 74 29 94 77c9 22 31 31 51 24c20 -8 28 -30 19 -54
c-23 -79 -89 -128 -165 -128z" />
    <glyph glyph-name="cacute" unicode="&#x107;" horiz-adv-x="447" 
d="M222 552c-14 12 -19 36 -1 57l64 73c19 22 44 23 59 10s19 -37 1 -58l-64 -72c-19 -22 -43 -23 -59 -10zM245 -9c-108 0 -205 94 -205 258s97 259 205 259c75 0 142 -49 165 -128c9 -24 1 -46 -19 -53c-20 -8 -41 1 -51 21c-21 50 -54 79 -94 79
c-55 0 -118 -55 -118 -178c0 -122 63 -177 118 -177c40 0 74 29 94 77c9 22 31 31 51 24c20 -8 28 -30 19 -54c-23 -79 -89 -128 -165 -128z" />
    <glyph glyph-name="ccaron" unicode="&#x10d;" horiz-adv-x="447" 
d="M147 620c-20 17 -23 39 -11 54c13 15 36 16 55 0l53 -42l52 42c19 16 42 15 54 0s10 -37 -10 -54l-63 -52c-13 -11 -23 -15 -34 -15c-10 0 -20 4 -33 15zM391 173c20 -8 28 -30 19 -54c-23 -79 -89 -128 -165 -128c-108 0 -205 94 -205 258s97 259 205 259
c75 0 142 -49 165 -128c9 -24 1 -46 -19 -53c-20 -8 -41 1 -51 21c-21 50 -54 79 -94 79c-55 0 -118 -55 -118 -178c0 -122 63 -177 118 -177c40 0 74 29 94 77c9 22 31 31 51 24z" />
    <glyph glyph-name="ccedilla" unicode="&#xe7;" horiz-adv-x="447" 
d="M391 173c20 -8 28 -30 19 -54c-21 -71 -75 -117 -141 -126l-9 -15c42 0 76 -28 76 -69c0 -48 -39 -76 -93 -76c-27 0 -52 6 -68 17c-18 12 -18 30 -9 41c7 8 20 10 35 3c15 -9 26 -12 43 -12c19 0 34 10 34 26c0 13 -12 24 -29 24c-9 0 -15 -1 -24 -5
c-12 -5 -23 -5 -31 1c-9 7 -12 19 -3 33l20 33c-93 18 -171 108 -171 255c0 164 97 259 205 259c75 0 142 -49 165 -128c9 -24 1 -46 -19 -53c-20 -8 -41 1 -51 21c-21 50 -54 79 -94 79c-55 0 -118 -55 -118 -178c0 -122 63 -177 118 -177c40 0 74 29 94 77
c9 22 31 31 51 24z" />
    <glyph glyph-name="ccircumflex" unicode="&#x109;" horiz-adv-x="447" 
d="M191 566c-19 -16 -42 -15 -55 0c-11 16 -9 38 11 54l63 52c13 11 23 15 33 15c11 0 21 -4 34 -15l63 -52c20 -17 23 -38 10 -54c-12 -15 -35 -16 -54 0l-52 43zM391 173c20 -8 28 -30 19 -54c-23 -79 -89 -128 -165 -128c-108 0 -205 94 -205 258s97 259 205 259
c75 0 142 -49 165 -128c9 -24 1 -46 -19 -53c-20 -8 -41 1 -51 21c-21 50 -54 79 -94 79c-55 0 -118 -55 -118 -178c0 -122 63 -177 118 -177c40 0 74 29 94 77c9 22 31 31 51 24z" />
    <glyph glyph-name="cdotaccent" unicode="&#x10b;" horiz-adv-x="447" 
d="M243 569c-29 0 -55 22 -55 55s26 56 55 56s55 -23 55 -56s-26 -55 -55 -55zM245 -9c-108 0 -205 94 -205 258s97 259 205 259c75 0 142 -49 165 -128c9 -24 1 -46 -19 -53c-20 -8 -41 1 -51 21c-21 50 -54 79 -94 79c-55 0 -118 -55 -118 -178c0 -122 63 -177 118 -177
c40 0 74 29 94 77c9 22 31 31 51 24c20 -8 28 -30 19 -54c-23 -79 -89 -128 -165 -128z" />
    <glyph glyph-name="d" unicode="d" horiz-adv-x="493" 
d="M385 704c23 0 43 -17 43 -45v-618c0 -28 -20 -45 -43 -45c-20 0 -37 12 -42 34c-31 -27 -70 -39 -109 -39c-114 0 -194 100 -194 258c0 164 88 259 200 259c38 0 74 -11 102 -34v185c0 28 20 45 43 45zM245 72c35 0 73 17 97 55v248c-29 39 -64 52 -94 52
c-58 0 -119 -49 -119 -178c0 -119 55 -177 116 -177z" />
    <glyph glyph-name="eth" unicode="&#xf0;" horiz-adv-x="493" 
d="M318 627c86 -79 135 -202 135 -336c0 -186 -91 -300 -208 -300c-109 0 -205 94 -205 255c0 160 95 250 199 250c35 0 67 -10 94 -28c-19 43 -47 81 -86 111l-52 -35c-21 -13 -43 -10 -54 6c-11 15 -7 37 14 50l27 18c-9 5 -19 9 -30 13c-31 11 -38 37 -29 56
c9 17 29 25 59 16c28 -8 53 -19 77 -33l41 27c21 14 43 10 54 -5c11 -16 7 -37 -14 -51zM245 72c68 0 121 76 121 218c0 20 -1 39 -3 57c-29 51 -74 73 -116 73c-61 0 -119 -59 -119 -174c0 -116 57 -174 117 -174z" />
    <glyph glyph-name="dcaron" unicode="&#x10f;" horiz-adv-x="520" 
d="M385 704c23 0 43 -17 43 -45v-618c0 -28 -20 -45 -43 -45c-20 0 -37 12 -42 34c-31 -27 -70 -39 -109 -39c-114 0 -194 100 -194 258c0 164 88 259 200 259c38 0 74 -11 102 -34v185c0 28 20 45 43 45zM533 703c21 -1 38 -20 35 -47l-11 -125c-2 -27 -23 -41 -43 -39
c-22 1 -38 19 -35 47l10 125c3 27 24 41 44 39zM245 72c35 0 73 17 97 55v248c-29 39 -64 52 -94 52c-58 0 -119 -49 -119 -178c0 -119 55 -177 116 -177z" />
    <glyph glyph-name="dcroat" unicode="&#x111;" horiz-adv-x="493" 
d="M457 628c24 0 42 -14 42 -35c0 -22 -18 -36 -42 -36h-29v-516c0 -28 -20 -45 -43 -45c-20 0 -37 12 -42 34c-31 -27 -70 -39 -109 -39c-114 0 -194 100 -194 258c0 164 88 259 200 259c38 0 74 -11 102 -34v83h-79c-24 0 -42 14 -42 36c0 21 18 35 42 35h79v31
c0 28 20 45 43 45s43 -17 43 -45v-31h29zM245 72c35 0 73 17 97 55v248c-29 39 -64 52 -94 52c-58 0 -119 -49 -119 -178c0 -119 55 -177 116 -177z" />
    <glyph glyph-name="e" unicode="e" horiz-adv-x="466" 
d="M436 277c0 -27 -18 -45 -46 -45h-262c6 -111 66 -160 120 -160c37 0 72 26 93 72c12 20 33 28 52 20c20 -8 26 -31 16 -56c-23 -70 -86 -117 -162 -117c-110 0 -207 96 -207 259c0 164 96 258 202 258c125 0 194 -123 194 -231zM241 428c-47 0 -96 -40 -109 -127h214
c-7 81 -53 127 -105 127z" />
    <glyph glyph-name="eacute" unicode="&#xe9;" horiz-adv-x="466" 
d="M223 552c-14 12 -19 36 -1 57l64 73c19 22 44 23 59 10s19 -37 1 -58l-64 -72c-19 -22 -43 -23 -59 -10zM436 277c0 -27 -18 -45 -46 -45h-262c6 -111 66 -160 120 -160c37 0 72 26 93 72c12 20 33 28 52 20c20 -8 26 -31 16 -56c-23 -70 -86 -117 -162 -117
c-110 0 -207 96 -207 259c0 164 96 258 202 258c125 0 194 -123 194 -231zM241 428c-47 0 -96 -40 -109 -127h214c-7 81 -53 127 -105 127z" />
    <glyph glyph-name="ebreve" unicode="&#x115;" horiz-adv-x="466" 
d="M245 554c-61 0 -103 38 -105 93c-1 24 14 39 32 39c19 1 33 -12 36 -34c3 -23 16 -35 37 -35c20 0 33 12 36 35c3 22 17 35 36 34c19 0 33 -15 32 -39c-2 -54 -42 -93 -104 -93zM436 277c0 -27 -18 -45 -46 -45h-262c6 -111 66 -160 120 -160c37 0 72 26 93 72
c12 20 33 28 52 20c20 -8 26 -31 16 -56c-23 -70 -86 -117 -162 -117c-110 0 -207 96 -207 259c0 164 96 258 202 258c125 0 194 -123 194 -231zM241 428c-47 0 -96 -40 -109 -127h214c-7 81 -53 127 -105 127z" />
    <glyph glyph-name="ecaron" unicode="&#x11b;" horiz-adv-x="466" 
d="M148 620c-20 17 -23 39 -11 54c13 15 36 16 55 0l53 -42l52 42c19 16 42 15 54 0s10 -37 -10 -54l-63 -52c-13 -11 -23 -15 -34 -15c-10 0 -20 4 -33 15zM436 277c0 -27 -18 -45 -46 -45h-262c6 -111 66 -160 120 -160c37 0 72 26 93 72c12 20 33 28 52 20
c20 -8 26 -31 16 -56c-23 -70 -86 -117 -162 -117c-110 0 -207 96 -207 259c0 164 96 258 202 258c125 0 194 -123 194 -231zM241 428c-47 0 -96 -40 -109 -127h214c-7 81 -53 127 -105 127z" />
    <glyph glyph-name="ecircumflex" unicode="&#xea;" horiz-adv-x="466" 
d="M192 566c-19 -16 -42 -15 -55 0c-11 16 -9 38 11 54l63 52c13 11 23 15 33 15c11 0 21 -4 34 -15l63 -52c20 -17 23 -38 10 -54c-12 -15 -35 -16 -54 0l-52 43zM436 277c0 -27 -18 -45 -46 -45h-262c6 -111 66 -160 120 -160c37 0 72 26 93 72c12 20 33 28 52 20
c20 -8 26 -31 16 -56c-23 -70 -86 -117 -162 -117c-110 0 -207 96 -207 259c0 164 96 258 202 258c125 0 194 -123 194 -231zM241 428c-47 0 -96 -40 -109 -127h214c-7 81 -53 127 -105 127z" />
    <glyph glyph-name="edieresis" unicode="&#xeb;" horiz-adv-x="466" 
d="M157 569c-29 0 -55 22 -55 55s26 56 55 56s55 -23 55 -56s-26 -55 -55 -55zM331 569c-29 0 -55 22 -55 55s26 56 55 56s55 -23 55 -56s-26 -55 -55 -55zM436 277c0 -27 -18 -45 -46 -45h-262c6 -111 66 -160 120 -160c37 0 72 26 93 72c12 20 33 28 52 20
c20 -8 26 -31 16 -56c-23 -70 -86 -117 -162 -117c-110 0 -207 96 -207 259c0 164 96 258 202 258c125 0 194 -123 194 -231zM241 428c-47 0 -96 -40 -109 -127h214c-7 81 -53 127 -105 127z" />
    <glyph glyph-name="edotaccent" unicode="&#x117;" horiz-adv-x="466" 
d="M244 569c-29 0 -55 22 -55 55s26 56 55 56s55 -23 55 -56s-26 -55 -55 -55zM436 277c0 -27 -18 -45 -46 -45h-262c6 -111 66 -160 120 -160c37 0 72 26 93 72c12 20 33 28 52 20c20 -8 26 -31 16 -56c-23 -70 -86 -117 -162 -117c-110 0 -207 96 -207 259
c0 164 96 258 202 258c125 0 194 -123 194 -231zM241 428c-47 0 -96 -40 -109 -127h214c-7 81 -53 127 -105 127z" />
    <glyph glyph-name="egrave" unicode="&#xe8;" horiz-adv-x="466" 
d="M207 562l-65 72c-17 21 -13 45 2 58s40 12 58 -10l65 -73c18 -21 13 -45 -2 -57c-15 -13 -39 -12 -58 10zM436 277c0 -27 -18 -45 -46 -45h-262c6 -111 66 -160 120 -160c37 0 72 26 93 72c12 20 33 28 52 20c20 -8 26 -31 16 -56c-23 -70 -86 -117 -162 -117
c-110 0 -207 96 -207 259c0 164 96 258 202 258c125 0 194 -123 194 -231zM241 428c-47 0 -96 -40 -109 -127h214c-7 81 -53 127 -105 127z" />
    <glyph glyph-name="emacron" unicode="&#x113;" horiz-adv-x="466" 
d="M167 585c-23 0 -41 13 -41 36s18 35 41 35h156c22 0 39 -12 39 -35s-17 -36 -39 -36h-156zM436 277c0 -27 -18 -45 -46 -45h-262c6 -111 66 -160 120 -160c37 0 72 26 93 72c12 20 33 28 52 20c20 -8 26 -31 16 -56c-23 -70 -86 -117 -162 -117c-110 0 -207 96 -207 259
c0 164 96 258 202 258c125 0 194 -123 194 -231zM241 428c-47 0 -96 -40 -109 -127h214c-7 81 -53 127 -105 127z" />
    <glyph glyph-name="eogonek" unicode="&#x119;" horiz-adv-x="466" 
d="M436 277c0 -27 -18 -45 -46 -45h-262c6 -111 66 -160 120 -160c37 0 72 26 93 72c12 20 33 28 52 20c20 -8 27 -31 16 -57c-13 -38 -42 -72 -77 -97s-54 -45 -54 -72c0 -25 16 -38 38 -39c20 -2 32 -13 32 -30c0 -19 -15 -31 -42 -32c-55 -2 -96 34 -96 87
c0 24 9 49 26 67c-110 8 -196 105 -196 259c0 164 96 258 202 258c125 0 194 -123 194 -231zM241 428c-47 0 -96 -40 -109 -127h214c-8 85 -58 127 -105 127z" />
    <glyph glyph-name="f" unicode="f" horiz-adv-x="315" 
d="M279 499c24 0 44 -14 44 -38s-19 -38 -44 -38h-98v-382c0 -28 -20 -45 -43 -45s-43 17 -43 45v382h-50c-26 0 -45 14 -45 38s19 38 45 38h50v49c0 101 60 161 146 161c18 0 34 -2 53 -9c28 -11 36 -38 26 -57c-9 -16 -27 -23 -50 -18c-9 2 -18 4 -28 4
c-38 0 -61 -27 -61 -80v-50h98z" />
    <glyph glyph-name="g" unicode="g" horiz-adv-x="434" 
d="M323 84c71 -16 106 -52 106 -108c0 -88 -86 -138 -206 -138c-129 0 -196 58 -196 131c0 38 19 74 55 100c-19 15 -30 35 -30 61c0 31 17 59 46 78c-34 33 -51 80 -51 126c0 87 62 174 170 173c30 0 56 -6 79 -16l61 26c23 11 45 3 52 -12c9 -19 1 -40 -20 -50l-31 -14
c23 -31 35 -69 35 -107c0 -88 -62 -174 -172 -174c-24 0 -46 4 -66 11c-12 -8 -17 -17 -17 -27c0 -15 11 -24 47 -33c37 -8 99 -18 138 -27zM221 434c-50 0 -88 -40 -88 -100s38 -101 88 -101c48 0 86 41 86 101s-38 100 -86 100zM230 -89c70 0 111 26 111 59
c0 20 -14 35 -49 43c-31 8 -90 17 -138 25h-2c-32 -19 -41 -41 -41 -62c0 -34 33 -65 119 -65z" />
    <glyph glyph-name="gbreve" unicode="&#x11f;" horiz-adv-x="434" 
d="M216 554c-61 0 -103 38 -105 93c-1 24 14 39 32 39c19 1 33 -12 36 -34c3 -23 16 -35 37 -35c20 0 33 12 36 35c3 22 17 35 36 34c19 0 33 -15 32 -39c-2 -54 -42 -93 -104 -93zM323 84c71 -16 106 -52 106 -108c0 -88 -86 -138 -206 -138c-129 0 -196 58 -196 131
c0 38 19 74 55 100c-19 15 -30 35 -30 61c0 31 17 59 46 78c-34 33 -51 80 -51 126c0 87 62 174 170 173c30 0 56 -6 79 -16l61 26c23 11 45 3 52 -12c9 -19 1 -40 -20 -50l-31 -14c23 -31 35 -69 35 -107c0 -88 -62 -174 -172 -174c-24 0 -46 4 -66 11
c-12 -8 -17 -17 -17 -27c0 -15 11 -24 47 -33c37 -8 99 -18 138 -27zM221 434c-50 0 -88 -40 -88 -100s38 -101 88 -101c48 0 86 41 86 101s-38 100 -86 100zM230 -89c70 0 111 26 111 59c0 20 -14 35 -49 43c-31 8 -90 17 -138 25h-2c-32 -19 -41 -41 -41 -62
c0 -34 33 -65 119 -65z" />
    <glyph glyph-name="gcircumflex" unicode="&#x11d;" horiz-adv-x="434" 
d="M164 566c-19 -16 -42 -15 -55 0c-11 16 -9 38 11 54l63 52c13 11 23 15 33 15c11 0 21 -4 34 -15l63 -52c20 -17 23 -38 10 -54c-12 -15 -35 -16 -54 0l-52 43zM323 84c71 -16 106 -52 106 -108c0 -88 -86 -138 -206 -138c-129 0 -196 58 -196 131c0 38 19 74 55 100
c-19 15 -30 35 -30 61c0 31 17 59 46 78c-34 33 -51 80 -51 126c0 87 62 174 170 173c30 0 56 -6 79 -16l61 26c23 11 45 3 52 -12c9 -19 1 -40 -20 -50l-31 -14c23 -31 35 -69 35 -107c0 -88 -62 -174 -172 -174c-24 0 -46 4 -66 11c-12 -8 -17 -17 -17 -27
c0 -15 11 -24 47 -33c37 -8 99 -18 138 -27zM221 434c-50 0 -88 -40 -88 -100s38 -101 88 -101c48 0 86 41 86 101s-38 100 -86 100zM230 -89c70 0 111 26 111 59c0 20 -14 35 -49 43c-31 8 -90 17 -138 25h-2c-32 -19 -41 -41 -41 -62c0 -34 33 -65 119 -65z" />
    <glyph glyph-name="uni0123" unicode="&#x123;" horiz-adv-x="434" 
d="M217 548c-29 0 -53 23 -53 55c0 14 4 31 16 48l33 50c15 23 37 25 51 16c13 -8 17 -28 4 -47l-18 -26c12 -9 20 -24 20 -42c0 -31 -24 -54 -53 -54zM323 84c71 -16 106 -52 106 -108c0 -88 -86 -138 -206 -138c-129 0 -196 58 -196 131c0 38 19 74 55 100
c-19 15 -30 35 -30 61c0 31 17 59 46 78c-34 33 -51 80 -51 126c0 87 62 174 170 173c30 0 56 -6 79 -16l61 26c23 11 45 3 52 -12c9 -19 1 -40 -20 -50l-31 -14c23 -31 35 -69 35 -107c0 -88 -62 -174 -172 -174c-24 0 -46 4 -66 11c-12 -8 -17 -17 -17 -27
c0 -15 11 -24 47 -33c37 -8 99 -18 138 -27zM221 434c-50 0 -88 -40 -88 -100s38 -101 88 -101c48 0 86 41 86 101s-38 100 -86 100zM230 -89c70 0 111 26 111 59c0 20 -14 35 -49 43c-31 8 -90 17 -138 25h-2c-32 -19 -41 -41 -41 -62c0 -34 33 -65 119 -65z" />
    <glyph glyph-name="gdotaccent" unicode="&#x121;" horiz-adv-x="434" 
d="M216 569c-29 0 -55 22 -55 55s26 56 55 56s55 -23 55 -56s-26 -55 -55 -55zM323 84c71 -16 106 -52 106 -108c0 -88 -86 -138 -206 -138c-129 0 -196 58 -196 131c0 38 19 74 55 100c-19 15 -30 35 -30 61c0 31 17 59 46 78c-34 33 -51 80 -51 126c0 87 62 174 170 173
c30 0 56 -6 79 -16l61 26c23 11 45 3 52 -12c9 -19 1 -40 -20 -50l-31 -14c23 -31 35 -69 35 -107c0 -88 -62 -174 -172 -174c-24 0 -46 4 -66 11c-12 -8 -17 -17 -17 -27c0 -15 11 -24 47 -33c37 -8 99 -18 138 -27zM221 434c-50 0 -88 -40 -88 -100s38 -101 88 -101
c48 0 86 41 86 101s-38 100 -86 100zM230 -89c70 0 111 26 111 59c0 20 -14 35 -49 43c-31 8 -90 17 -138 25h-2c-32 -19 -41 -41 -41 -62c0 -34 33 -65 119 -65z" />
    <glyph glyph-name="h" unicode="h" horiz-adv-x="494" 
d="M267 508c101 0 167 -65 167 -174v-293c0 -28 -21 -45 -43 -45c-23 0 -43 17 -43 45v277c0 73 -39 109 -95 109c-39 0 -77 -19 -102 -55v-331c0 -28 -21 -45 -43 -45c-23 0 -43 17 -43 45v618c0 28 20 45 43 45s43 -17 43 -45v-191c34 28 75 40 116 40z" />
    <glyph glyph-name="hbar" unicode="&#x127;" horiz-adv-x="494" 
d="M267 508c101 0 167 -65 167 -174v-293c0 -28 -21 -45 -43 -45c-23 0 -43 17 -43 45v277c0 73 -39 109 -95 109c-39 0 -77 -19 -102 -55v-331c0 -28 -21 -45 -43 -45c-23 0 -43 17 -43 45v516h-22c-24 0 -42 14 -42 36c0 21 18 35 42 35h22v31c0 28 20 45 43 45
s43 -17 43 -45v-31h86c24 0 42 -14 42 -35c0 -22 -18 -36 -42 -36h-86v-89c34 28 75 40 116 40z" />
    <glyph glyph-name="hcircumflex" unicode="&#x125;" horiz-adv-x="494" 
d="M195 767c-19 -16 -42 -15 -55 0c-11 16 -9 38 11 54l63 52c13 11 23 15 33 15c11 0 21 -4 34 -15l63 -52c20 -17 23 -38 10 -54c-12 -15 -35 -16 -54 0l-52 43zM267 508c101 0 167 -65 167 -174v-293c0 -28 -21 -45 -43 -45c-23 0 -43 17 -43 45v277
c0 73 -39 109 -95 109c-39 0 -77 -19 -102 -55v-331c0 -28 -21 -45 -43 -45c-23 0 -43 17 -43 45v618c0 28 20 45 43 45s43 -17 43 -45v-191c34 28 75 40 116 40z" />
    <glyph glyph-name="i" unicode="i" horiz-adv-x="216" 
d="M108 569c-29 0 -55 22 -55 55s26 56 55 56s54 -23 54 -56s-25 -55 -54 -55zM108 -4c-23 0 -44 17 -44 45v417c0 28 21 45 44 45s43 -17 43 -45v-417c0 -28 -21 -45 -43 -45z" />
    <glyph glyph-name="dotlessi" unicode="&#x131;" horiz-adv-x="215" 
d="M108 -4c-23 0 -44 17 -44 45v417c0 28 21 45 44 45s43 -17 43 -45v-417c0 -28 -21 -45 -43 -45z" />
    <glyph glyph-name="iacute" unicode="&#xed;" horiz-adv-x="215" 
d="M87 553c-14 12 -19 36 -1 57l64 73c19 22 44 23 59 10s19 -37 1 -58l-64 -72c-19 -22 -43 -23 -59 -10zM108 -4c-23 0 -44 17 -44 45v417c0 28 21 45 44 45s43 -17 43 -45v-417c0 -28 -21 -45 -43 -45z" />
    <glyph glyph-name="ibreve" unicode="&#x12d;" horiz-adv-x="215" 
d="M108 555c-61 0 -103 38 -105 93c-1 24 14 39 32 39c19 1 33 -12 36 -34c3 -23 16 -35 37 -35c20 0 33 12 36 35c3 22 17 35 36 34c19 0 33 -15 32 -39c-2 -54 -42 -93 -104 -93zM108 -4c-23 0 -44 17 -44 45v417c0 28 21 45 44 45s43 -17 43 -45v-417
c0 -28 -21 -45 -43 -45z" />
    <glyph glyph-name="icircumflex" unicode="&#xee;" horiz-adv-x="215" 
d="M204 621c20 -17 23 -38 10 -54c-12 -15 -35 -16 -54 0l-52 43l-53 -43c-19 -16 -42 -15 -55 0c-11 16 -9 38 11 54l63 52c13 11 23 15 33 15c11 0 21 -4 34 -15zM108 503c23 0 43 -17 43 -45v-417c0 -28 -21 -45 -43 -45c-23 0 -44 17 -44 45v417c0 28 21 45 44 45z" />
    <glyph glyph-name="idieresis" unicode="&#xef;" horiz-adv-x="215" 
d="M31 569c-31 0 -56 24 -56 56s25 55 56 55c30 0 55 -23 55 -55s-25 -56 -55 -56zM185 569c-30 0 -55 24 -55 56s25 55 55 55s55 -23 55 -55s-25 -56 -55 -56zM108 -4c-23 0 -44 17 -44 45v417c0 28 21 45 44 45s43 -17 43 -45v-417c0 -28 -21 -45 -43 -45z" />
    <glyph glyph-name="i.loclTRK" horiz-adv-x="215" 
d="M107 570c-29 0 -55 22 -55 55s26 56 55 56s55 -23 55 -56s-26 -55 -55 -55zM108 -4c-23 0 -44 17 -44 45v417c0 28 21 45 44 45s43 -17 43 -45v-417c0 -28 -21 -45 -43 -45z" />
    <glyph glyph-name="igrave" unicode="&#xec;" horiz-adv-x="215" 
d="M130 553c-16 -13 -40 -12 -59 10l-65 72c-17 21 -13 45 2 58s40 12 58 -10l65 -73c18 -21 13 -45 -1 -57zM108 -4c-23 0 -44 17 -44 45v417c0 28 21 45 44 45s43 -17 43 -45v-417c0 -28 -21 -45 -43 -45z" />
    <glyph glyph-name="ij" unicode="&#x133;" horiz-adv-x="431" 
d="M108 569c-29 0 -55 22 -55 55s26 56 55 56s54 -23 54 -56s-25 -55 -54 -55zM324 569c-29 0 -55 22 -55 55s26 56 55 56s54 -23 54 -56s-25 -55 -54 -55zM108 -4c-23 0 -44 17 -44 45v417c0 28 21 45 44 45s43 -17 43 -45v-417c0 -28 -21 -45 -43 -45zM243 -163
c-18 0 -32 2 -48 7c-26 10 -35 33 -29 51c5 18 22 28 45 25c11 -3 18 -4 26 -4c27 0 44 17 44 63v479c0 28 20 45 43 45s43 -17 43 -45v-484c0 -86 -46 -137 -124 -137z" />
    <glyph glyph-name="imacron" unicode="&#x12b;" horiz-adv-x="215" 
d="M30 586c-23 0 -41 13 -41 36s18 35 41 35h156c22 0 39 -12 39 -35s-17 -36 -39 -36h-156zM108 -4c-23 0 -44 17 -44 45v417c0 28 21 45 44 45s43 -17 43 -45v-417c0 -28 -21 -45 -43 -45z" />
    <glyph glyph-name="iogonek" unicode="&#x12f;" horiz-adv-x="215" 
d="M108 564c-30 0 -55 24 -55 56s25 55 55 55s55 -23 55 -55s-25 -56 -55 -56zM125 -101c21 -2 33 -13 33 -30c0 -19 -15 -31 -42 -32c-55 -2 -97 34 -97 87c0 35 20 67 54 90c-5 7 -9 16 -9 27v417c0 28 21 45 44 45s43 -17 43 -45v-417c0 -18 -8 -31 -20 -39
c-28 -19 -43 -40 -43 -64s15 -38 37 -39z" />
    <glyph glyph-name="itilde" unicode="&#x129;" horiz-adv-x="215" 
d="M4 565c-17 3 -27 18 -22 43c8 39 38 62 75 62c14 0 26 -2 36 -6c17 -7 28 -13 43 -20c6 -3 11 -5 17 -5c8 0 12 4 17 13c8 20 25 27 42 23c15 -4 26 -19 21 -43c-7 -39 -37 -63 -74 -63c-15 0 -27 2 -37 6c-17 7 -28 14 -43 20c-6 3 -11 5 -17 5c-8 0 -12 -3 -17 -13
c-8 -20 -25 -26 -41 -22zM108 -4c-23 0 -44 17 -44 45v417c0 28 21 45 44 45s43 -17 43 -45v-417c0 -28 -21 -45 -43 -45z" />
    <glyph glyph-name="j" unicode="j" horiz-adv-x="216" 
d="M108 569c-29 0 -55 22 -55 55s26 56 55 56s54 -23 54 -56s-25 -55 -54 -55zM27 -163c-18 0 -32 2 -48 7c-26 10 -35 33 -29 51c5 18 21 28 45 25c11 -3 18 -4 26 -4c27 0 44 17 44 63v479c0 28 20 45 43 45s43 -17 43 -45v-484c0 -86 -46 -137 -124 -137z" />
    <glyph glyph-name="uni0237" unicode="&#x237;" horiz-adv-x="215" 
d="M27 -163c-18 0 -32 2 -48 7c-26 10 -35 33 -29 51c5 18 21 28 45 25c11 -3 18 -4 26 -4c27 0 44 17 44 63v479c0 28 20 45 43 45s43 -17 43 -45v-484c0 -86 -46 -137 -124 -137z" />
    <glyph glyph-name="uni006A0301" horiz-adv-x="215" 
d="M87 552c-14 12 -19 36 -1 57l64 73c19 22 44 23 59 10s19 -37 1 -58l-64 -72c-19 -22 -43 -23 -59 -10zM27 -163c-18 0 -32 2 -48 7c-26 10 -35 33 -29 51c5 18 21 28 45 25c11 -3 18 -4 26 -4c27 0 44 17 44 63v479c0 28 20 45 43 45s43 -17 43 -45v-484
c0 -86 -46 -137 -124 -137z" />
    <glyph glyph-name="jcircumflex" unicode="&#x135;" horiz-adv-x="215" 
d="M204 620c20 -17 23 -38 10 -54c-12 -15 -35 -16 -54 0l-52 43l-53 -43c-19 -16 -42 -15 -55 0c-11 16 -9 38 11 54l63 52c13 11 23 15 33 15c11 0 21 -4 34 -15zM108 503c23 0 43 -17 43 -45v-484c0 -86 -46 -137 -124 -137c-18 0 -32 2 -48 7c-26 10 -35 33 -29 51
c5 18 21 28 45 25c11 -3 18 -4 26 -4c27 0 44 17 44 63v479c0 28 20 45 43 45z" />
    <glyph glyph-name="k" unicode="k" horiz-adv-x="448" 
d="M424 64c16 -24 12 -49 -6 -61c-19 -13 -48 -9 -65 18l-139 213l-63 -62v-131c0 -28 -21 -45 -43 -45c-23 0 -43 17 -43 45v618c0 28 20 45 43 45s43 -17 43 -45v-371l200 197c24 23 50 22 66 9c16 -15 19 -42 -6 -66l-135 -133z" />
    <glyph glyph-name="uni0137" unicode="&#x137;" horiz-adv-x="448" 
d="M424 64c16 -24 12 -49 -6 -61c-19 -13 -48 -9 -65 18l-139 213l-63 -62v-131c0 -28 -21 -45 -43 -45c-23 0 -43 17 -43 45v618c0 28 20 45 43 45s43 -17 43 -45v-371l200 197c24 23 50 22 66 9c16 -15 19 -42 -6 -66l-135 -133zM247 -38c29 0 54 -23 54 -55
c0 -14 -5 -31 -16 -48l-34 -50c-15 -23 -36 -25 -51 -16c-13 9 -17 28 -3 48l17 25c-12 9 -20 24 -20 42c0 31 24 54 53 54z" />
    <glyph glyph-name="kgreenlandic" unicode="&#x138;" horiz-adv-x="448" 
d="M424 64c16 -24 12 -49 -6 -61c-19 -13 -48 -9 -65 18l-139 213l-63 -62v-131c0 -28 -21 -45 -43 -45c-23 0 -43 17 -43 45v417c0 28 20 45 43 45s43 -17 43 -45v-170l200 197c24 23 50 22 66 9c16 -15 20 -41 -5 -66l-136 -133z" />
    <glyph glyph-name="l" unicode="l" horiz-adv-x="215" 
d="M108 -4c-23 0 -43 17 -43 45v618c0 28 20 45 43 45s43 -17 43 -45v-618c0 -28 -21 -45 -43 -45z" />
    <glyph glyph-name="lacute" unicode="&#x13a;" horiz-adv-x="215" 
d="M88 754c-14 12 -19 36 -1 57l64 73c19 22 44 23 59 10s19 -37 1 -58l-64 -72c-19 -22 -43 -23 -59 -10zM108 -4c-23 0 -43 17 -43 45v618c0 28 20 45 43 45s43 -17 43 -45v-618c0 -28 -21 -45 -43 -45z" />
    <glyph glyph-name="lcaron" unicode="&#x13e;" horiz-adv-x="235" 
d="M108 -4c-23 0 -43 17 -43 45v618c0 28 20 45 43 45s43 -17 43 -45v-618c0 -28 -21 -45 -43 -45zM234 492c-22 1 -38 19 -35 47l10 125c3 27 24 41 43 39c21 -1 38 -20 36 -47l-11 -125c-2 -27 -23 -41 -43 -39z" />
    <glyph glyph-name="uni013C" unicode="&#x13c;" horiz-adv-x="215" 
d="M108 -4c-23 0 -43 17 -43 45v618c0 28 20 45 43 45s43 -17 43 -45v-618c0 -28 -21 -45 -43 -45zM106 -38c29 0 54 -23 54 -55c0 -14 -5 -31 -16 -48l-34 -50c-15 -23 -36 -25 -51 -16c-13 9 -17 28 -3 48l17 25c-12 9 -20 24 -20 42c0 31 24 54 53 54z" />
    <glyph glyph-name="ldot" unicode="&#x140;" horiz-adv-x="230" 
d="M108 -4c-23 0 -43 17 -43 45v618c0 28 20 45 43 45s43 -17 43 -45v-618c0 -28 -21 -45 -43 -45zM256 308c-31 0 -58 23 -58 58s27 58 58 58c30 0 57 -23 57 -58s-27 -58 -57 -58z" />
    <glyph glyph-name="lslash" unicode="&#x142;" horiz-adv-x="245" 
d="M244 441c12 -16 7 -40 -13 -54l-68 -49v-297c0 -28 -20 -45 -43 -45s-43 17 -43 45v246l-21 -15c-20 -14 -44 -12 -55 5c-12 16 -6 39 13 53l63 45v284c0 28 20 45 43 45s43 -17 43 -45v-232l26 18c20 15 44 13 55 -4z" />
    <glyph glyph-name="m" unicode="m" horiz-adv-x="735" 
d="M518 508c92 0 157 -62 157 -171v-296c0 -28 -21 -45 -43 -45c-23 0 -44 17 -44 45v281c0 71 -35 106 -83 106c-35 0 -70 -19 -94 -58c1 -11 2 -22 2 -33v-296c0 -28 -21 -45 -43 -45c-23 0 -44 17 -44 45v281c0 71 -35 106 -83 106c-34 0 -68 -18 -92 -55v-332
c0 -28 -21 -45 -43 -45c-23 0 -43 17 -43 45v417c0 28 20 45 43 45c19 0 38 -13 42 -35c31 27 69 40 109 40c52 0 96 -21 124 -61c38 43 86 61 135 61z" />
    <glyph glyph-name="n" unicode="n" horiz-adv-x="494" 
d="M267 508c98 0 167 -65 167 -174v-293c0 -28 -21 -45 -43 -45c-23 0 -43 17 -43 45v277c0 73 -39 109 -95 109c-39 0 -77 -19 -102 -55v-331c0 -28 -21 -45 -43 -45c-23 0 -43 17 -43 45v417c0 28 20 45 43 45c20 0 38 -13 42 -35c33 28 75 40 117 40z" />
    <glyph glyph-name="nacute" unicode="&#x144;" horiz-adv-x="494" 
d="M234 552c-14 12 -19 36 -1 57l64 73c19 22 44 23 59 10s19 -37 1 -58l-64 -72c-19 -22 -43 -23 -59 -10zM267 508c98 0 167 -65 167 -174v-293c0 -28 -21 -45 -43 -45c-23 0 -43 17 -43 45v277c0 73 -39 109 -95 109c-39 0 -77 -19 -102 -55v-331c0 -28 -21 -45 -43 -45
c-23 0 -43 17 -43 45v417c0 28 20 45 43 45c20 0 38 -13 42 -35c33 28 75 40 117 40z" />
    <glyph glyph-name="ncaron" unicode="&#x148;" horiz-adv-x="494" 
d="M158 620c-20 17 -23 39 -11 54c13 15 36 16 55 0l53 -42l52 42c19 16 42 15 54 0s10 -37 -10 -54l-63 -52c-13 -11 -23 -15 -34 -15c-10 0 -20 4 -33 15zM267 508c98 0 167 -65 167 -174v-293c0 -28 -21 -45 -43 -45c-23 0 -43 17 -43 45v277c0 73 -39 109 -95 109
c-39 0 -77 -19 -102 -55v-331c0 -28 -21 -45 -43 -45c-23 0 -43 17 -43 45v417c0 28 20 45 43 45c20 0 38 -13 42 -35c33 28 75 40 117 40z" />
    <glyph glyph-name="uni0146" unicode="&#x146;" horiz-adv-x="494" 
d="M267 508c98 0 167 -65 167 -174v-293c0 -28 -21 -45 -43 -45c-23 0 -43 17 -43 45v277c0 73 -39 109 -95 109c-39 0 -77 -19 -102 -55v-331c0 -28 -21 -45 -43 -45c-23 0 -43 17 -43 45v417c0 28 20 45 43 45c20 0 38 -13 42 -35c33 28 75 40 117 40zM255 -38
c29 0 54 -23 54 -55c0 -14 -5 -31 -16 -48l-34 -50c-15 -23 -36 -25 -51 -16c-13 9 -17 28 -3 48l17 25c-12 9 -20 24 -20 42c0 31 24 54 53 54z" />
    <glyph glyph-name="eng" unicode="&#x14b;" horiz-adv-x="502" 
d="M267 508c98 0 167 -65 167 -174v-360c0 -86 -46 -137 -124 -137c-18 0 -32 2 -48 7c-26 10 -35 33 -29 51c5 18 22 28 45 25c11 -3 18 -4 26 -4c27 0 44 17 44 63v339c0 73 -39 109 -95 109c-39 0 -77 -19 -102 -55v-331c0 -28 -21 -45 -43 -45c-23 0 -43 17 -43 45v417
c0 28 20 45 43 45c20 0 38 -13 42 -35c33 28 75 40 117 40z" />
    <glyph glyph-name="ntilde" unicode="&#xf1;" horiz-adv-x="494" 
d="M151 564c-17 3 -27 18 -22 43c8 39 38 62 75 62c14 0 26 -2 36 -6c17 -7 28 -13 43 -20c6 -3 11 -5 17 -5c8 0 12 4 17 13c8 20 25 27 42 23c15 -4 26 -19 21 -43c-7 -39 -37 -63 -74 -63c-15 0 -27 2 -37 6c-17 7 -28 14 -43 20c-6 3 -11 5 -17 5c-8 0 -12 -3 -17 -13
c-8 -20 -25 -26 -41 -22zM267 508c98 0 167 -65 167 -174v-293c0 -28 -21 -45 -43 -45c-23 0 -43 17 -43 45v277c0 73 -39 109 -95 109c-39 0 -77 -19 -102 -55v-331c0 -28 -21 -45 -43 -45c-23 0 -43 17 -43 45v417c0 28 20 45 43 45c20 0 38 -13 42 -35
c33 28 75 40 117 40z" />
    <glyph glyph-name="o" unicode="o" horiz-adv-x="490" 
d="M245 -9c-108 0 -205 94 -205 258s97 259 205 259s206 -95 206 -259s-98 -258 -206 -258zM245 72c60 0 117 59 117 177c0 119 -57 178 -117 178c-59 0 -117 -59 -117 -178c0 -118 58 -177 117 -177z" />
    <glyph glyph-name="oacute" unicode="&#xf3;" horiz-adv-x="490" 
d="M224 552c-14 12 -19 36 -1 57l64 73c19 22 44 23 59 10s19 -37 1 -58l-64 -72c-19 -22 -43 -23 -59 -10zM245 -9c-108 0 -205 94 -205 258s97 259 205 259s206 -95 206 -259s-98 -258 -206 -258zM245 72c60 0 117 59 117 177c0 119 -57 178 -117 178
c-59 0 -117 -59 -117 -178c0 -118 58 -177 117 -177z" />
    <glyph glyph-name="obreve" unicode="&#x14f;" horiz-adv-x="490" 
d="M245 554c-61 0 -103 38 -105 93c-1 24 14 39 32 39c19 1 33 -12 36 -34c3 -23 16 -35 37 -35c20 0 33 12 36 35c3 22 17 35 36 34c19 0 33 -15 32 -39c-2 -54 -42 -93 -104 -93zM245 -9c-108 0 -205 94 -205 258s97 259 205 259s206 -95 206 -259s-98 -258 -206 -258z
M245 72c60 0 117 59 117 177c0 119 -57 178 -117 178c-59 0 -117 -59 -117 -178c0 -118 58 -177 117 -177z" />
    <glyph glyph-name="ocircumflex" unicode="&#xf4;" horiz-adv-x="490" 
d="M193 566c-19 -16 -42 -15 -55 0c-11 16 -9 38 11 54l63 52c13 11 23 15 33 15c11 0 21 -4 34 -15l63 -52c20 -17 23 -38 10 -54c-12 -15 -35 -16 -54 0l-52 43zM245 508c108 0 206 -95 206 -259s-98 -258 -206 -258s-205 94 -205 258s97 259 205 259zM245 72
c60 0 117 59 117 177c0 119 -57 178 -117 178c-59 0 -117 -59 -117 -178c0 -118 58 -177 117 -177z" />
    <glyph glyph-name="odieresis" unicode="&#xf6;" horiz-adv-x="490" 
d="M158 569c-29 0 -55 22 -55 55s26 56 55 56s55 -23 55 -56s-26 -55 -55 -55zM332 569c-29 0 -55 22 -55 55s26 56 55 56s55 -23 55 -56s-26 -55 -55 -55zM245 -9c-108 0 -205 94 -205 258s97 259 205 259s206 -95 206 -259s-98 -258 -206 -258zM245 72
c60 0 117 59 117 177c0 119 -57 178 -117 178c-59 0 -117 -59 -117 -178c0 -118 58 -177 117 -177z" />
    <glyph glyph-name="ograve" unicode="&#xf2;" horiz-adv-x="490" 
d="M266 552c-15 -13 -39 -12 -58 10l-65 72c-17 21 -13 45 2 58s40 12 58 -10l65 -73c18 -21 13 -45 -2 -57zM245 -9c-108 0 -205 94 -205 258s97 259 205 259s206 -95 206 -259s-98 -258 -206 -258zM245 72c60 0 117 59 117 177c0 119 -57 178 -117 178
c-59 0 -117 -59 -117 -178c0 -118 58 -177 117 -177z" />
    <glyph glyph-name="ohungarumlaut" unicode="&#x151;" horiz-adv-x="490" 
d="M156 551c-15 12 -19 36 -1 57l66 74c18 22 42 22 57 10s19 -36 2 -56l-67 -75c-18 -21 -42 -22 -57 -10zM291 551c-15 12 -19 36 -2 57l67 74c18 22 42 22 57 10c14 -12 19 -36 1 -56l-66 -75c-18 -21 -42 -22 -57 -10zM245 -9c-108 0 -205 94 -205 258s97 259 205 259
s206 -95 206 -259s-98 -258 -206 -258zM245 72c60 0 117 59 117 177c0 119 -57 178 -117 178c-59 0 -117 -59 -117 -178c0 -118 58 -177 117 -177z" />
    <glyph glyph-name="omacron" unicode="&#x14d;" horiz-adv-x="490" 
d="M168 585c-23 0 -41 13 -41 36s18 35 41 35h156c22 0 39 -12 39 -35s-17 -36 -39 -36h-156zM245 -9c-108 0 -205 94 -205 258s97 259 205 259s206 -95 206 -259s-98 -258 -206 -258zM245 72c60 0 117 59 117 177c0 119 -57 178 -117 178c-59 0 -117 -59 -117 -178
c0 -118 58 -177 117 -177z" />
    <glyph glyph-name="oslash" unicode="&#xf8;" horiz-adv-x="497" 
d="M458 495c14 -12 14 -33 -2 -52l-39 -46c21 -39 34 -89 34 -148c0 -164 -98 -258 -206 -258c-47 0 -92 18 -128 52l-25 -30c-17 -21 -40 -20 -53 -9c-14 12 -14 33 2 52l35 41c-23 40 -36 91 -36 152c0 164 97 259 205 259c48 0 95 -19 131 -55l29 34c17 21 40 19 53 8z
M128 249c0 -30 4 -56 10 -78l184 217c-22 26 -49 39 -77 39c-59 0 -117 -59 -117 -178zM362 249c0 28 -3 52 -8 73l-182 -215c21 -23 47 -35 73 -35c60 0 117 59 117 177z" />
    <glyph glyph-name="otilde" unicode="&#xf5;" horiz-adv-x="490" 
d="M142 564c-17 3 -27 18 -22 43c8 39 38 62 75 62c14 0 26 -2 36 -6c17 -7 28 -13 43 -20c6 -3 11 -5 17 -5c8 0 12 4 17 13c8 20 25 27 42 23c15 -4 26 -19 21 -43c-7 -39 -37 -63 -74 -63c-15 0 -27 2 -37 6c-17 7 -28 14 -43 20c-6 3 -11 5 -17 5c-8 0 -12 -3 -17 -13
c-8 -20 -25 -26 -41 -22zM245 -9c-108 0 -205 94 -205 258s97 259 205 259s206 -95 206 -259s-98 -258 -206 -258zM245 72c60 0 117 59 117 177c0 119 -57 178 -117 178c-59 0 -117 -59 -117 -178c0 -118 58 -177 117 -177z" />
    <glyph glyph-name="oe" unicode="&#x153;" horiz-adv-x="789" 
d="M758 277c0 -27 -17 -45 -45 -45h-262c6 -111 66 -160 119 -160c37 0 72 26 94 72c11 21 32 28 52 20c19 -8 26 -31 15 -56c-23 -70 -85 -117 -161 -117c-68 0 -127 36 -163 101c-36 -66 -95 -101 -162 -101c-108 0 -205 94 -205 258s97 259 205 259
c66 0 125 -35 161 -100c35 65 93 100 158 100c125 0 194 -123 194 -231zM563 428c-46 0 -95 -40 -108 -127h213c-6 81 -52 127 -105 127zM245 72c60 0 117 59 117 177c0 119 -57 178 -117 178c-59 0 -117 -59 -117 -178c0 -118 58 -177 117 -177z" />
    <glyph glyph-name="p" unicode="p" horiz-adv-x="493" 
d="M259 508c114 0 194 -99 194 -257c0 -164 -89 -259 -200 -259c-38 0 -74 11 -102 34v-139c0 -28 -21 -45 -43 -45c-23 0 -43 17 -43 45v571c0 28 20 45 43 45c19 0 37 -12 42 -33c31 26 70 38 109 38zM246 72c57 0 118 49 118 178c0 119 -54 177 -116 177
c-35 0 -73 -16 -97 -54v-248c29 -39 64 -53 95 -53z" />
    <glyph glyph-name="thorn" unicode="&#xfe;" horiz-adv-x="493" 
d="M259 508c114 0 194 -99 194 -256c0 -165 -89 -260 -200 -260c-38 0 -74 11 -102 34v-139c0 -28 -21 -45 -43 -45c-23 0 -43 17 -43 45v772c0 28 20 45 43 45s43 -17 43 -45v-188c31 25 70 37 108 37zM246 73c57 0 118 49 118 177c0 119 -54 177 -116 177
c-35 0 -73 -16 -97 -54v-248c29 -39 64 -52 95 -52z" />
    <glyph glyph-name="q" unicode="q" horiz-adv-x="493" 
d="M385 503c23 0 44 -17 44 -44v-572c0 -28 -21 -45 -44 -45c-22 0 -43 17 -43 45v142c-31 -25 -70 -37 -107 -37c-115 0 -195 99 -195 257c0 164 88 259 199 259c39 0 77 -12 105 -35c5 19 22 30 41 30zM245 73c35 0 73 16 97 54v248c-29 39 -64 52 -95 52
c-57 0 -118 -49 -118 -177c0 -119 55 -177 116 -177z" />
    <glyph glyph-name="r" unicode="r" horiz-adv-x="343" 
d="M324 487c21 -12 25 -33 17 -50s-28 -27 -52 -17c-18 8 -33 11 -51 11c-34 0 -64 -16 -87 -51v-339c0 -28 -21 -45 -43 -45c-23 0 -43 17 -43 45v417c0 28 20 45 43 45c19 0 35 -11 41 -30c28 24 63 35 96 35c30 0 58 -7 79 -21z" />
    <glyph glyph-name="racute" unicode="&#x155;" horiz-adv-x="343" 
d="M182 552c-14 12 -19 36 -1 57l64 73c19 22 44 23 59 10s19 -37 1 -58l-64 -72c-19 -22 -43 -23 -59 -10zM324 487c21 -12 25 -33 17 -50s-28 -27 -52 -17c-18 8 -33 11 -51 11c-34 0 -64 -16 -87 -51v-339c0 -28 -21 -45 -43 -45c-23 0 -43 17 -43 45v417
c0 28 20 45 43 45c19 0 35 -11 41 -30c28 24 63 35 96 35c30 0 58 -7 79 -21z" />
    <glyph glyph-name="rcaron" unicode="&#x159;" horiz-adv-x="343" 
d="M107 620c-20 17 -23 39 -11 54c13 15 36 16 55 0l53 -42l52 42c19 16 42 15 54 0s10 -37 -10 -54l-63 -52c-13 -11 -23 -15 -34 -15c-10 0 -20 4 -33 15zM324 487c21 -12 25 -33 17 -50s-28 -27 -52 -17c-18 8 -33 11 -51 11c-34 0 -64 -16 -87 -51v-339
c0 -28 -21 -45 -43 -45c-23 0 -43 17 -43 45v417c0 28 20 45 43 45c19 0 35 -11 41 -30c28 24 63 35 96 35c30 0 58 -7 79 -21z" />
    <glyph glyph-name="uni0157" unicode="&#x157;" horiz-adv-x="343" 
d="M324 487c21 -12 25 -33 17 -50s-28 -27 -52 -17c-18 8 -33 11 -51 11c-34 0 -64 -16 -87 -51v-339c0 -28 -21 -45 -43 -45c-23 0 -43 17 -43 45v417c0 28 20 45 43 45c19 0 35 -11 41 -30c28 24 63 35 96 35c30 0 58 -7 79 -21zM107 -38c29 0 54 -23 54 -55
c0 -14 -5 -31 -16 -48l-34 -50c-15 -23 -36 -25 -51 -16c-13 9 -17 28 -3 48l17 25c-12 9 -20 24 -20 42c0 31 24 54 53 54z" />
    <glyph glyph-name="s" unicode="s" horiz-adv-x="393" 
d="M199 -10c-69 0 -129 34 -154 88c-12 25 -4 47 13 57c17 8 37 3 51 -16c20 -33 54 -52 93 -52c45 0 75 26 75 62c0 22 -10 43 -41 61c-37 20 -86 35 -124 56c-58 30 -79 72 -79 119c0 89 73 143 163 143c66 0 119 -27 146 -80c12 -20 10 -42 -7 -53c-19 -11 -41 -6 -56 14
c-23 29 -52 42 -85 42c-43 0 -73 -24 -73 -59c0 -21 9 -42 42 -58c35 -18 81 -33 118 -53c62 -32 84 -76 84 -125c0 -88 -69 -146 -166 -146z" />
    <glyph glyph-name="sacute" unicode="&#x15b;" horiz-adv-x="393" 
d="M177 552c-14 12 -19 36 -1 57l64 73c19 22 44 23 59 10s19 -37 1 -58l-64 -72c-19 -22 -43 -23 -59 -10zM199 -10c-69 0 -129 34 -154 88c-12 25 -4 47 13 57c17 8 37 3 51 -16c20 -33 54 -52 93 -52c45 0 75 26 75 62c0 22 -10 43 -41 61c-37 20 -86 35 -124 56
c-58 30 -79 72 -79 119c0 89 73 143 163 143c66 0 119 -27 146 -80c12 -20 10 -42 -7 -53c-19 -11 -41 -6 -56 14c-23 29 -52 42 -85 42c-43 0 -73 -24 -73 -59c0 -21 9 -42 42 -58c35 -18 81 -33 118 -53c62 -32 84 -76 84 -125c0 -88 -69 -146 -166 -146z" />
    <glyph glyph-name="scaron" unicode="&#x161;" horiz-adv-x="393" 
d="M101 620c-20 17 -23 39 -11 54c13 15 36 16 55 0l53 -42l52 42c19 16 42 15 54 0s10 -37 -10 -54l-63 -52c-13 -11 -23 -15 -34 -15c-10 0 -20 4 -33 15zM281 261c62 -32 84 -76 84 -125c0 -88 -69 -146 -166 -146c-69 0 -129 34 -154 88c-12 25 -4 47 13 57
c17 8 37 3 51 -16c20 -33 54 -52 93 -52c45 0 75 26 75 62c0 22 -10 43 -41 61c-37 20 -86 35 -124 56c-58 30 -79 72 -79 119c0 89 73 143 163 143c66 0 119 -27 146 -80c12 -20 10 -42 -7 -53c-19 -11 -41 -6 -56 14c-23 29 -52 42 -85 42c-43 0 -73 -24 -73 -59
c0 -21 9 -42 42 -58c35 -18 81 -33 118 -53z" />
    <glyph glyph-name="scedilla" unicode="&#x15f;" horiz-adv-x="393" 
d="M365 136c0 -80 -57 -135 -140 -145l-8 -13c42 0 76 -28 76 -69c0 -48 -39 -76 -93 -76c-27 0 -52 6 -68 17c-18 12 -18 30 -9 41c7 8 20 10 35 3c15 -9 26 -12 43 -12c19 0 34 10 34 26c0 13 -12 24 -29 24c-9 0 -15 -1 -24 -5c-12 -5 -23 -5 -31 1c-9 7 -12 19 -3 33
l19 31c-55 9 -101 41 -122 86c-12 25 -4 47 13 57c17 8 37 3 51 -16c20 -33 54 -52 93 -52c45 0 75 26 75 62c0 22 -10 43 -41 61c-37 20 -86 35 -124 56c-58 30 -79 72 -79 119c0 89 73 143 163 143c66 0 119 -27 146 -80c12 -20 10 -42 -7 -53c-19 -11 -41 -6 -56 14
c-23 29 -52 42 -85 42c-43 0 -73 -24 -73 -59c0 -21 9 -42 42 -58c35 -18 81 -33 118 -53c62 -32 84 -76 84 -125z" />
    <glyph glyph-name="scircumflex" unicode="&#x15d;" horiz-adv-x="393" 
d="M145 566c-19 -16 -42 -15 -55 0c-11 16 -9 38 11 54l63 52c13 11 23 15 33 15c11 0 21 -4 34 -15l63 -52c20 -17 23 -38 10 -54c-12 -15 -35 -16 -54 0l-52 43zM281 261c62 -32 84 -76 84 -125c0 -88 -69 -146 -166 -146c-69 0 -129 34 -154 88c-12 25 -4 47 13 57
c17 8 37 3 51 -16c20 -33 54 -52 93 -52c45 0 75 26 75 62c0 22 -10 43 -41 61c-37 20 -86 35 -124 56c-58 30 -79 72 -79 119c0 89 73 143 163 143c66 0 119 -27 146 -80c12 -20 10 -42 -7 -53c-19 -11 -41 -6 -56 14c-23 29 -52 42 -85 42c-43 0 -73 -24 -73 -59
c0 -21 9 -42 42 -58c35 -18 81 -33 118 -53z" />
    <glyph glyph-name="uni0219" unicode="&#x219;" horiz-adv-x="393" 
d="M281 261c62 -32 84 -76 84 -125c0 -88 -69 -146 -166 -146c-69 0 -129 34 -154 88c-12 25 -4 47 13 57c17 8 37 3 51 -16c20 -33 54 -52 93 -52c45 0 75 26 75 62c0 22 -10 43 -41 61c-37 20 -86 35 -124 56c-58 30 -79 72 -79 119c0 89 73 143 163 143
c66 0 119 -27 146 -80c12 -20 10 -42 -7 -53c-19 -11 -41 -6 -56 14c-23 29 -52 42 -85 42c-43 0 -73 -24 -73 -59c0 -21 9 -42 42 -58c35 -18 81 -33 118 -53zM203 -38c29 0 54 -23 54 -55c0 -14 -5 -31 -16 -48l-34 -50c-15 -23 -36 -25 -51 -16c-13 9 -17 28 -3 48l17 25
c-12 9 -20 24 -20 42c0 31 24 54 53 54z" />
    <glyph glyph-name="germandbls" unicode="&#xdf;" horiz-adv-x="517" 
d="M355 380c78 -29 129 -98 129 -186c0 -117 -91 -204 -209 -199c-32 1 -47 17 -47 37c0 19 14 34 37 36c89 4 130 61 130 127c0 72 -51 124 -125 131c-24 3 -41 18 -41 40c0 21 14 36 36 44c49 15 83 55 83 115c0 62 -43 102 -98 102c-56 0 -98 -40 -98 -116v-468
c0 -28 -21 -45 -44 -45s-43 17 -43 45v471c0 124 76 194 186 194c108 0 185 -74 185 -178c0 -65 -33 -121 -81 -150z" />
    <glyph glyph-name="t" unicode="t" horiz-adv-x="351" 
d="M332 96c13 -12 16 -36 -2 -58c-22 -29 -58 -47 -105 -47c-79 0 -130 50 -130 141v291h-50c-26 0 -45 14 -45 38s19 38 45 38h50v105c0 28 20 45 43 45s43 -17 43 -45v-105h107c25 0 44 -14 44 -38s-19 -38 -44 -38h-107v-285c0 -46 21 -65 52 -65c17 0 30 6 43 18
c19 18 42 18 56 5z" />
    <glyph glyph-name="tbar" unicode="&#x167;" horiz-adv-x="351" 
d="M332 96c13 -12 16 -36 -2 -58c-22 -29 -58 -47 -105 -47c-79 0 -130 50 -130 141v101h-51c-26 0 -42 14 -42 35c0 22 16 36 42 36h51v119h-50c-26 0 -45 14 -45 38s19 38 45 38h50v105c0 28 20 45 43 45s43 -17 43 -45v-105h107c25 0 44 -14 44 -38s-19 -38 -44 -38h-107
v-119h107c26 0 43 -14 43 -36c0 -21 -17 -35 -43 -35h-107v-95c0 -46 21 -65 52 -65c17 0 30 6 43 18c19 18 42 18 56 5z" />
    <glyph glyph-name="tcaron" unicode="&#x165;" horiz-adv-x="351" 
d="M262 538c-22 1 -37 19 -35 47l11 125c2 27 23 41 43 39c21 -1 38 -20 36 -47l-11 -125c-3 -27 -24 -41 -44 -39zM332 96c13 -12 16 -36 -2 -58c-22 -29 -58 -47 -105 -47c-79 0 -130 50 -130 141v291h-50c-26 0 -45 14 -45 38s19 38 45 38h50v105c0 28 20 45 43 45
s43 -17 43 -45v-105h107c25 0 44 -14 44 -38s-19 -38 -44 -38h-107v-285c0 -46 21 -65 52 -65c17 0 30 6 43 18c19 18 42 18 56 5z" />
    <glyph glyph-name="uni0163" unicode="&#x163;" horiz-adv-x="351" 
d="M332 96c13 -12 16 -36 -2 -58c-19 -25 -48 -42 -85 -46l-9 -14c42 0 76 -28 76 -69c0 -48 -39 -76 -93 -76c-27 0 -52 6 -68 17c-18 12 -18 30 -9 41c7 8 20 10 35 3c15 -9 26 -12 43 -12c19 0 34 10 34 26c0 13 -12 24 -29 24c-9 0 -15 -1 -24 -5c-12 -5 -23 -5 -31 1
c-9 7 -12 19 -3 33l21 34c-58 14 -93 61 -93 137v291h-50c-26 0 -45 14 -45 38s19 38 45 38h50v105c0 28 20 45 43 45s43 -17 43 -45v-105h107c25 0 44 -14 44 -38s-19 -38 -44 -38h-107v-285c0 -46 21 -65 52 -65c17 0 30 6 43 18c19 18 42 18 56 5z" />
    <glyph glyph-name="uni021B" unicode="&#x21b;" horiz-adv-x="351" 
d="M332 96c13 -12 16 -36 -2 -58c-22 -29 -58 -47 -105 -47c-79 0 -130 50 -130 141v291h-50c-26 0 -45 14 -45 38s19 38 45 38h50v105c0 28 20 45 43 45s43 -17 43 -45v-105h107c25 0 44 -14 44 -38s-19 -38 -44 -38h-107v-285c0 -46 21 -65 52 -65c17 0 30 6 43 18
c19 18 42 18 56 5zM223 -38c29 0 54 -23 54 -55c0 -14 -5 -31 -16 -48l-34 -50c-15 -23 -36 -25 -51 -16c-13 9 -17 28 -3 48l17 25c-12 9 -20 24 -20 42c0 31 24 54 53 54z" />
    <glyph glyph-name="u" unicode="u" horiz-adv-x="488" 
d="M380 503c23 0 43 -17 43 -45v-417c0 -28 -20 -45 -43 -45c-21 0 -39 14 -42 37c-32 -30 -73 -42 -115 -42c-99 0 -163 66 -163 175v292c0 28 21 45 43 45c23 0 44 -17 44 -45v-276c0 -72 34 -110 90 -110c39 0 75 19 100 56v330c0 28 20 45 43 45z" />
    <glyph glyph-name="uacute" unicode="&#xfa;" horiz-adv-x="488" 
d="M222 550c-14 12 -19 36 -1 57l64 73c19 22 44 23 59 10s19 -37 1 -58l-64 -72c-19 -22 -43 -23 -59 -10zM380 503c23 0 43 -17 43 -45v-417c0 -28 -20 -45 -43 -45c-21 0 -39 14 -42 37c-32 -30 -73 -42 -115 -42c-99 0 -163 66 -163 175v292c0 28 21 45 43 45
c23 0 44 -17 44 -45v-276c0 -72 34 -110 90 -110c39 0 75 19 100 56v330c0 28 20 45 43 45z" />
    <glyph glyph-name="ubreve" unicode="&#x16d;" horiz-adv-x="488" 
d="M243 552c-61 0 -103 38 -105 93c-1 24 14 39 32 39c19 1 33 -12 36 -34c3 -23 16 -35 37 -35c20 0 33 12 36 35c3 22 17 35 36 34c19 0 33 -15 32 -39c-2 -54 -42 -93 -104 -93zM380 503c23 0 43 -17 43 -45v-417c0 -28 -20 -45 -43 -45c-21 0 -39 14 -42 37
c-32 -30 -73 -42 -115 -42c-99 0 -163 66 -163 175v292c0 28 21 45 43 45c23 0 44 -17 44 -45v-276c0 -72 34 -110 90 -110c39 0 75 19 100 56v330c0 28 20 45 43 45z" />
    <glyph glyph-name="ucircumflex" unicode="&#xfb;" horiz-adv-x="488" 
d="M190 564c-19 -16 -42 -15 -55 0c-11 16 -9 38 11 54l63 52c13 11 23 15 33 15c11 0 21 -4 34 -15l63 -52c20 -17 23 -38 10 -54c-12 -15 -35 -16 -54 0l-52 43zM380 503c23 0 43 -17 43 -45v-417c0 -28 -20 -45 -43 -45c-21 0 -39 14 -42 37c-32 -30 -73 -42 -115 -42
c-99 0 -163 66 -163 175v292c0 28 21 45 43 45c23 0 44 -17 44 -45v-276c0 -72 34 -110 90 -110c39 0 75 19 100 56v330c0 28 20 45 43 45z" />
    <glyph glyph-name="udieresis" unicode="&#xfc;" horiz-adv-x="488" 
d="M156 567c-29 0 -55 22 -55 55s26 56 55 56s55 -23 55 -56s-26 -55 -55 -55zM330 567c-29 0 -55 22 -55 55s26 56 55 56s55 -23 55 -56s-26 -55 -55 -55zM380 503c23 0 43 -17 43 -45v-417c0 -28 -20 -45 -43 -45c-21 0 -39 14 -42 37c-32 -30 -73 -42 -115 -42
c-99 0 -163 66 -163 175v292c0 28 21 45 43 45c23 0 44 -17 44 -45v-276c0 -72 34 -110 90 -110c39 0 75 19 100 56v330c0 28 20 45 43 45z" />
    <glyph glyph-name="ugrave" unicode="&#xf9;" horiz-adv-x="488" 
d="M206 560l-65 72c-17 21 -13 45 2 58s40 12 58 -10l65 -73c18 -21 13 -45 -2 -57c-15 -13 -39 -12 -58 10zM380 503c23 0 43 -17 43 -45v-417c0 -28 -20 -45 -43 -45c-21 0 -39 14 -42 37c-32 -30 -73 -42 -115 -42c-99 0 -163 66 -163 175v292c0 28 21 45 43 45
c23 0 44 -17 44 -45v-276c0 -72 34 -110 90 -110c39 0 75 19 100 56v330c0 28 20 45 43 45z" />
    <glyph glyph-name="uhungarumlaut" unicode="&#x171;" horiz-adv-x="488" 
d="M153 549c-15 12 -19 36 -1 57l66 74c18 22 42 22 57 10s19 -36 2 -56l-67 -75c-18 -21 -42 -22 -57 -10zM288 549c-15 12 -19 36 -2 57l67 74c18 22 42 22 57 10c14 -12 19 -36 1 -56l-66 -75c-18 -21 -42 -22 -57 -10zM380 503c23 0 43 -17 43 -45v-417
c0 -28 -20 -45 -43 -45c-21 0 -39 14 -42 37c-32 -30 -73 -42 -115 -42c-99 0 -163 66 -163 175v292c0 28 21 45 43 45c23 0 44 -17 44 -45v-276c0 -72 34 -110 90 -110c39 0 75 19 100 56v330c0 28 20 45 43 45z" />
    <glyph glyph-name="umacron" unicode="&#x16b;" horiz-adv-x="488" 
d="M165 583c-23 0 -41 13 -41 36s18 35 41 35h156c22 0 39 -12 39 -35s-17 -36 -39 -36h-156zM380 503c23 0 43 -17 43 -45v-417c0 -28 -20 -45 -43 -45c-21 0 -39 14 -42 37c-32 -30 -73 -42 -115 -42c-99 0 -163 66 -163 175v292c0 28 21 45 43 45c23 0 44 -17 44 -45
v-276c0 -72 34 -110 90 -110c39 0 75 19 100 56v330c0 28 20 45 43 45z" />
    <glyph glyph-name="uogonek" unicode="&#x173;" horiz-adv-x="488" 
d="M398 -101c21 -2 33 -13 33 -30c-1 -19 -15 -31 -42 -32c-56 -2 -97 34 -97 87c0 35 20 67 54 90c-4 5 -7 11 -8 19c-32 -29 -73 -42 -115 -42c-99 0 -163 66 -163 175v292c0 28 21 45 43 45c23 0 44 -17 44 -45v-276c0 -72 34 -110 90 -110c39 0 75 19 100 56v330
c0 28 20 45 43 45s43 -17 43 -45v-417c0 -18 -8 -30 -19 -39c-28 -19 -43 -40 -43 -64s15 -38 37 -39z" />
    <glyph glyph-name="uring" unicode="&#x16f;" horiz-adv-x="488" 
d="M243 538c-50 0 -86 37 -86 82s36 81 86 81s85 -36 85 -81s-35 -82 -85 -82zM243 652c-18 0 -32 -13 -32 -32c0 -18 14 -33 32 -33s32 15 32 33c0 19 -14 32 -32 32zM380 503c23 0 43 -17 43 -45v-417c0 -28 -20 -45 -43 -45c-21 0 -39 14 -42 37
c-32 -30 -73 -42 -115 -42c-99 0 -163 66 -163 175v292c0 28 21 45 43 45c23 0 44 -17 44 -45v-276c0 -72 34 -110 90 -110c39 0 75 19 100 56v330c0 28 20 45 43 45z" />
    <glyph glyph-name="utilde" unicode="&#x169;" horiz-adv-x="488" 
d="M139 562c-17 3 -27 18 -22 43c8 39 38 62 75 62c14 0 26 -2 36 -6c17 -7 28 -13 43 -20c6 -3 11 -5 17 -5c8 0 12 4 17 13c8 20 25 27 42 23c15 -4 26 -19 21 -43c-7 -39 -37 -63 -74 -63c-15 0 -27 2 -37 6c-17 7 -28 14 -43 20c-6 3 -11 5 -17 5c-8 0 -12 -3 -17 -13
c-8 -20 -25 -26 -41 -22zM380 503c23 0 43 -17 43 -45v-417c0 -28 -20 -45 -43 -45c-21 0 -39 14 -42 37c-32 -30 -73 -42 -115 -42c-99 0 -163 66 -163 175v292c0 28 21 45 43 45c23 0 44 -17 44 -45v-276c0 -72 34 -110 90 -110c39 0 75 19 100 56v330c0 28 20 45 43 45z
" />
    <glyph glyph-name="v" unicode="v" horiz-adv-x="429" 
d="M392 499c20 -7 33 -30 21 -61l-155 -408c-10 -25 -26 -34 -45 -34c-18 0 -35 9 -44 34l-154 410c-12 32 4 55 25 61s45 -2 56 -34l119 -332l118 332c12 33 39 40 59 32z" />
    <glyph glyph-name="w" unicode="w" horiz-adv-x="615" 
d="M575 501c20 -6 35 -27 26 -58l-113 -412c-8 -26 -28 -35 -45 -35s-37 9 -45 35l-91 312l-89 -312c-8 -26 -27 -35 -45 -35c-17 0 -37 9 -44 35l-115 413c-9 32 8 54 29 58c21 5 45 -5 53 -37l80 -307l86 306c7 27 26 39 45 39c20 0 39 -12 46 -39l89 -313l77 313
c8 34 35 44 56 37z" />
    <glyph glyph-name="wacute" unicode="&#x1e83;" horiz-adv-x="615" 
d="M287 552c-14 12 -19 36 -1 57l64 73c19 22 44 23 59 10s19 -37 1 -58l-64 -72c-19 -22 -43 -23 -59 -10zM575 501c20 -6 35 -27 26 -58l-113 -412c-8 -26 -28 -35 -45 -35s-37 9 -45 35l-91 312l-89 -312c-8 -26 -27 -35 -45 -35c-17 0 -37 9 -44 35l-115 413
c-9 32 8 54 29 58c21 5 45 -5 53 -37l80 -307l86 306c7 27 26 39 45 39c20 0 39 -12 46 -39l89 -313l77 313c8 34 35 44 56 37z" />
    <glyph glyph-name="wcircumflex" unicode="&#x175;" horiz-adv-x="615" 
d="M256 566c-19 -16 -42 -15 -55 0c-11 16 -9 38 11 54l63 52c13 11 23 15 33 15c11 0 21 -4 34 -15l63 -52c20 -17 23 -38 10 -54c-12 -15 -35 -16 -54 0l-52 43zM575 501c20 -6 35 -27 26 -58l-113 -412c-8 -26 -28 -35 -45 -35s-37 9 -45 35l-91 312l-89 -312
c-8 -26 -27 -35 -45 -35c-17 0 -37 9 -44 35l-115 413c-9 32 8 54 29 58c21 5 45 -5 53 -37l80 -307l86 306c7 27 26 39 45 39c20 0 39 -12 46 -39l89 -313l77 313c8 34 35 44 56 37z" />
    <glyph glyph-name="wdieresis" unicode="&#x1e85;" horiz-adv-x="615" 
d="M221 569c-29 0 -55 22 -55 55s26 56 55 56s55 -23 55 -56s-26 -55 -55 -55zM395 569c-29 0 -55 22 -55 55s26 56 55 56s55 -23 55 -56s-26 -55 -55 -55zM575 501c20 -6 35 -27 26 -58l-113 -412c-8 -26 -28 -35 -45 -35s-37 9 -45 35l-91 312l-89 -312
c-8 -26 -27 -35 -45 -35c-17 0 -37 9 -44 35l-115 413c-9 32 8 54 29 58c21 5 45 -5 53 -37l80 -307l86 306c7 27 26 39 45 39c20 0 39 -12 46 -39l89 -313l77 313c8 34 35 44 56 37z" />
    <glyph glyph-name="wgrave" unicode="&#x1e81;" horiz-adv-x="615" 
d="M271 562l-65 72c-17 21 -13 45 2 58s40 12 58 -10l65 -73c18 -21 13 -45 -2 -57c-15 -13 -39 -12 -58 10zM575 501c20 -6 35 -27 26 -58l-113 -412c-8 -26 -28 -35 -45 -35s-37 9 -45 35l-91 312l-89 -312c-8 -26 -27 -35 -45 -35c-17 0 -37 9 -44 35l-115 413
c-9 32 8 54 29 58c21 5 45 -5 53 -37l80 -307l86 306c7 27 26 39 45 39c20 0 39 -12 46 -39l89 -313l77 313c8 34 35 44 56 37z" />
    <glyph glyph-name="x" unicode="x" horiz-adv-x="411" 
d="M257 251l125 -184c18 -26 11 -51 -6 -62c-18 -13 -46 -12 -66 16l-107 157l-107 -159c-17 -24 -43 -28 -62 -16c-18 12 -25 37 -6 62l127 183l-125 184c-20 28 -9 55 9 66c19 10 44 7 63 -19l106 -157l106 156c19 28 46 30 63 17c17 -12 23 -37 5 -63z" />
    <glyph glyph-name="y" unicode="y" horiz-adv-x="430" 
d="M393 500c20 -8 33 -31 21 -62l-188 -495c-32 -82 -82 -106 -130 -106c-17 0 -33 2 -49 8c-29 10 -36 37 -26 56c8 17 27 24 49 19c9 -2 15 -3 22 -3c23 0 44 9 63 57l17 46l-155 420c-13 32 3 56 25 62c20 5 44 -4 55 -34l119 -333l118 332c12 33 38 41 59 33z" />
    <glyph glyph-name="yacute" unicode="&#xfd;" horiz-adv-x="430" 
d="M197 552c-14 12 -19 36 -1 57l64 73c19 22 44 23 59 10s19 -37 1 -58l-64 -72c-19 -22 -43 -23 -59 -10zM393 500c20 -8 33 -31 21 -62l-188 -495c-32 -82 -82 -106 -130 -106c-17 0 -33 2 -49 8c-29 10 -36 37 -26 56c8 17 27 24 49 19c9 -2 15 -3 22 -3
c23 0 44 9 63 57l17 46l-155 420c-13 32 3 56 25 62c20 5 44 -4 55 -34l119 -333l118 332c12 33 38 41 59 33z" />
    <glyph glyph-name="ycircumflex" unicode="&#x177;" horiz-adv-x="430" 
d="M165 566c-19 -16 -42 -15 -55 0c-11 16 -9 38 11 54l63 52c13 11 23 15 33 15c11 0 21 -4 34 -15l63 -52c20 -17 23 -38 10 -54c-12 -15 -35 -16 -54 0l-52 43zM393 500c20 -8 33 -31 21 -62l-188 -495c-32 -82 -82 -106 -130 -106c-17 0 -33 2 -49 8
c-29 10 -36 37 -26 56c8 17 27 24 49 19c9 -2 15 -3 22 -3c23 0 44 9 63 57l17 46l-155 420c-13 32 3 56 25 62c20 5 44 -4 55 -34l119 -333l118 332c12 33 38 41 59 33z" />
    <glyph glyph-name="ydieresis" unicode="&#xff;" horiz-adv-x="430" 
d="M131 569c-29 0 -55 22 -55 55s26 56 55 56s55 -23 55 -56s-26 -55 -55 -55zM305 569c-29 0 -55 22 -55 55s26 56 55 56s55 -23 55 -56s-26 -55 -55 -55zM393 500c20 -8 33 -31 21 -62l-188 -495c-32 -82 -82 -106 -130 -106c-17 0 -33 2 -49 8c-29 10 -36 37 -26 56
c8 17 27 24 49 19c9 -2 15 -3 22 -3c23 0 44 9 63 57l17 46l-155 420c-13 32 3 56 25 62c20 5 44 -4 55 -34l119 -333l118 332c12 33 38 41 59 33z" />
    <glyph glyph-name="ygrave" unicode="&#x1ef3;" horiz-adv-x="430" 
d="M181 562l-65 72c-17 21 -13 45 2 58s40 12 58 -10l65 -73c18 -21 13 -45 -2 -57c-15 -13 -39 -12 -58 10zM393 500c20 -8 33 -31 21 -62l-188 -495c-32 -82 -82 -106 -130 -106c-17 0 -33 2 -49 8c-29 10 -36 37 -26 56c8 17 27 24 49 19c9 -2 15 -3 22 -3
c23 0 44 9 63 57l17 46l-155 420c-13 32 3 56 25 62c20 5 44 -4 55 -34l119 -333l118 332c12 33 38 41 59 33z" />
    <glyph glyph-name="z" unicode="z" horiz-adv-x="372" 
d="M308 76c25 0 44 -14 44 -38s-19 -38 -44 -38h-247c-21 0 -38 15 -38 38c0 12 4 24 15 43l206 343h-178c-26 0 -45 14 -45 38c0 23 19 37 45 37h244c24 0 42 -15 42 -38c0 -11 -3 -23 -16 -44l-204 -341h176z" />
    <glyph glyph-name="zacute" unicode="&#x17a;" horiz-adv-x="372" 
d="M168 552c-14 12 -19 36 -1 57l64 73c19 22 44 23 59 10s19 -37 1 -58l-64 -72c-19 -22 -43 -23 -59 -10zM308 76c25 0 44 -14 44 -38s-19 -38 -44 -38h-247c-21 0 -38 15 -38 38c0 12 4 24 15 43l206 343h-178c-26 0 -45 14 -45 38c0 23 19 37 45 37h244
c24 0 42 -15 42 -38c0 -11 -3 -23 -16 -44l-204 -341h176z" />
    <glyph glyph-name="zcaron" unicode="&#x17e;" horiz-adv-x="372" 
d="M92 620c-20 17 -23 39 -11 54c13 15 36 16 55 0l53 -42l52 42c19 16 42 15 54 0s10 -37 -10 -54l-63 -52c-13 -11 -23 -15 -34 -15c-10 0 -20 4 -33 15zM308 76c25 0 44 -14 44 -38s-19 -38 -44 -38h-247c-21 0 -38 15 -38 38c0 12 4 24 15 43l206 343h-178
c-26 0 -45 14 -45 38c0 23 19 37 45 37h244c24 0 42 -15 42 -38c0 -11 -3 -23 -16 -44l-204 -341h176z" />
    <glyph glyph-name="zdotaccent" unicode="&#x17c;" horiz-adv-x="372" 
d="M188 569c-29 0 -55 22 -55 55s26 56 55 56s55 -23 55 -56s-26 -55 -55 -55zM308 76c25 0 44 -14 44 -38s-19 -38 -44 -38h-247c-21 0 -38 15 -38 38c0 12 4 24 15 43l206 343h-178c-26 0 -45 14 -45 38c0 23 19 37 45 37h244c24 0 42 -15 42 -38c0 -11 -3 -23 -16 -44
l-204 -341h176z" />
    <glyph glyph-name="uni01B6" unicode="&#x1b6;" horiz-adv-x="372" 
d="M308 76c25 0 44 -14 44 -38s-19 -38 -44 -38h-247c-21 0 -38 15 -38 38c0 12 4 24 15 43l91 152h-63c-26 0 -42 14 -42 35c0 22 16 36 42 36h106l72 120h-178c-26 0 -45 14 -45 38c0 23 19 37 45 37h244c24 0 42 -15 42 -38c0 -11 -3 -23 -16 -44l-68 -113h39
c26 0 43 -14 43 -36c0 -21 -17 -35 -43 -35h-81l-94 -157h176z" />
    <glyph glyph-name="j.alt" horiz-adv-x="216" 
d="M108 569c-29 0 -55 22 -55 55s26 56 55 56s54 -23 54 -56s-25 -55 -54 -55zM35 -158c-17 12 -24 41 -1 68c20 23 31 43 31 72v476c0 28 20 45 43 45s43 -17 43 -45v-487c0 -55 -17 -88 -41 -113c-23 -28 -53 -32 -75 -16z" />
    <glyph glyph-name="fi" unicode="&#xfb01;" horiz-adv-x="530" 
d="M242 629c-38 0 -61 -27 -61 -80v-50h98c24 0 44 -14 44 -38s-19 -38 -44 -38h-98v-382c0 -28 -20 -45 -43 -45s-43 17 -43 45v382h-50c-26 0 -45 14 -45 38s19 38 45 38h50v49c0 101 60 161 146 161c18 0 34 -2 53 -9c28 -11 36 -38 26 -57c-9 -16 -27 -23 -50 -18
c-9 2 -18 4 -28 4zM423 569c-29 0 -55 22 -55 55s26 56 55 56s54 -23 54 -56s-25 -55 -54 -55zM423 503c23 0 43 -17 43 -45v-417c0 -28 -21 -45 -43 -45c-23 0 -44 17 -44 45v417c0 28 21 45 44 45z" />
    <glyph glyph-name="fl" unicode="&#xfb02;" horiz-adv-x="530" 
d="M242 629c-38 0 -61 -27 -61 -80v-50h98c24 0 44 -14 44 -38s-19 -38 -44 -38h-98v-382c0 -28 -20 -45 -43 -45s-43 17 -43 45v382h-50c-26 0 -45 14 -45 38s19 38 45 38h50v49c0 101 60 161 146 161c18 0 34 -2 53 -9c28 -11 36 -38 26 -57c-9 -16 -27 -23 -50 -18
c-9 2 -18 4 -28 4zM423 704c23 0 43 -17 43 -45v-618c0 -28 -21 -45 -43 -45c-23 0 -43 17 -43 45v618c0 28 20 45 43 45z" />
    <glyph glyph-name="ordfeminine" unicode="&#xaa;" horiz-adv-x="339" 
d="M335 391c9 -11 6 -31 -6 -42c-11 -12 -27 -18 -46 -18c-23 0 -45 11 -56 32c-26 -23 -58 -34 -88 -34c-66 0 -113 41 -113 101c0 57 42 101 105 116l83 19v18c0 39 -20 60 -51 60c-25 0 -47 -12 -62 -45c-8 -15 -25 -22 -40 -16c-16 6 -21 24 -15 43c19 55 69 82 118 82
c72 0 116 -45 116 -118v-176c0 -13 6 -18 13 -18c5 0 8 1 13 4c9 5 23 2 29 -8zM146 392c27 0 54 14 68 34v80l-61 -13c-39 -10 -58 -29 -58 -57s22 -44 51 -44z" />
    <glyph glyph-name="ordmasculine" unicode="&#xba;" horiz-adv-x="338" 
d="M170 329c-74 0 -144 64 -144 189s70 189 144 189c73 0 142 -64 142 -189s-68 -189 -142 -189zM170 396c34 0 70 34 70 122s-36 122 -70 122c-35 0 -72 -34 -72 -122s37 -122 72 -122z" />
    <glyph glyph-name="uni0394" unicode="&#x394;" horiz-adv-x="529" 
d="M502 66c11 -37 -3 -66 -45 -66h-381c-42 0 -57 29 -45 66l191 598c10 31 28 40 46 40s37 -9 47 -40zM268 541l-145 -463h287z" />
    <glyph glyph-name="uni03A9" unicode="&#x3a9;" horiz-adv-x="632" 
d="M558 79c24 0 44 -14 44 -39c0 -26 -20 -40 -44 -40h-163c-26 0 -40 20 -40 40c0 16 7 31 19 46c65 71 111 161 111 280c0 168 -87 254 -171 254s-171 -86 -171 -254c0 -119 47 -209 111 -280c12 -15 19 -30 19 -46c0 -20 -14 -40 -40 -40h-163c-25 0 -44 14 -44 40
c0 25 19 39 44 39h89c-69 80 -109 184 -109 288c-1 204 120 342 264 342s265 -138 264 -342c0 -105 -39 -208 -109 -288h89z" />
    <glyph glyph-name="uni03BC" unicode="&#x3bc;" horiz-adv-x="490" 
d="M383 503c22 0 43 -17 43 -45v-417c0 -28 -21 -45 -43 -45c-20 0 -39 13 -43 35c-31 -28 -69 -40 -107 -40c-34 0 -63 10 -84 26v-130c0 -28 -20 -45 -43 -45s-43 17 -43 45v571c0 28 20 45 43 45s43 -17 43 -45v-276c0 -72 35 -110 90 -110c40 0 76 19 100 56v330
c0 28 21 45 44 45z" />
    <glyph glyph-name="pi" unicode="&#x3c0;" horiz-adv-x="555" 
d="M490 499c25 0 44 -14 44 -37s-19 -37 -44 -37h-60v-384c0 -28 -20 -45 -43 -45c-22 0 -43 17 -43 45v384h-133v-384c0 -28 -20 -45 -43 -45s-43 17 -43 45v384h-60c-25 0 -44 14 -44 37s19 37 44 37h425z" />
    <glyph glyph-name="zero" unicode="0" horiz-adv-x="620" 
d="M310 -9c-145 0 -265 138 -264 359c0 221 119 359 264 359c144 0 264 -138 264 -359s-120 -359 -264 -359zM310 79c83 0 171 86 171 271s-88 271 -171 271c-84 0 -172 -86 -172 -271s88 -271 172 -271z" />
    <glyph glyph-name="one" unicode="1" horiz-adv-x="352" 
d="M217 703c24 0 44 -17 44 -47v-612c0 -31 -22 -48 -45 -48c-22 0 -44 17 -44 48v540l-84 -60c-23 -17 -48 -13 -61 4c-14 18 -11 44 13 61l133 95c18 14 31 19 44 19z" />
    <glyph glyph-name="two" unicode="2" horiz-adv-x="507" 
d="M429 79c25 0 45 -14 45 -39c0 -26 -20 -40 -45 -40h-332c-23 0 -43 16 -43 43c0 109 38 191 122 255c39 33 83 64 112 87c52 40 76 80 76 130c0 65 -44 110 -106 110c-57 0 -104 -33 -128 -95c-13 -29 -37 -36 -57 -29c-18 7 -30 27 -19 59c27 95 108 149 205 149
c114 0 197 -78 197 -191c0 -77 -38 -138 -111 -192c-28 -22 -76 -58 -110 -85c-54 -43 -85 -90 -90 -162h284z" />
    <glyph glyph-name="three" unicode="3" horiz-adv-x="506" 
d="M284 419c99 -13 181 -85 181 -207c0 -138 -94 -221 -217 -221c-99 0 -180 55 -203 146c-10 35 5 58 26 63c21 6 44 -3 54 -33c17 -60 68 -92 124 -92c70 0 124 51 124 136c0 89 -70 142 -185 135c-26 -2 -46 14 -49 37c-3 19 8 39 31 50c81 43 157 122 178 188h-264
c-25 0 -45 15 -45 39c0 25 20 40 45 40h309c26 0 44 -16 44 -43c0 -23 -6 -49 -17 -73c-24 -62 -75 -122 -136 -165z" />
    <glyph glyph-name="four" unicode="4" horiz-adv-x="512" 
d="M462 257c24 0 44 -14 44 -38s-20 -39 -44 -39h-58v-136c0 -30 -22 -47 -44 -47s-44 17 -44 47v136h-264c-28 0 -44 19 -44 41c0 13 4 25 16 40l293 414c13 18 28 26 45 26c22 0 42 -18 42 -46v-398h58zM114 257h202v280z" />
    <glyph glyph-name="five" unicode="5" horiz-adv-x="513" 
d="M264 469c117 -1 214 -82 214 -234c0 -156 -105 -244 -226 -244c-100 0 -179 55 -202 146c-10 35 5 58 26 63c21 6 44 -3 54 -33c17 -60 67 -92 123 -92c74 0 133 60 133 157c0 91 -55 154 -143 154c-38 0 -73 -13 -100 -33c-18 -12 -35 -16 -52 -10c-16 6 -26 21 -25 43
l17 269c2 28 22 45 45 45h267c25 0 45 -15 45 -40c0 -24 -20 -39 -45 -39h-227l-11 -172c32 13 70 21 107 20z" />
    <glyph glyph-name="six" unicode="6" horiz-adv-x="559" 
d="M306 458c121 0 218 -83 218 -228c0 -141 -95 -239 -222 -239c-150 0 -256 121 -256 349s103 369 259 369c76 0 140 -38 173 -106c15 -27 9 -52 -8 -63c-19 -11 -44 -6 -61 18c-29 46 -63 66 -107 66c-88 0 -154 -84 -163 -241c43 53 105 75 167 75zM303 76
c74 0 129 60 129 150c0 82 -53 148 -136 148c-62 0 -120 -37 -154 -102c17 -139 84 -196 161 -196z" />
    <glyph glyph-name="seven" unicode="7" horiz-adv-x="456" 
d="M408 700c30 0 46 -17 46 -40c0 -14 -6 -29 -19 -44c-107 -132 -230 -399 -248 -575c-3 -31 -24 -45 -46 -45c-22 1 -45 18 -42 51c15 172 133 442 239 574h-287c-25 0 -46 15 -46 39c0 26 21 40 46 40h357z" />
    <glyph glyph-name="eight" unicode="8" horiz-adv-x="552" 
d="M388 353c82 -40 120 -96 120 -164c0 -115 -101 -198 -230 -198c-132 0 -235 81 -235 199c0 74 42 138 113 179c-63 37 -95 89 -95 151c0 109 92 189 217 189c122 0 215 -78 215 -187c0 -72 -42 -133 -105 -169zM278 624c-69 0 -125 -39 -125 -100c0 -42 25 -74 79 -101
c23 -13 50 -23 77 -34c58 30 92 75 92 128c0 66 -54 107 -123 107zM278 75c76 0 138 45 138 112c0 45 -27 78 -85 104c-32 17 -63 27 -95 39c-64 -32 -101 -81 -101 -136c0 -75 65 -119 143 -119z" />
    <glyph glyph-name="nine" unicode="9" horiz-adv-x="560" 
d="M258 708c151 0 257 -121 257 -349c0 -227 -104 -369 -260 -369c-76 0 -140 38 -173 106c-14 27 -9 52 9 63s44 7 60 -18c29 -46 64 -66 107 -66c88 0 155 84 164 241c-43 -53 -105 -75 -168 -75c-120 0 -218 83 -218 228c0 141 95 239 222 239zM264 325
c62 0 122 38 155 103c-18 139 -85 195 -161 195c-75 0 -130 -60 -130 -150c0 -82 53 -148 136 -148z" />
    <glyph glyph-name="uni2080" unicode="&#x2080;" horiz-adv-x="338" 
d="M170 -89c-74 0 -144 63 -144 189c0 125 70 189 144 189c73 0 142 -64 142 -189c0 -126 -68 -189 -142 -189zM170 -22c34 0 70 34 70 122s-36 122 -70 122c-35 0 -72 -35 -72 -122c0 -88 37 -122 72 -122z" />
    <glyph glyph-name="uni2081" unicode="&#x2081;" horiz-adv-x="277" 
d="M237 -21c20 0 34 -13 34 -31c0 -17 -14 -30 -34 -30h-175c-19 0 -34 13 -34 30c0 18 14 31 34 31h58v221l-36 -23c-19 -13 -40 -9 -49 3c-10 13 -9 33 11 46l75 49c12 8 22 10 32 10c20 0 36 -14 36 -33v-273h48z" />
    <glyph glyph-name="uni2082" unicode="&#x2082;" horiz-adv-x="296" 
d="M240 -21c19 0 34 -13 34 -31c0 -17 -14 -30 -34 -30h-166c-21 0 -39 13 -39 35c0 48 23 85 61 120c29 28 53 43 71 60c20 19 27 33 27 51c0 26 -20 42 -45 42s-45 -14 -57 -44c-8 -19 -25 -26 -42 -22c-16 5 -24 21 -17 44c13 51 60 85 119 85c66 0 113 -43 113 -101
c0 -36 -16 -67 -53 -98c-19 -17 -42 -31 -65 -53c-21 -22 -34 -38 -40 -58h133z" />
    <glyph glyph-name="uni2083" unicode="&#x2083;" horiz-adv-x="302" 
d="M182 135c52 -10 90 -48 90 -108c0 -70 -53 -116 -124 -116c-52 0 -97 25 -113 69c-10 22 -1 40 14 45c14 6 31 1 42 -18c10 -24 32 -34 57 -34c32 0 55 21 55 55c0 28 -18 47 -46 54c-11 3 -24 4 -36 4c-22 1 -38 13 -38 32c0 13 7 24 23 33c34 17 63 42 78 70h-120
c-19 0 -34 12 -34 30s14 31 34 31h161c19 0 35 -13 35 -33c0 -12 -5 -27 -15 -44c-14 -24 -36 -51 -63 -70z" />
    <glyph glyph-name="uni2084" unicode="&#x2084;" horiz-adv-x="300" 
d="M259 52c18 0 31 -12 31 -29c0 -16 -13 -28 -31 -28h-22v-46c0 -20 -14 -35 -33 -35s-33 14 -33 35v46h-124c-27 0 -40 15 -40 33c0 11 4 19 12 31l140 202c13 17 26 25 43 25c19 0 35 -13 35 -37v-197h22zM84 52h87v126z" />
    <glyph glyph-name="uni2085" unicode="&#x2085;" horiz-adv-x="302" 
d="M160 164c70 0 117 -51 117 -125c0 -75 -52 -128 -125 -128c-52 0 -97 25 -112 69c-10 22 -1 40 13 45c14 6 32 1 42 -18c11 -24 33 -33 57 -34c32 0 56 26 56 65s-23 65 -60 65c-17 0 -29 -4 -43 -12c-10 -7 -25 -10 -36 -6c-13 3 -22 13 -22 28v138c0 17 15 30 33 30
h143c20 0 34 -12 34 -30s-14 -30 -34 -30h-109l-1 -67c15 7 31 10 47 10z" />
    <glyph glyph-name="uni2086" unicode="&#x2086;" horiz-adv-x="321" 
d="M179 158c64 0 120 -44 120 -121c0 -78 -57 -126 -127 -126c-84 0 -146 68 -146 188c0 119 64 189 149 190c45 0 81 -20 100 -49c13 -18 10 -36 -1 -46c-12 -10 -32 -9 -47 6c-15 18 -32 26 -52 26c-38 0 -70 -30 -78 -97c25 21 56 29 82 29zM173 -26c31 0 57 22 57 63
c0 36 -27 60 -61 60c-26 0 -53 -13 -70 -38c9 -61 40 -85 74 -85z" />
    <glyph glyph-name="uni2087" unicode="&#x2087;" horiz-adv-x="266" 
d="M228 281c20 0 33 -12 33 -29c0 -13 -6 -21 -13 -30c-47 -66 -104 -159 -111 -274c-1 -21 -14 -34 -34 -34s-36 13 -35 35c6 99 55 209 105 272h-136c-20 0 -34 12 -34 30s14 30 34 30h191z" />
    <glyph glyph-name="uni2088" unicode="&#x2088;" horiz-adv-x="316" 
d="M232 102c42 -22 58 -54 58 -87c0 -60 -52 -104 -129 -104c-78 0 -135 41 -135 104c0 36 18 68 54 89c-32 21 -47 50 -47 81c0 59 53 104 127 104c72 0 125 -44 125 -103c0 -37 -21 -66 -53 -84zM159 228c-33 0 -56 -17 -56 -41c0 -19 10 -34 49 -51c5 -3 12 -5 18 -8
c31 12 46 32 46 54c0 28 -25 46 -57 46zM161 -28c35 0 60 17 60 42c0 18 -11 34 -45 49l-37 14c-30 -15 -44 -35 -44 -57c0 -31 29 -48 66 -48z" />
    <glyph glyph-name="uni2089" unicode="&#x2089;" horiz-adv-x="324" 
d="M152 289c83 0 145 -68 145 -188s-63 -190 -149 -190c-44 -1 -81 19 -99 48c-13 18 -10 37 1 46c11 11 31 10 46 -6c16 -18 33 -25 52 -25c38 0 71 29 79 97c-25 -22 -56 -29 -82 -29c-65 0 -121 44 -121 120c0 79 57 127 128 127zM155 102c25 0 53 13 70 40
c-9 60 -40 84 -74 84c-32 0 -57 -22 -57 -63c0 -37 26 -61 61 -61z" />
    <glyph glyph-name="uni2070" unicode="&#x2070;" horiz-adv-x="338" 
d="M170 415c-74 0 -144 63 -144 189c0 125 70 189 144 189c73 0 142 -64 142 -189c0 -126 -68 -189 -142 -189zM170 482c34 0 70 34 70 122s-36 122 -70 122c-35 0 -72 -35 -72 -122c0 -88 37 -122 72 -122z" />
    <glyph glyph-name="uni00B9" unicode="&#xb9;" horiz-adv-x="277" 
d="M237 483c20 0 34 -13 34 -30c0 -18 -14 -31 -34 -31h-175c-19 0 -34 13 -34 31c0 17 14 30 34 30h58v221l-36 -23c-19 -13 -40 -9 -49 3c-10 13 -9 33 11 46l75 49c12 8 22 10 32 10c20 0 36 -14 36 -33v-273h48z" />
    <glyph glyph-name="uni00B2" unicode="&#xb2;" horiz-adv-x="296" 
d="M240 483c19 0 34 -13 34 -30c0 -18 -14 -31 -34 -31h-166c-21 0 -39 13 -39 35c0 49 23 85 61 120c29 28 53 43 71 60c20 19 27 33 27 51c0 26 -20 42 -45 42s-45 -14 -57 -44c-8 -19 -25 -26 -42 -22c-16 5 -24 21 -17 44c13 51 60 85 119 85c66 0 113 -43 113 -101
c0 -36 -16 -67 -53 -98c-19 -17 -42 -31 -65 -53c-21 -22 -34 -38 -40 -58h133z" />
    <glyph glyph-name="uni00B3" unicode="&#xb3;" horiz-adv-x="302" 
d="M182 639c52 -10 90 -48 90 -108c0 -70 -53 -116 -124 -116c-52 0 -97 25 -113 69c-10 22 -1 40 14 45c14 6 31 1 42 -18c10 -24 32 -34 57 -34c32 0 55 21 55 55c0 28 -18 47 -46 54c-11 3 -24 4 -36 4c-22 1 -38 13 -38 32c0 13 7 24 23 33c34 17 63 42 78 70h-120
c-19 0 -34 12 -34 30s14 31 34 31h161c19 0 35 -13 35 -33c0 -12 -5 -27 -15 -44c-14 -24 -36 -51 -63 -70z" />
    <glyph glyph-name="uni2074" unicode="&#x2074;" horiz-adv-x="300" 
d="M259 556c18 0 31 -12 31 -29c0 -16 -13 -28 -31 -28h-22v-46c0 -20 -14 -35 -33 -35s-33 15 -33 35v46h-124c-27 0 -40 15 -40 33c0 11 4 19 12 31l140 202c13 17 26 25 43 25c19 0 35 -13 35 -37v-197h22zM84 556h87v126z" />
    <glyph glyph-name="uni2075" unicode="&#x2075;" horiz-adv-x="302" 
d="M160 668c70 0 117 -51 117 -125c0 -75 -52 -128 -125 -128c-52 0 -97 25 -112 69c-10 22 -1 40 13 45c14 6 32 1 42 -18c11 -24 33 -33 57 -34c32 0 56 26 56 65s-23 65 -60 65c-17 0 -29 -4 -43 -12c-10 -7 -25 -10 -36 -6c-13 3 -22 13 -22 28v138c0 17 15 30 33 30
h143c20 0 34 -12 34 -30s-14 -30 -34 -30h-109l-1 -67c15 7 31 10 47 10z" />
    <glyph glyph-name="uni2076" unicode="&#x2076;" horiz-adv-x="321" 
d="M179 662c64 0 120 -44 120 -121c0 -78 -57 -126 -127 -126c-84 0 -146 68 -146 188c0 119 64 189 149 190c45 0 81 -20 100 -49c13 -18 10 -36 -1 -46c-12 -10 -32 -9 -47 6c-15 18 -32 26 -52 26c-38 0 -70 -30 -78 -97c25 21 56 29 82 29zM173 478c31 0 57 22 57 63
c0 36 -27 60 -61 60c-26 0 -53 -13 -70 -38c9 -61 40 -85 74 -85z" />
    <glyph glyph-name="uni2077" unicode="&#x2077;" horiz-adv-x="266" 
d="M228 785c20 0 33 -12 33 -29c0 -13 -6 -21 -13 -30c-47 -66 -104 -159 -111 -274c-1 -21 -14 -34 -34 -34s-36 13 -35 35c6 99 55 209 105 272h-136c-20 0 -34 12 -34 30s14 30 34 30h191z" />
    <glyph glyph-name="uni2078" unicode="&#x2078;" horiz-adv-x="316" 
d="M232 606c42 -22 58 -54 58 -87c0 -60 -52 -104 -129 -104c-78 0 -135 41 -135 104c0 36 18 68 54 89c-32 21 -47 50 -47 81c0 59 53 104 127 104c72 0 125 -44 125 -103c0 -37 -21 -66 -53 -84zM159 732c-33 0 -56 -17 -56 -41c0 -19 10 -34 49 -51c5 -3 12 -5 18 -8
c31 12 46 32 46 54c0 28 -25 46 -57 46zM161 476c35 0 60 17 60 42c0 18 -11 34 -45 49l-37 14c-30 -15 -44 -35 -44 -57c0 -31 29 -48 66 -48z" />
    <glyph glyph-name="uni2079" unicode="&#x2079;" horiz-adv-x="324" 
d="M152 793c83 0 145 -68 145 -188s-63 -190 -149 -190c-44 0 -81 19 -99 49c-13 17 -10 36 1 45c11 11 31 10 46 -6c16 -17 33 -25 52 -25c38 0 71 29 79 97c-25 -22 -56 -29 -82 -29c-65 0 -121 44 -121 120c0 79 57 127 128 127zM155 606c25 0 53 13 70 40
c-9 60 -40 84 -74 84c-32 0 -57 -22 -57 -63c0 -37 26 -61 61 -61z" />
    <glyph glyph-name="fraction" unicode="&#x2044;" horiz-adv-x="252" 
d="M-119 0c-14 11 -19 32 -3 54l436 631c17 25 42 27 57 16c14 -11 18 -32 3 -54l-436 -631c-18 -26 -43 -27 -57 -16z" />
    <glyph glyph-name="onehalf" unicode="&#xbd;" horiz-adv-x="850" 
d="M670 701c14 -11 19 -32 3 -54l-435 -631c-18 -26 -43 -27 -58 -16c-14 11 -18 32 -3 54l436 631c18 25 43 27 57 16zM300 367c0 -18 -14 -30 -34 -30h-175c-20 0 -34 12 -34 30s14 30 34 30h58v222l-37 -24c-18 -13 -39 -8 -48 3c-10 13 -9 34 11 47l74 48
c13 8 22 11 32 11c21 0 36 -14 36 -33v-274h49c19 0 34 -12 34 -30zM771 61c20 0 35 -13 35 -31c0 -17 -15 -30 -35 -30h-166c-21 0 -39 13 -39 35c0 48 23 85 62 120c29 28 52 43 71 60c19 18 27 33 27 51c0 25 -20 42 -45 42s-46 -14 -58 -44c-8 -19 -25 -27 -42 -22
c-15 5 -23 21 -17 44c14 51 60 85 120 85c65 0 112 -43 112 -101c0 -36 -16 -67 -52 -98c-20 -17 -43 -31 -65 -53s-35 -38 -41 -58h133z" />
    <glyph glyph-name="uni2153" unicode="&#x2153;" horiz-adv-x="850" 
d="M670 701c14 -11 19 -32 3 -54l-435 -631c-18 -26 -43 -27 -58 -16c-14 11 -18 32 -3 54l436 631c18 25 43 27 57 16zM300 367c0 -18 -14 -30 -34 -30h-175c-20 0 -34 12 -34 30s14 30 34 30h58v222l-37 -24c-18 -13 -39 -8 -48 3c-10 13 -9 34 11 47l74 48
c13 8 22 11 32 11c21 0 36 -14 36 -33v-274h49c19 0 34 -12 34 -30zM707 217c52 -10 90 -48 90 -108c0 -70 -54 -116 -124 -116c-52 0 -98 25 -113 69c-10 22 -1 40 14 45c13 6 31 1 41 -18c11 -24 33 -34 57 -34c32 0 55 21 55 55c0 28 -17 47 -45 54c-11 3 -24 4 -37 4
c-21 0 -37 13 -37 32c0 13 7 24 23 32c33 18 63 43 78 71h-120c-20 0 -34 12 -34 30s14 30 34 30h161c19 0 34 -12 34 -32c0 -12 -4 -27 -15 -44c-13 -24 -35 -51 -62 -70z" />
    <glyph glyph-name="uni2154" unicode="&#x2154;" horiz-adv-x="850" 
d="M670 701c14 -11 19 -32 3 -54l-435 -631c-18 -26 -43 -27 -58 -16c-14 11 -18 32 -3 54l436 631c18 25 43 27 57 16zM299 367c0 -18 -15 -30 -34 -30h-167c-21 0 -38 13 -38 35c0 48 22 85 61 120c29 28 53 42 71 60c20 18 27 32 27 51c0 25 -20 41 -45 41
s-46 -13 -57 -44c-9 -19 -25 -26 -42 -21c-16 5 -24 20 -17 43c13 52 60 85 119 85c65 0 112 -42 112 -101c0 -36 -16 -66 -52 -97c-20 -17 -42 -31 -65 -53c-21 -23 -34 -39 -40 -59h133c19 0 34 -12 34 -30zM707 217c52 -10 90 -48 90 -108c0 -70 -54 -116 -124 -116
c-52 0 -98 25 -113 69c-10 22 -1 40 14 45c13 6 31 1 41 -18c11 -24 33 -34 57 -34c32 0 55 21 55 55c0 28 -17 47 -45 54c-11 3 -24 4 -37 4c-21 0 -37 13 -37 32c0 13 7 24 23 32c33 18 63 43 78 71h-120c-20 0 -34 12 -34 30s14 30 34 30h161c19 0 34 -12 34 -32
c0 -12 -4 -27 -15 -44c-13 -24 -35 -51 -62 -70z" />
    <glyph glyph-name="onequarter" unicode="&#xbc;" horiz-adv-x="850" 
d="M670 701c14 -11 19 -32 3 -54l-435 -631c-18 -26 -43 -27 -58 -16c-14 11 -18 32 -3 54l436 631c18 25 43 27 57 16zM300 367c0 -18 -14 -30 -34 -30h-175c-20 0 -34 12 -34 30s14 30 34 30h58v222l-37 -24c-18 -13 -39 -8 -48 3c-10 13 -9 34 11 47l74 48
c13 8 22 11 32 11c21 0 36 -14 36 -33v-274h49c19 0 34 -12 34 -30zM752 134c18 0 31 -12 31 -29c0 -16 -13 -28 -31 -28h-22v-46c0 -20 -14 -35 -33 -35s-33 14 -33 35v46h-124c-27 0 -40 15 -40 33c0 11 4 19 12 31l140 202c12 17 26 25 43 25c19 0 35 -13 35 -37v-197h22
zM577 134h87v126z" />
    <glyph glyph-name="threequarters" unicode="&#xbe;" horiz-adv-x="850" 
d="M670 701c14 -11 19 -32 3 -54l-435 -631c-18 -26 -43 -27 -58 -16c-14 11 -18 32 -3 54l436 631c18 25 43 27 57 16zM299 446c0 -71 -54 -117 -124 -117c-52 0 -98 25 -113 69c-10 22 -1 40 14 46c13 5 31 1 42 -18c10 -24 32 -34 57 -34c31 0 54 20 54 54
c0 29 -17 47 -45 55c-11 3 -24 4 -36 4c-22 0 -38 13 -38 31c0 14 7 24 23 33c34 17 63 42 78 70h-120c-19 0 -34 13 -34 31c0 17 14 30 34 30h161c19 0 35 -13 35 -32c0 -13 -5 -28 -15 -44c-14 -24 -36 -51 -63 -70c52 -11 90 -49 90 -108zM752 134c18 0 31 -12 31 -29
c0 -16 -13 -28 -31 -28h-22v-46c0 -20 -14 -35 -33 -35s-33 14 -33 35v46h-124c-27 0 -40 15 -40 33c0 11 4 19 12 31l140 202c12 17 26 25 43 25c19 0 35 -13 35 -37v-197h22zM577 134h87v126z" />
    <glyph glyph-name="oneeighth" unicode="&#x215b;" horiz-adv-x="850" 
d="M670 701c14 -11 19 -32 3 -54l-435 -631c-18 -26 -43 -27 -58 -16c-14 11 -18 32 -3 54l436 631c18 25 43 27 57 16zM300 367c0 -18 -14 -30 -34 -30h-175c-20 0 -34 12 -34 30s14 30 34 30h58v222l-37 -24c-18 -13 -39 -8 -48 3c-10 13 -9 34 11 47l74 48
c13 8 22 11 32 11c21 0 36 -14 36 -33v-274h49c19 0 34 -12 34 -30zM739 185c42 -22 59 -55 59 -88c0 -59 -52 -104 -129 -104c-78 0 -135 41 -135 105c0 36 19 68 54 88c-32 21 -47 51 -47 81c0 59 52 104 126 104c72 0 125 -44 125 -103c0 -36 -21 -65 -53 -83zM667 310
c-33 0 -57 -17 -57 -41c0 -18 11 -34 50 -51c5 -2 11 -5 18 -7c30 12 45 31 45 54c0 27 -24 45 -56 45zM669 54c34 0 59 17 59 42c0 18 -10 34 -44 49c-11 4 -24 9 -37 15c-30 -15 -44 -36 -44 -58c0 -30 29 -48 66 -48z" />
    <glyph glyph-name="threeeighths" unicode="&#x215c;" horiz-adv-x="850" 
d="M670 701c14 -11 19 -32 3 -54l-435 -631c-18 -26 -43 -27 -58 -16c-14 11 -18 32 -3 54l436 631c18 25 43 27 57 16zM299 446c0 -71 -54 -117 -124 -117c-52 0 -98 25 -113 69c-10 22 -1 40 14 46c13 5 31 1 42 -18c10 -24 32 -34 57 -34c31 0 54 20 54 54
c0 29 -17 47 -45 55c-11 3 -24 4 -36 4c-22 0 -38 13 -38 31c0 14 7 24 23 33c34 17 63 42 78 70h-120c-19 0 -34 13 -34 31c0 17 14 30 34 30h161c19 0 35 -13 35 -32c0 -13 -5 -28 -15 -44c-14 -24 -36 -51 -63 -70c52 -11 90 -49 90 -108zM739 185c42 -22 59 -55 59 -88
c0 -59 -52 -104 -129 -104c-78 0 -135 41 -135 105c0 36 19 68 54 88c-32 21 -47 51 -47 81c0 59 52 104 126 104c72 0 125 -44 125 -103c0 -36 -21 -65 -53 -83zM667 310c-33 0 -57 -17 -57 -41c0 -18 11 -34 50 -51c5 -2 11 -5 18 -7c30 12 45 31 45 54
c0 27 -24 45 -56 45zM669 54c34 0 59 17 59 42c0 18 -10 34 -44 49c-11 4 -24 9 -37 15c-30 -15 -44 -36 -44 -58c0 -30 29 -48 66 -48z" />
    <glyph glyph-name="fiveeighths" unicode="&#x215d;" horiz-adv-x="850" 
d="M670 701c14 -11 19 -32 3 -54l-435 -631c-18 -26 -43 -27 -58 -16c-14 11 -18 32 -3 54l436 631c18 25 43 27 57 16zM298 457c0 -75 -52 -127 -124 -128c-52 0 -97 25 -113 69c-10 22 0 40 14 46c14 5 31 1 42 -18c10 -24 33 -34 56 -34c32 0 56 26 56 64
c0 40 -23 66 -59 66c-17 0 -29 -4 -43 -13c-10 -6 -25 -9 -37 -6c-13 4 -22 13 -22 29v137c0 18 16 31 34 31h143c19 0 34 -13 34 -30c0 -18 -14 -31 -34 -31h-109l-1 -65c15 6 31 9 46 9c71 0 117 -51 117 -126zM739 185c42 -22 59 -55 59 -88c0 -59 -52 -104 -129 -104
c-78 0 -135 41 -135 105c0 36 19 68 54 88c-32 21 -47 51 -47 81c0 59 52 104 126 104c72 0 125 -44 125 -103c0 -36 -21 -65 -53 -83zM667 310c-33 0 -57 -17 -57 -41c0 -18 11 -34 50 -51c5 -2 11 -5 18 -7c30 12 45 31 45 54c0 27 -24 45 -56 45zM669 54
c34 0 59 17 59 42c0 18 -10 34 -44 49c-11 4 -24 9 -37 15c-30 -15 -44 -36 -44 -58c0 -30 29 -48 66 -48z" />
    <glyph glyph-name="seveneighths" unicode="&#x215e;" horiz-adv-x="850" 
d="M670 701c14 -11 19 -32 3 -54l-435 -631c-18 -26 -43 -27 -58 -16c-14 11 -18 32 -3 54l436 631c18 25 43 27 57 16zM199 367c-1 -21 -15 -35 -35 -35c-19 0 -35 14 -34 36c6 98 54 207 105 271h-136c-20 0 -35 13 -35 31c0 17 15 30 35 30h191c19 0 33 -13 33 -29
c0 -13 -6 -22 -13 -31c-48 -65 -105 -158 -111 -273zM739 185c42 -22 59 -55 59 -88c0 -59 -52 -104 -129 -104c-78 0 -135 41 -135 105c0 36 19 68 54 88c-32 21 -47 51 -47 81c0 59 52 104 126 104c72 0 125 -44 125 -103c0 -36 -21 -65 -53 -83zM667 310
c-33 0 -57 -17 -57 -41c0 -18 11 -34 50 -51c5 -2 11 -5 18 -7c30 12 45 31 45 54c0 27 -24 45 -56 45zM669 54c34 0 59 17 59 42c0 18 -10 34 -44 49c-11 4 -24 9 -37 15c-30 -15 -44 -36 -44 -58c0 -30 29 -48 66 -48z" />
    <glyph glyph-name="period" unicode="." horiz-adv-x="190" 
d="M95 -4c-30 0 -58 23 -58 58s28 58 58 58c31 0 58 -23 58 -58s-27 -58 -58 -58z" />
    <glyph glyph-name="comma" unicode="," horiz-adv-x="189" 
d="M94 112c31 0 58 -24 58 -58c0 -22 -8 -44 -19 -66l-36 -68c-13 -25 -39 -29 -54 -21c-16 8 -26 27 -13 51l30 56c-14 10 -24 27 -24 48c0 34 28 58 58 58z" />
    <glyph glyph-name="colon" unicode=":" horiz-adv-x="190" 
d="M95 313c-30 0 -58 23 -58 58s28 58 58 58c31 0 58 -23 58 -58s-27 -58 -58 -58zM95 -4c-30 0 -58 23 -58 58s28 58 58 58c31 0 58 -23 58 -58s-27 -58 -58 -58z" />
    <glyph glyph-name="semicolon" unicode=";" horiz-adv-x="190" 
d="M95 313c-30 0 -58 23 -58 58s28 58 58 58c31 0 58 -23 58 -58s-27 -58 -58 -58zM94 112c31 0 58 -24 58 -58c0 -22 -8 -44 -19 -66l-36 -68c-13 -25 -39 -29 -54 -21c-16 8 -26 27 -13 51l30 56c-14 10 -24 27 -24 48c0 34 28 58 58 58z" />
    <glyph glyph-name="ellipsis" unicode="&#x2026;" horiz-adv-x="533" 
d="M95 -4c-30 0 -58 23 -58 58s28 58 58 58c31 0 58 -23 58 -58s-27 -58 -58 -58zM267 -4c-31 0 -58 23 -58 58s27 58 58 58s57 -23 57 -58s-26 -58 -57 -58zM439 -4c-31 0 -58 23 -58 58s27 58 58 58c30 0 57 -23 57 -58s-27 -58 -57 -58z" />
    <glyph glyph-name="exclam" unicode="!" horiz-adv-x="233" 
d="M116 176c-23 0 -44 17 -44 48v432c0 31 21 48 44 48s44 -17 44 -48v-432c0 -31 -21 -48 -44 -48zM117 -4c-31 0 -58 23 -58 58s27 58 58 58c30 0 57 -23 57 -58s-27 -58 -57 -58z" />
    <glyph glyph-name="exclamdown" unicode="&#xa1;" horiz-adv-x="233" 
d="M117 498c30 0 57 -23 57 -58c0 -34 -27 -58 -57 -58c-31 0 -58 24 -58 58c0 35 27 58 58 58zM116 318c23 0 44 -17 44 -48v-432c0 -31 -21 -48 -44 -48s-44 17 -44 48v432c0 31 21 48 44 48z" />
    <glyph glyph-name="question" unicode="?" horiz-adv-x="441" 
d="M174 178c-23 0 -44 17 -44 46v30c0 53 17 101 95 149c61 38 88 77 88 126c0 56 -40 95 -93 95c-50 0 -96 -28 -122 -100c-12 -27 -37 -34 -57 -26c-19 8 -29 30 -19 59c28 93 106 151 200 151c105 0 182 -70 182 -173c0 -77 -40 -135 -124 -185c-49 -33 -62 -63 -62 -98
v-28c0 -29 -21 -46 -44 -46zM176 -4c-30 0 -58 23 -58 58s28 58 58 58c31 0 58 -23 58 -58s-27 -58 -58 -58z" />
    <glyph glyph-name="questiondown" unicode="&#xbf;" horiz-adv-x="436" 
d="M265 504c30 0 58 -23 58 -58c0 -34 -28 -58 -58 -58c-31 0 -58 24 -58 58c0 35 27 58 58 58zM267 322c23 0 44 -17 44 -46v-30c0 -52 -17 -101 -94 -149c-61 -38 -89 -77 -89 -126c0 -56 40 -95 93 -95c50 0 96 28 122 100c12 27 37 34 57 26c19 -8 29 -30 19 -59
c-28 -93 -106 -151 -200 -151c-104 0 -182 70 -182 173c0 77 40 135 124 185c49 33 62 63 62 98v28c0 29 21 46 44 46z" />
    <glyph glyph-name="periodcentered" unicode="&#xb7;" horiz-adv-x="209" 
d="M105 228c-31 0 -58 23 -58 58s27 58 58 58c30 0 57 -23 57 -58s-27 -58 -57 -58z" />
    <glyph glyph-name="bullet" unicode="&#x2022;" horiz-adv-x="498" 
d="M249 137c-79 0 -142 62 -142 143s63 143 142 143s142 -62 142 -143s-63 -143 -142 -143z" />
    <glyph glyph-name="asterisk" unicode="*" horiz-adv-x="321" 
d="M161 443c-16 0 -32 12 -32 32v44l-35 -21c-18 -12 -38 -6 -47 8c-8 13 -6 34 13 46l35 22l-35 22c-19 12 -21 32 -13 45c9 14 29 20 47 9l35 -22v44c0 21 16 32 32 32c15 0 32 -11 32 -32v-44l34 22c19 11 38 5 47 -9c9 -13 6 -33 -13 -45l-35 -22l35 -22
c19 -12 22 -33 13 -46c-9 -14 -28 -20 -47 -8l-34 21v-44c0 -20 -17 -32 -32 -32z" />
    <glyph glyph-name="numbersign" unicode="#" horiz-adv-x="678" 
d="M606 500c23 0 43 -14 43 -38s-20 -38 -43 -38h-84l-45 -153h70c24 0 43 -15 43 -38c0 -24 -19 -39 -43 -39h-93l-47 -161c-8 -29 -31 -41 -52 -38c-21 4 -39 23 -29 54l42 145h-147l-47 -161c-9 -29 -31 -41 -52 -38c-21 4 -39 23 -30 54l42 145h-61c-24 0 -44 15 -44 39
c0 23 20 38 44 38h84l45 153h-70c-24 0 -43 14 -43 38s19 38 43 38h92l49 167c9 29 32 41 52 37c21 -4 39 -23 29 -54l-44 -150h148l49 167c8 29 31 41 51 37c21 -4 39 -23 30 -54l-44 -150h62zM391 271l45 153h-148l-45 -153h148z" />
    <glyph glyph-name="slash" unicode="/" horiz-adv-x="398" 
d="M54 -61c-18 7 -30 29 -19 59l249 671c12 33 38 40 60 32c18 -8 30 -29 19 -59l-249 -672c-12 -33 -38 -40 -60 -31z" />
    <glyph glyph-name="backslash" unicode="\" horiz-adv-x="403" 
d="M347 -61c-21 -9 -48 -2 -60 31l-249 672c-11 30 1 51 19 59c22 8 48 1 61 -32l248 -671c11 -30 0 -52 -19 -59z" />
    <glyph glyph-name="parenleft" unicode="(" horiz-adv-x="306" 
d="M271 -95c-14 -13 -37 -15 -60 4c-96 71 -176 220 -176 390c0 171 80 319 176 391c23 18 45 17 60 4c15 -14 17 -39 -4 -60c-77 -75 -141 -179 -141 -335c0 -155 64 -259 141 -335c21 -21 19 -46 4 -59z" />
    <glyph glyph-name="parenright" unicode=")" horiz-adv-x="310" 
d="M34 -95c-15 13 -17 38 5 59c76 76 140 180 140 335c0 156 -64 260 -140 335c-22 21 -20 46 -5 60c15 13 37 14 61 -4c96 -72 175 -220 175 -391c0 -170 -79 -319 -175 -390c-24 -19 -46 -17 -61 -4z" />
    <glyph glyph-name="braceleft" unicode="{" horiz-adv-x="316" 
d="M250 -30c27 0 45 -14 45 -37c0 -25 -19 -38 -53 -38c-77 0 -137 44 -137 141v176c0 15 -2 26 -8 33c-6 8 -15 10 -28 10c-24 0 -42 20 -42 45s18 44 42 44c13 0 22 3 28 10c6 8 8 18 8 34v175c0 98 60 141 137 141c34 0 53 -12 53 -38c0 -23 -18 -37 -45 -37
c-38 0 -58 -21 -58 -66v-173c0 -42 -10 -73 -35 -90c25 -18 35 -49 35 -91v-172c0 -46 20 -67 58 -67z" />
    <glyph glyph-name="braceright" unicode="}" horiz-adv-x="316" 
d="M247 344c24 0 43 -19 43 -44s-19 -45 -43 -45c-13 0 -22 -2 -28 -10c-6 -7 -8 -18 -8 -33v-176c0 -97 -60 -141 -136 -141c-35 0 -54 13 -54 38c0 23 18 37 46 37c37 0 57 21 57 67v172c0 42 10 73 35 91c-25 17 -35 48 -35 90v173c0 45 -20 66 -57 66
c-28 0 -46 14 -46 37c0 26 19 38 54 38c76 0 136 -43 136 -141v-175c0 -16 2 -26 8 -34c6 -7 15 -10 28 -10z" />
    <glyph glyph-name="bracketleft" unicode="[" horiz-adv-x="279" 
d="M91 -101c-22 0 -43 17 -43 45v711c0 28 21 45 43 45h115c25 0 45 -14 45 -40c0 -24 -20 -39 -45 -39h-72v-643h72c25 0 45 -14 45 -39s-20 -40 -45 -40h-115z" />
    <glyph glyph-name="bracketright" unicode="]" horiz-adv-x="281" 
d="M185 -101h-116c-24 0 -44 15 -44 40s20 39 44 39h73v643h-73c-24 0 -44 15 -44 39c0 26 20 40 44 40h116c22 0 43 -17 43 -45v-711c0 -28 -21 -45 -43 -45z" />
    <glyph glyph-name="hyphen" unicode="-" horiz-adv-x="420" 
d="M90 225c-27 0 -47 14 -47 40s20 40 47 40h242c25 0 45 -14 45 -40s-20 -40 -45 -40h-242z" />
    <glyph glyph-name="uni00AD" unicode="&#xad;" horiz-adv-x="420" 
d="M90 225c-27 0 -47 14 -47 40s20 40 47 40h242c25 0 45 -14 45 -40s-20 -40 -45 -40h-242z" />
    <glyph glyph-name="endash" unicode="&#x2013;" horiz-adv-x="551" 
d="M83 227c-25 0 -44 14 -44 38s19 38 44 38h386c24 0 43 -14 43 -38s-19 -38 -43 -38h-386z" />
    <glyph glyph-name="emdash" unicode="&#x2014;" horiz-adv-x="879" 
d="M82 227c-24 0 -43 14 -43 38s19 38 43 38h716c23 0 43 -14 43 -38s-20 -38 -43 -38h-716z" />
    <glyph glyph-name="underscore" unicode="_" horiz-adv-x="551" 
d="M82 -101c-25 0 -43 13 -43 38c0 24 18 37 43 37h389c22 0 41 -13 41 -37c0 -25 -19 -38 -41 -38h-389z" />
    <glyph glyph-name="quotesinglbase" unicode="&#x201a;" horiz-adv-x="189" 
d="M94 112c31 0 58 -24 58 -58c0 -22 -8 -44 -19 -66l-36 -68c-13 -25 -39 -29 -54 -21c-16 8 -26 27 -13 51l30 56c-14 10 -24 27 -24 48c0 34 28 58 58 58z" />
    <glyph glyph-name="quotedblbase" unicode="&#x201e;" horiz-adv-x="337" 
d="M94 112c31 0 58 -24 58 -58c0 -22 -8 -44 -19 -66l-36 -68c-13 -25 -39 -29 -54 -21c-16 8 -26 27 -13 51l30 56c-14 10 -24 27 -24 48c0 34 28 58 58 58zM242 112c31 0 58 -24 58 -58c0 -22 -8 -44 -19 -66l-36 -68c-13 -25 -39 -29 -54 -21c-16 8 -26 27 -13 51l30 56
c-14 10 -24 27 -24 48c0 34 28 58 58 58z" />
    <glyph glyph-name="quotedblleft" unicode="&#x201c;" horiz-adv-x="336" 
d="M145 701c16 -8 26 -27 13 -51l-30 -56c14 -11 24 -27 24 -48c0 -35 -27 -58 -58 -58s-57 23 -57 58c0 22 8 43 19 65l36 68c13 26 38 29 53 22zM293 701c16 -8 26 -27 13 -51l-30 -56c14 -11 24 -27 24 -48c0 -35 -27 -58 -58 -58c-30 0 -57 23 -57 58c0 22 8 43 19 65
l36 68c13 26 38 29 53 22z" />
    <glyph glyph-name="quotedblright" unicode="&#x201d;" horiz-adv-x="336" 
d="M94 704c30 0 57 -23 57 -58c0 -22 -8 -44 -19 -65l-36 -69c-13 -25 -38 -28 -53 -21c-16 8 -26 27 -13 51l30 56c-14 10 -24 27 -24 48c0 35 27 58 58 58zM242 704c30 0 57 -23 57 -58c0 -22 -8 -44 -19 -65l-36 -69c-13 -25 -38 -28 -53 -21c-16 8 -26 27 -13 51l30 56
c-14 10 -24 27 -24 48c0 35 27 58 58 58z" />
    <glyph glyph-name="quoteleft" unicode="&#x2018;" horiz-adv-x="188" 
d="M145 700c16 -8 26 -27 13 -51l-30 -56c14 -10 24 -27 24 -48c0 -34 -27 -58 -58 -58s-57 24 -57 58c0 22 8 44 19 65l36 69c13 25 38 29 53 21z" />
    <glyph glyph-name="quoteright" unicode="&#x2019;" horiz-adv-x="188" 
d="M94 704c30 0 57 -23 57 -58c0 -22 -8 -44 -19 -65l-36 -69c-13 -25 -38 -28 -53 -21c-16 8 -26 27 -13 51l30 57c-15 10 -24 26 -24 47c0 35 27 58 58 58z" />
    <glyph glyph-name="guillemotleft" unicode="&#xab;" horiz-adv-x="597" 
d="M284 125c27 -24 25 -52 9 -68c-14 -15 -42 -18 -66 4l-182 156c-11 9 -17 22 -17 35s6 25 17 35l182 155c25 23 53 19 66 4c16 -16 17 -44 -10 -67l-152 -127zM531 125c27 -24 25 -52 10 -68c-15 -15 -43 -18 -67 4l-182 156c-11 9 -16 22 -16 35s5 25 16 35l182 155
c25 23 53 19 67 4c15 -16 16 -44 -10 -67l-152 -127z" />
    <glyph glyph-name="guillemotright" unicode="&#xbb;" horiz-adv-x="597" 
d="M322 252c0 -13 -6 -26 -17 -35l-182 -156c-24 -22 -52 -19 -67 -4c-15 16 -17 44 10 68l153 127l-152 127c-27 23 -26 51 -11 67c14 15 42 19 67 -4l182 -155c11 -10 17 -22 17 -35zM552 287c11 -10 17 -22 17 -35s-6 -26 -17 -35l-182 -156c-24 -22 -51 -19 -66 -4
c-16 16 -18 44 9 68l153 127l-152 127c-27 23 -26 51 -10 67c14 15 41 19 66 -4z" />
    <glyph glyph-name="guilsinglleft" unicode="&#x2039;" horiz-adv-x="350" 
d="M284 125c27 -24 25 -52 9 -68c-14 -15 -42 -18 -66 4l-182 156c-11 9 -17 22 -17 35s6 25 17 35l182 155c25 23 53 19 66 4c16 -16 17 -44 -10 -67l-152 -127z" />
    <glyph glyph-name="guilsinglright" unicode="&#x203a;" horiz-adv-x="350" 
d="M305 287c11 -10 16 -22 16 -35s-5 -26 -16 -35l-182 -156c-24 -22 -52 -19 -67 -4c-15 16 -17 44 10 68l152 127l-152 127c-26 24 -25 51 -10 67c14 15 42 19 67 -4z" />
    <glyph glyph-name="quotedbl" unicode="&#x22;" horiz-adv-x="335" 
d="M87 450c-23 0 -45 17 -45 47v159c0 31 22 48 45 48c22 0 44 -17 44 -48v-159c0 -30 -22 -47 -44 -47zM249 450c-23 0 -45 17 -45 47v159c0 31 22 48 45 48c22 0 44 -17 44 -48v-159c0 -30 -22 -47 -44 -47z" />
    <glyph glyph-name="quotesingle" unicode="'" horiz-adv-x="173" 
d="M87 450c-23 0 -45 17 -45 47v159c0 31 22 48 45 48c22 0 44 -17 44 -48v-159c0 -30 -22 -47 -44 -47z" />
    <glyph glyph-name="uni00A0" unicode="&#xa0;" horiz-adv-x="200" 
 />
    <glyph glyph-name="cent" unicode="&#xa2;" horiz-adv-x="467" 
d="M401 173c20 -8 28 -30 19 -54c-19 -67 -69 -112 -130 -124v-37c0 -25 -16 -41 -39 -41c-22 0 -38 16 -38 41v38c-90 21 -163 111 -163 253s73 233 163 254v38c0 26 16 42 38 42c23 0 39 -16 39 -42v-37c60 -12 111 -58 130 -124c9 -24 1 -46 -19 -53c-20 -8 -41 1 -51 21
c-15 35 -35 60 -60 71v-340c25 12 46 36 60 70c9 22 31 31 51 24zM138 249c0 -90 35 -144 75 -166v333c-40 -22 -75 -76 -75 -167z" />
    <glyph glyph-name="currency" unicode="&#xa4;" horiz-adv-x="489" 
d="M385 211l34 -44c18 -24 14 -47 0 -58c-16 -13 -42 -12 -61 13l-28 36c-25 -16 -54 -24 -85 -24s-60 9 -85 24l-28 -36c-19 -25 -46 -26 -62 -13c-14 11 -17 34 1 58l34 45c-22 32 -35 73 -35 120c0 46 13 87 34 120l-33 44c-18 23 -15 47 -1 58c16 13 43 12 62 -13
l27 -35c25 16 55 25 86 25s61 -9 86 -25l27 35c19 25 45 26 61 13c14 -11 18 -35 0 -58l-33 -44c21 -32 34 -73 34 -120s-13 -88 -35 -121zM144 332c0 -73 44 -126 101 -126s102 53 102 126s-45 126 -102 126s-101 -53 -101 -126z" />
    <glyph glyph-name="dollar" unicode="$" horiz-adv-x="498" 
d="M454 181c0 -101 -65 -174 -162 -188v-35c0 -25 -16 -41 -38 -41s-38 16 -38 41v37c-65 13 -119 54 -145 110c-15 30 -5 54 15 62c18 8 40 2 54 -21c19 -30 45 -53 76 -64v244c-21 11 -41 22 -60 34c-72 41 -106 97 -106 164c0 97 70 169 166 183v35c0 25 16 41 38 41
s38 -16 38 -41v-37c64 -13 115 -54 140 -110c15 -29 6 -52 -12 -61c-18 -8 -41 -3 -56 20c-18 29 -43 51 -72 62v-231c17 -8 33 -17 50 -28c74 -44 112 -104 112 -176zM210 430l6 -4v194c-44 -10 -74 -43 -74 -90c0 -41 22 -72 68 -100zM292 79c44 12 70 46 70 95
c0 42 -21 79 -67 108l-3 2v-205z" />
    <glyph glyph-name="Euro" unicode="&#x20ac;" horiz-adv-x="613" 
d="M543 207c18 -9 29 -31 17 -61c-36 -99 -116 -155 -202 -155c-122 0 -226 97 -255 259h-51c-24 0 -43 14 -43 38s19 38 43 38h42v24v23h-42c-24 0 -43 14 -43 38s19 38 43 38h51c30 162 133 260 255 260c86 0 166 -56 202 -155c12 -30 1 -52 -17 -61c-19 -9 -46 -3 -60 26
c-28 68 -77 102 -125 102c-67 0 -137 -55 -162 -172h170c23 0 43 -14 43 -38s-20 -38 -43 -38h-180v-23c0 -8 0 -16 1 -24h179c23 0 43 -14 43 -38s-20 -38 -43 -38h-170c25 -116 95 -171 162 -171c48 0 97 33 125 102c14 29 41 35 60 26z" />
    <glyph glyph-name="florin" unicode="&#x192;" horiz-adv-x="457" 
d="M409 700c28 -10 37 -37 26 -57c-8 -16 -27 -23 -49 -18c-11 2 -19 4 -28 4c-36 0 -62 -24 -69 -91l-4 -39h77c25 0 44 -14 44 -38s-18 -38 -43 -38h-85l-27 -280c-10 -102 -66 -152 -149 -152c-19 0 -36 2 -55 9c-28 10 -36 37 -26 56c9 17 27 23 50 19
c10 -3 19 -4 28 -4c36 0 62 24 68 91l26 261h-60c-26 0 -45 14 -45 38s19 38 45 38h67l6 57c10 102 65 153 148 153c19 0 36 -2 55 -9z" />
    <glyph glyph-name="uni20BA" unicode="&#x20ba;" horiz-adv-x="500" 
d="M445 280c19 -4 33 -22 29 -52c-21 -136 -104 -228 -235 -228h-79c-22 0 -44 17 -44 47v239l-33 -12c-24 -9 -45 -2 -54 17c-8 21 3 42 27 51l60 22v50l-33 -12c-24 -9 -45 -2 -54 17c-8 21 3 43 27 51l60 22v165c0 30 22 47 44 47c23 0 44 -17 44 -47v-133l120 44
c25 9 45 2 54 -17c8 -20 -3 -42 -27 -51l-147 -54v-49l120 44c25 9 45 1 54 -18c8 -20 -3 -42 -27 -51l-147 -54v-238h36c89 0 139 60 156 164c5 29 29 40 49 36z" />
    <glyph glyph-name="sterling" unicode="&#xa3;" horiz-adv-x="496" 
d="M424 78c24 0 44 -14 44 -39s-20 -39 -44 -39h-333c-23 0 -37 11 -41 27c-5 14 -2 32 9 48l40 60c47 68 59 113 49 157h-95c-24 0 -44 15 -44 39s20 39 44 39h63c-25 53 -41 99 -41 151c0 110 86 188 190 188c96 0 174 -64 202 -154c9 -29 -2 -49 -21 -56
c-20 -8 -46 -1 -57 28c-26 69 -74 98 -123 98c-53 0 -99 -42 -99 -108c0 -46 18 -89 45 -147h161c24 0 44 -15 44 -39s-20 -39 -44 -39h-136c6 -58 -11 -124 -64 -196l-10 -18h261z" />
    <glyph glyph-name="yen" unicode="&#xa5;" horiz-adv-x="545" 
d="M497 699c18 -10 27 -35 11 -63l-154 -275h77c24 0 44 -14 44 -38s-20 -39 -44 -39h-114v-46h114c24 0 44 -14 44 -38s-20 -39 -44 -39h-114v-117c0 -30 -22 -48 -45 -48c-22 0 -45 17 -45 48v117h-114c-24 0 -44 15 -44 39s20 38 44 38h114v46h-114c-24 0 -44 15 -44 39
s20 38 44 38h76l-154 275c-16 30 -5 55 15 65c19 8 46 2 62 -26l161 -291l159 291c17 30 46 35 65 24z" />
    <glyph glyph-name="uni2219" unicode="&#x2219;" horiz-adv-x="495" 
d="M247 224c-78 0 -141 63 -141 143c0 82 63 144 141 144c79 0 142 -62 142 -144c0 -80 -63 -143 -142 -143z" />
    <glyph glyph-name="uni2215" unicode="&#x2215;" horiz-adv-x="495" 
d="M118 -61c-19 7 -30 29 -19 59l248 671c13 33 39 40 61 32c18 -8 30 -29 19 -59l-249 -672c-12 -33 -39 -40 -60 -31z" />
    <glyph glyph-name="plus" unicode="+" horiz-adv-x="573" 
d="M441 406c24 0 42 -13 42 -37c0 -23 -18 -37 -42 -37h-114v-126c0 -25 -17 -43 -40 -43s-40 18 -40 43v126h-113c-25 0 -43 14 -43 37c0 24 18 37 43 37h113v125c0 25 17 43 40 43s40 -18 40 -43v-125h114z" />
    <glyph glyph-name="minus" unicode="&#x2212;" horiz-adv-x="573" 
d="M134 332c-25 0 -43 14 -43 37c0 24 18 37 43 37h307c24 0 42 -13 42 -37c0 -23 -18 -37 -42 -37h-307z" />
    <glyph glyph-name="multiply" unicode="&#xd7;" horiz-adv-x="573" 
d="M433 268c17 -17 19 -42 3 -56c-16 -15 -41 -14 -59 5l-91 94l-90 -94c-18 -20 -43 -20 -57 -6c-16 14 -16 37 2 56l93 98l-94 98c-17 19 -18 42 -2 58c15 15 40 13 58 -6l91 -95l91 96c19 20 43 20 58 6c15 -15 14 -39 -3 -57l-94 -99z" />
    <glyph glyph-name="divide" unicode="&#xf7;" horiz-adv-x="573" 
d="M288 471c-29 0 -55 22 -55 55c0 32 26 55 55 55c28 0 54 -23 54 -55c0 -33 -26 -55 -54 -55zM134 332c-25 0 -43 14 -43 37c0 24 18 37 43 37h307c24 0 42 -13 42 -37c0 -23 -18 -37 -42 -37h-307zM288 157c-29 0 -55 23 -55 55c0 33 26 55 55 55c28 0 54 -22 54 -55
c0 -32 -26 -55 -54 -55z" />
    <glyph glyph-name="equal" unicode="=" horiz-adv-x="573" 
d="M134 412c-25 0 -43 13 -43 37s18 37 43 37h307c24 0 42 -13 42 -37s-18 -37 -42 -37h-307zM134 250c-25 0 -43 14 -43 38c0 23 18 37 43 37h307c24 0 42 -14 42 -37c0 -24 -18 -38 -42 -38h-307z" />
    <glyph glyph-name="notequal" unicode="&#x2260;" horiz-adv-x="573" 
d="M441 325c24 0 42 -14 42 -37c0 -24 -18 -38 -42 -38h-174l-30 -60c-12 -25 -35 -29 -51 -22c-16 6 -26 27 -14 51l15 31h-53c-25 0 -43 14 -43 38c0 23 18 37 43 37h91l43 87h-134c-25 0 -43 13 -43 37s18 37 43 37h171l30 61c13 25 36 29 52 22s26 -27 14 -51l-16 -32
h56c24 0 42 -13 42 -37s-18 -37 -42 -37h-93l-43 -87h136z" />
    <glyph glyph-name="greater" unicode="&#x3e;" horiz-adv-x="573" 
d="M432 413c21 -12 31 -28 31 -45c0 -19 -10 -34 -31 -46l-242 -131c-30 -16 -55 -8 -64 11c-9 16 -5 40 23 55l211 110l-211 110c-28 15 -32 39 -23 56c9 18 34 27 64 11z" />
    <glyph glyph-name="less" unicode="&#x3c;" horiz-adv-x="573" 
d="M424 257c28 -15 32 -39 24 -55c-10 -19 -35 -27 -64 -11l-243 131c-21 12 -30 27 -30 46c0 17 9 33 30 45l243 131c29 16 54 7 64 -11c8 -17 4 -41 -24 -56l-210 -110z" />
    <glyph glyph-name="greaterequal" unicode="&#x2265;" horiz-adv-x="573" 
d="M123 263c-8 18 -1 43 29 54l195 77l-195 76c-30 11 -37 36 -29 54s30 29 60 17l252 -108c22 -9 31 -22 31 -39c0 -18 -9 -31 -31 -40l-252 -108c-30 -12 -52 -1 -60 17zM442 189c24 0 42 -14 42 -37s-18 -37 -42 -37h-308c-24 0 -42 14 -42 37s18 37 42 37h308z" />
    <glyph glyph-name="lessequal" unicode="&#x2264;" horiz-adv-x="573" 
d="M140 354c-22 9 -31 22 -31 40c0 17 9 30 31 39l252 108c30 12 52 1 60 -17s1 -43 -29 -54l-195 -76l195 -77c30 -11 37 -36 29 -54s-30 -29 -60 -17zM441 189c24 0 42 -14 42 -37s-18 -37 -42 -37h-308c-24 0 -42 14 -42 37s18 37 42 37h308z" />
    <glyph glyph-name="plusminus" unicode="&#xb1;" horiz-adv-x="573" 
d="M134 359c-25 0 -43 13 -43 37s18 37 43 37h113v91c0 26 17 44 40 44s40 -18 40 -44v-91h114c24 0 42 -13 42 -37s-18 -37 -42 -37h-114v-91c0 -25 -17 -43 -40 -43s-40 18 -40 43v91h-113zM441 189c24 0 42 -14 42 -37s-18 -37 -42 -37h-308c-24 0 -42 14 -42 37
s18 37 42 37h308z" />
    <glyph glyph-name="approxequal" unicode="&#x2248;" horiz-adv-x="573" 
d="M137 379c-18 4 -29 20 -25 45c9 52 44 84 94 84c17 0 36 -4 61 -14c23 -10 46 -21 70 -31c10 -5 20 -7 29 -7c11 0 22 5 27 23c8 25 27 33 43 29c18 -3 29 -20 25 -45c-8 -51 -43 -84 -93 -84c-19 0 -37 4 -62 15c-24 9 -44 20 -69 31c-12 5 -21 6 -29 6
c-12 0 -22 -4 -28 -23c-8 -25 -27 -33 -43 -29zM137 214c-18 4 -29 20 -25 45c9 52 44 84 94 84c17 0 36 -4 61 -14c23 -10 46 -21 70 -31c10 -5 20 -7 29 -7c11 0 22 5 27 23c8 25 27 33 43 29c18 -3 29 -20 25 -45c-8 -51 -43 -84 -93 -84c-19 0 -37 4 -62 15
c-24 9 -44 20 -69 31c-12 5 -21 6 -29 6c-12 0 -22 -4 -28 -23c-8 -25 -27 -33 -43 -29z" />
    <glyph glyph-name="asciitilde" unicode="~" horiz-adv-x="573" 
d="M137 295c-18 4 -29 20 -25 45c9 52 44 84 94 84c17 0 36 -4 61 -14c23 -10 46 -21 70 -31c10 -5 20 -7 29 -7c11 0 22 5 27 23c8 25 27 33 43 29c18 -3 29 -20 25 -44c-8 -52 -43 -85 -93 -85c-19 0 -37 4 -62 15c-24 9 -44 20 -69 31c-12 5 -21 6 -29 6
c-12 0 -22 -4 -28 -23c-8 -25 -27 -33 -43 -29z" />
    <glyph glyph-name="logicalnot" unicode="&#xac;" horiz-adv-x="573" 
d="M422 411c23 0 41 -13 41 -38v-113c0 -25 -16 -42 -38 -42c-23 0 -39 17 -39 42v76h-244c-25 0 -43 14 -43 38c0 23 18 37 43 37h280z" />
    <glyph glyph-name="asciicircum" unicode="^" horiz-adv-x="573" 
d="M436 481c15 -28 5 -49 -12 -58c-18 -9 -43 -3 -56 21l-81 150l-82 -150c-13 -24 -38 -29 -55 -21c-18 9 -28 30 -12 58l110 199c9 18 23 26 39 26c15 0 29 -8 39 -26z" />
    <glyph glyph-name="infinity" unicode="&#x221e;" horiz-adv-x="669" 
d="M484 489c80 0 147 -57 147 -136c0 -80 -65 -138 -143 -138c-39 0 -81 11 -118 46c-11 10 -23 23 -34 36c-11 -12 -22 -24 -33 -35c-37 -34 -78 -47 -120 -47c-80 0 -145 58 -145 138c0 79 67 136 145 136c43 0 81 -9 122 -45c10 -9 20 -19 30 -30c7 9 15 17 22 23
c44 43 85 52 127 52zM264 326c7 8 16 19 24 30c-6 8 -12 14 -17 20c-34 34 -59 42 -85 42c-38 0 -71 -27 -71 -65c0 -40 32 -67 68 -67c28 0 54 11 81 40zM487 286c35 0 67 27 67 67c0 38 -32 65 -72 65c-28 0 -51 -8 -85 -43c-5 -5 -10 -11 -16 -18c10 -12 18 -22 26 -30
c30 -32 53 -41 80 -41z" />
    <glyph glyph-name="integral" unicode="&#x222b;" horiz-adv-x="479" 
d="M104 -163c-19 0 -36 2 -54 9c-28 10 -36 37 -26 56c9 16 27 23 50 18c10 -2 19 -3 28 -3c36 0 61 23 68 91l57 548c10 102 65 153 147 153c20 0 36 -2 55 -9c27 -10 36 -37 25 -57c-8 -16 -27 -23 -49 -18c-10 2 -19 4 -28 4c-36 0 -62 -24 -69 -91l-56 -549
c-11 -102 -66 -152 -148 -152z" />
    <glyph glyph-name="uni2126" unicode="&#x2126;" horiz-adv-x="632" 
d="M558 79c24 0 44 -14 44 -39c0 -26 -20 -40 -44 -40h-163c-26 0 -40 20 -40 40c0 16 7 31 19 46c65 71 111 161 111 280c0 168 -87 254 -171 254s-171 -86 -171 -254c0 -119 47 -209 111 -280c12 -15 19 -30 19 -46c0 -20 -14 -40 -40 -40h-163c-25 0 -44 14 -44 40
c0 25 19 39 44 39h89c-69 80 -109 184 -109 288c-1 204 120 342 264 342s265 -138 264 -342c0 -105 -39 -208 -109 -288h89z" />
    <glyph glyph-name="uni2206" unicode="&#x2206;" horiz-adv-x="529" 
d="M502 66c11 -37 -3 -66 -45 -66h-381c-42 0 -57 29 -45 66l191 598c10 31 28 40 46 40s37 -9 47 -40zM268 541l-145 -463h287z" />
    <glyph glyph-name="product" unicode="&#x220f;" horiz-adv-x="620" 
d="M563 700c24 0 44 -14 44 -40c0 -25 -20 -39 -44 -39h-83v-737c0 -29 -21 -47 -44 -47s-45 18 -45 47v737h-163v-737c0 -29 -21 -47 -44 -47s-45 18 -45 47v737h-81c-26 0 -45 14 -45 39c0 26 19 40 45 40h505z" />
    <glyph glyph-name="summation" unicode="&#x2211;" horiz-adv-x="441" 
d="M376 79c24 0 44 -14 44 -39c0 -26 -20 -40 -44 -40h-306c-26 0 -47 11 -47 39c0 11 4 23 15 39l191 281l-189 263c-11 16 -15 28 -15 39c0 28 22 39 47 39h306c24 0 44 -14 44 -40c0 -25 -20 -39 -44 -39h-235l164 -226c17 -24 17 -47 0 -71l-168 -245h237z" />
    <glyph glyph-name="radical" unicode="&#x221a;" horiz-adv-x="480" 
d="M440 701c19 -7 32 -28 21 -60l-198 -609c-9 -26 -25 -36 -43 -36s-36 11 -44 36l-76 249h-41c-27 0 -46 14 -46 38c0 25 19 39 46 39h71c22 0 38 -8 44 -33l47 -169l162 511c10 32 35 42 57 34z" />
    <glyph glyph-name="partialdiff" unicode="&#x2202;" horiz-adv-x="493" 
d="M182 703c168 -48 271 -218 271 -412c0 -186 -91 -300 -208 -300c-109 0 -205 94 -205 255c0 160 95 250 199 250c35 0 67 -10 94 -28c-33 74 -91 129 -181 163c-31 11 -38 37 -29 56c9 17 29 25 59 16zM245 72c68 0 121 76 121 218c0 20 -1 39 -3 57
c-29 51 -74 73 -116 73c-61 0 -119 -59 -119 -174c0 -116 57 -174 117 -174z" />
    <glyph glyph-name="uni00B5" unicode="&#xb5;" horiz-adv-x="490" 
d="M383 503c22 0 43 -17 43 -45v-417c0 -28 -21 -45 -43 -45c-20 0 -39 13 -43 35c-31 -28 -69 -40 -107 -40c-34 0 -63 10 -84 26v-130c0 -28 -20 -45 -43 -45s-43 17 -43 45v571c0 28 20 45 43 45s43 -17 43 -45v-276c0 -72 35 -110 90 -110c40 0 76 19 100 56v330
c0 28 21 45 44 45z" />
    <glyph glyph-name="percent" unicode="%" horiz-adv-x="683" 
d="M165 394c-84 0 -137 75 -137 157c0 83 53 158 137 158c83 0 136 -75 136 -158c0 -82 -54 -157 -136 -157zM95 0c-14 11 -18 32 -2 54l435 631c18 25 43 27 57 16c15 -11 19 -32 3 -54l-435 -631c-18 -26 -43 -27 -58 -16zM165 454c36 0 72 36 72 97c0 62 -36 98 -72 98
s-71 -36 -71 -98c0 -61 35 -97 71 -97zM518 -9c-83 0 -137 75 -137 157c0 83 55 158 137 158c83 0 137 -75 137 -158c0 -82 -54 -157 -137 -157zM518 51c36 0 71 36 71 97c0 62 -35 98 -71 98s-72 -36 -72 -98c0 -61 36 -97 72 -97z" />
    <glyph glyph-name="perthousand" unicode="&#x2030;" horiz-adv-x="984" 
d="M165 394c-84 0 -137 75 -137 157c0 83 53 158 137 158c83 0 136 -75 136 -158c0 -82 -54 -157 -136 -157zM95 0c-14 11 -18 32 -2 54l435 631c18 25 43 27 57 16c15 -11 19 -32 3 -54l-435 -631c-18 -26 -43 -27 -58 -16zM165 454c36 0 72 36 72 97c0 62 -36 98 -72 98
s-71 -36 -71 -98c0 -61 35 -97 71 -97zM518 -9c-83 0 -137 75 -137 157c0 83 55 158 137 158c83 0 137 -75 137 -158c0 -82 -54 -157 -137 -157zM826 -9c-83 0 -137 75 -137 157c0 83 55 158 137 158c83 0 136 -75 136 -158c0 -82 -53 -157 -136 -157zM518 51
c36 0 71 36 71 97c0 62 -35 98 -71 98s-72 -36 -72 -98c0 -61 36 -97 72 -97zM826 51c36 0 71 36 71 97c0 62 -35 98 -71 98s-72 -36 -72 -98c0 -61 36 -97 72 -97z" />
    <glyph glyph-name="arrowup" unicode="&#x2191;" horiz-adv-x="720" 
d="M612 471c19 -18 21 -43 4 -60s-41 -14 -60 4l-151 150v-522c0 -30 -22 -47 -45 -47c-22 0 -44 17 -44 48v524l-151 -151c-19 -18 -44 -21 -61 -4c-16 17 -15 42 4 61l208 207c17 17 30 23 44 23c13 0 26 -7 43 -23z" />
    <glyph glyph-name="uni2197" unicode="&#x2197;" horiz-adv-x="720" 
d="M600 685c9 -9 14 -23 14 -46v-296c0 -25 -16 -45 -40 -45c-26 0 -40 20 -40 45v215l-376 -376c-21 -21 -48 -19 -64 -2c-17 16 -20 43 2 64l376 376h-212c-26 0 -46 16 -46 40c0 25 20 40 46 40h293c23 0 37 -5 47 -15z" />
    <glyph glyph-name="arrowright" unicode="&#x2192;" horiz-adv-x="720" 
d="M645 394c16 -16 22 -30 21 -43c0 -14 -5 -26 -21 -43l-208 -208c-19 -19 -44 -21 -61 -5c-17 17 -15 42 4 61l153 154h-433c-28 0 -46 17 -46 41s19 41 46 41h435l-153 153c-18 19 -21 44 -4 61c17 16 43 14 61 -5z" />
    <glyph glyph-name="uni2198" unicode="&#x2198;" horiz-adv-x="720" 
d="M574 402c24 0 40 -20 40 -45v-296c0 -23 -5 -37 -14 -46c-10 -10 -24 -15 -47 -15h-293c-26 0 -46 15 -46 40c0 24 20 40 46 40h212l-376 376c-22 21 -19 49 -2 65c16 16 43 18 64 -3l376 -376v215c0 25 14 45 40 45z" />
    <glyph glyph-name="arrowdown" unicode="&#x2193;" horiz-adv-x="720" 
d="M616 289c17 -17 15 -42 -4 -60l-209 -210c-17 -16 -30 -23 -43 -23c-14 0 -27 6 -44 23l-208 207c-19 19 -20 44 -4 61c17 17 42 14 61 -4l151 -151v524c0 31 22 48 44 48c23 0 45 -17 45 -47v-522l151 150c19 19 43 21 60 4z" />
    <glyph glyph-name="uni2199" unicode="&#x2199;" horiz-adv-x="720" 
d="M627 521c16 -16 19 -44 -3 -65l-376 -376h213c25 0 45 -16 45 -40c0 -25 -20 -40 -45 -40h-294c-23 0 -37 5 -47 15c-9 9 -14 23 -14 46v296c0 25 16 45 40 45c26 0 40 -20 40 -45v-215l376 376c21 21 48 19 65 3z" />
    <glyph glyph-name="arrowleft" unicode="&#x2190;" horiz-adv-x="720" 
d="M620 392c27 0 46 -17 46 -41s-18 -41 -46 -41h-434l154 -154c18 -19 21 -44 3 -61c-17 -16 -42 -14 -60 5l-208 208c-16 17 -21 29 -21 43c-1 13 4 27 21 43l206 207c18 19 44 21 60 5c18 -17 15 -42 -3 -61l-154 -153h436z" />
    <glyph glyph-name="uni2196" unicode="&#x2196;" horiz-adv-x="720" 
d="M619 244c22 -21 19 -48 3 -64c-17 -17 -44 -19 -65 2l-376 376v-215c0 -25 -14 -45 -40 -45c-24 0 -40 20 -40 45v296c0 23 5 37 14 46c10 10 24 15 47 15h294c25 0 45 -15 45 -40c0 -24 -20 -40 -45 -40h-213z" />
    <glyph glyph-name="arrowboth" unicode="&#x2194;" horiz-adv-x="720" 
d="M685 395c17 -17 22 -30 22 -44c-1 -13 -6 -26 -22 -42l-208 -208c-17 -18 -42 -22 -60 -4s-14 42 4 60l155 155h-432l155 -155c18 -18 22 -42 4 -60s-43 -15 -60 4l-208 208c-16 16 -21 29 -22 42c0 14 5 27 22 44l205 206c18 19 43 21 61 4c17 -18 13 -42 -4 -60
l-154 -154h434l-154 154c-17 18 -21 42 -4 60c18 17 43 15 61 -4z" />
    <glyph glyph-name="arrowupdn" unicode="&#x2195;" horiz-adv-x="720" 
d="M554 230c18 18 42 22 60 4c17 -17 15 -42 -4 -60l-206 -206c-17 -17 -30 -23 -44 -23c-13 0 -26 7 -42 23l-209 208c-18 18 -21 43 -3 60c18 18 42 14 60 -3l150 -150v485l-150 -149c-18 -18 -42 -22 -60 -4c-17 17 -14 42 4 60l206 206c17 17 30 23 44 23
c13 0 26 -7 43 -23l208 -208c18 -18 21 -43 3 -60c-18 -18 -42 -14 -60 3l-149 149v-483z" />
    <glyph glyph-name="lozenge" unicode="&#x25ca;" horiz-adv-x="524" 
d="M475 384c15 -26 13 -44 0 -68l-172 -298c-21 -35 -63 -34 -83 0l-172 300c-13 22 -14 41 1 66l172 299c20 33 61 34 82 0zM263 108l137 241l-139 243l-139 -240z" />
    <glyph glyph-name="uniF8FF" unicode="&#xf8ff;" horiz-adv-x="752" 
d="M672 22c0 -11 -9 -22 -22 -22c-2 0 -3 0 -7 1l-267 77l-267 -77c-4 -1 -5 -1 -7 -1c-13 0 -22 11 -22 22v595c0 10 7 19 16 22l270 78c3 1 8 2 10 2s7 -1 10 -2l270 -78c9 -3 16 -12 16 -22v-595zM354 669l-230 -67c8 -125 106 -225 230 -236v303zM398 366
c124 11 222 111 230 236l-230 67v-303zM123 51l231 67v204c-98 8 -183 62 -231 141v-412zM629 463c-49 -79 -133 -133 -231 -141v-204l231 -67v412z" />
    <glyph glyph-name="at" unicode="@" horiz-adv-x="798" 
d="M490 451c21 0 38 -16 38 -40v-183c0 -42 24 -64 57 -64c44 0 87 43 87 130c0 147 -114 278 -270 278c-158 0 -276 -135 -276 -303c0 -167 119 -302 277 -302c58 0 111 15 151 45c23 16 45 14 58 0c12 -14 11 -39 -11 -58c-41 -37 -112 -62 -199 -62
c-204 0 -356 168 -356 377c0 210 152 378 356 378c202 0 351 -162 351 -352c0 -136 -85 -205 -170 -205c-42 0 -78 14 -101 43c-25 -31 -58 -44 -91 -44c-92 0 -148 86 -148 182c0 98 57 183 148 183c22 0 47 -7 66 -23c6 13 19 20 33 20zM396 162c22 0 43 12 56 36v149
c-15 24 -35 34 -57 34c-37 0 -74 -36 -74 -110c0 -70 34 -109 75 -109z" />
    <glyph glyph-name="ampersand" unicode="&#x26;" horiz-adv-x="567" 
d="M541 71c23 -27 18 -53 1 -67c-17 -13 -46 -10 -65 12l-53 63c-49 -56 -112 -88 -189 -88c-119 0 -201 74 -201 186c0 84 46 157 128 215c-57 70 -76 117 -76 162c0 90 68 155 154 155c88 0 153 -68 153 -152c0 -65 -38 -126 -110 -176l135 -163c15 32 26 68 34 108
c7 30 31 40 52 34c19 -5 34 -25 27 -55c-13 -60 -32 -112 -56 -155zM239 626c-35 0 -62 -27 -62 -67c0 -29 12 -64 57 -119c46 31 69 74 69 115c0 42 -28 71 -64 71zM238 75c51 0 98 22 133 67l-157 188c-65 -49 -90 -98 -90 -147c0 -68 48 -108 114 -108z" />
    <glyph glyph-name="paragraph" unicode="&#xb6;" horiz-adv-x="557" 
d="M292 -158c-21 0 -40 16 -40 42v403h-37c-112 0 -188 88 -188 206c0 119 84 207 210 207h201c22 0 43 -17 43 -45v-771c0 -26 -19 -42 -40 -42s-40 16 -40 42v737h-69v-737c0 -26 -19 -42 -40 -42z" />
    <glyph glyph-name="section" unicode="&#xa7;" horiz-adv-x="495" 
d="M401 161c28 -27 42 -60 42 -100c0 -94 -80 -165 -192 -165c-87 0 -161 47 -190 115c-15 30 -4 53 14 60c18 9 40 2 54 -21c28 -45 72 -70 124 -70c59 0 98 32 98 77c0 30 -17 58 -70 80c-44 18 -87 33 -125 49c-72 30 -113 78 -113 145c0 46 20 85 54 113
c-26 27 -40 61 -40 100c0 94 80 165 192 165c86 0 160 -47 191 -117c13 -28 3 -50 -15 -58s-41 -2 -55 21c-27 45 -70 71 -123 71c-59 0 -98 -32 -98 -78c0 -29 18 -59 71 -81c42 -17 85 -33 123 -48c72 -29 113 -78 113 -144c0 -48 -21 -88 -55 -114zM195 260
c34 -15 77 -29 120 -46c10 -4 19 -8 27 -12c18 16 28 37 28 63c0 34 -21 60 -67 80c-33 15 -76 30 -119 46l-28 12c-18 -17 -27 -38 -27 -63c0 -34 20 -60 66 -80z" />
    <glyph glyph-name="copyright" unicode="&#xa9;" horiz-adv-x="807" 
d="M404 -27c-202 0 -358 164 -358 377s156 378 358 378s358 -165 358 -378s-156 -377 -358 -377zM404 48c157 0 277 131 277 302s-120 303 -277 303s-278 -132 -278 -303s121 -302 278 -302zM406 123c-103 0 -179 101 -179 227c0 127 76 228 179 228c72 0 123 -48 142 -105
c9 -26 -1 -44 -17 -49c-16 -6 -36 -1 -46 21c-15 38 -42 59 -79 59c-51 0 -100 -54 -100 -154c0 -99 49 -153 100 -153c37 0 64 21 80 59c9 22 29 28 45 22s26 -24 17 -50c-19 -57 -70 -105 -142 -105z" />
    <glyph glyph-name="registered" unicode="&#xae;" horiz-adv-x="807" 
d="M404 728c202 0 358 -165 358 -378s-156 -377 -358 -377s-358 164 -358 377s156 378 358 378zM404 48c157 0 277 131 277 302s-120 303 -277 303s-278 -132 -278 -303s121 -302 278 -302zM558 440c0 -53 -25 -94 -67 -116l62 -141c11 -25 0 -45 -17 -52s-40 -1 -51 25
l-66 150h-8h-67v-138c0 -23 -16 -39 -38 -39c-20 0 -37 16 -37 39v367c0 24 18 39 36 39h104c86 0 149 -54 149 -134zM344 508v-135h71c39 0 66 24 66 67c0 44 -31 68 -72 68h-65z" />
    <glyph glyph-name="uni2117" unicode="&#x2117;" horiz-adv-x="807" 
d="M404 728c202 0 358 -165 358 -378s-156 -377 -358 -377s-358 164 -358 377s156 378 358 378zM404 48c157 0 277 131 277 302s-120 303 -277 303s-278 -132 -278 -303s121 -302 278 -302zM421 574c86 0 148 -55 148 -134c0 -82 -61 -133 -146 -133h-68v-139
c0 -23 -17 -39 -38 -39c-20 0 -37 16 -37 39v367c0 24 18 39 35 39h106zM426 373c39 0 66 24 66 67c0 42 -29 68 -72 68h-65v-135h71z" />
    <glyph glyph-name="trademark" unicode="&#x2122;" horiz-adv-x="615" 
d="M534 701c19 0 36 -15 36 -39v-234c0 -23 -17 -35 -32 -35c-17 0 -33 12 -33 35v129l-37 -67c-8 -15 -20 -22 -34 -22c-13 0 -25 7 -34 22l-37 67v-129c0 -23 -16 -35 -32 -35c-17 0 -32 12 -32 35v234c0 22 15 39 35 39c17 0 28 -8 37 -25l64 -117l63 117
c9 17 19 25 36 25zM229 700c20 0 34 -13 34 -30c0 -18 -14 -31 -34 -31h-53v-210c0 -22 -15 -36 -34 -36s-34 14 -34 36v210h-53c-20 0 -34 13 -34 31c0 17 14 30 34 30h174z" />
    <glyph glyph-name="degree" unicode="&#xb0;" horiz-adv-x="278" 
d="M139 451c-64 0 -117 56 -117 129s53 129 117 129s117 -56 117 -129s-53 -129 -117 -129zM139 509c31 0 56 30 56 71c0 40 -25 71 -56 71s-56 -31 -56 -71c0 -41 25 -71 56 -71z" />
    <glyph glyph-name="bar" unicode="|" horiz-adv-x="240" 
d="M120 -158c-23 0 -45 17 -45 48v766c0 31 22 48 45 48s44 -17 44 -48v-766c0 -31 -21 -48 -44 -48z" />
    <glyph glyph-name="brokenbar" unicode="&#xa6;" horiz-adv-x="240" 
d="M120 335c-23 0 -45 17 -45 46v276c0 30 22 47 45 47s44 -17 44 -47v-276c0 -29 -21 -46 -44 -46zM120 -156c-23 0 -45 17 -45 47v276c0 29 22 47 45 47s44 -18 44 -47v-276c0 -30 -21 -47 -44 -47z" />
    <glyph glyph-name="dagger" unicode="&#x2020;" horiz-adv-x="364" 
d="M303 499c25 0 44 -14 44 -38s-19 -38 -44 -38h-77v-533c0 -31 -21 -48 -44 -48s-45 17 -45 48v533h-75c-26 0 -45 14 -45 38s19 38 45 38h75v157c0 31 22 48 45 48s44 -17 44 -48v-157h77z" />
    <glyph glyph-name="uni2113" unicode="&#x2113;" horiz-adv-x="462" 
d="M369 103c13 -12 17 -35 -2 -58c-27 -34 -73 -54 -125 -54c-91 0 -153 53 -157 148l-24 -9c-27 -10 -47 1 -54 19s1 42 27 52l51 19v294c0 121 68 195 168 195c102 0 173 -84 173 -225c0 -145 -79 -247 -214 -298l-39 -14v-19c0 -55 31 -80 74 -80c25 0 48 10 66 25
c20 18 41 18 56 5zM173 507v-255l15 6c99 39 148 109 148 223c0 90 -35 143 -83 143c-49 0 -80 -41 -80 -117z" />
    <glyph glyph-name="daggerdbl" unicode="&#x2021;" horiz-adv-x="370" 
d="M310 339c24 0 43 -14 43 -39c0 -24 -19 -38 -43 -38h-83v-372c0 -31 -22 -48 -45 -48s-44 17 -44 48v372h-76c-26 0 -45 14 -45 38c0 25 19 39 45 39h76v83h-76c-26 0 -45 14 -45 38c0 25 19 39 45 39h76v157c0 31 21 48 44 48s45 -17 45 -48v-157h83c24 0 43 -14 43 -39
c0 -24 -19 -38 -43 -38h-83v-83h83z" />
    <glyph glyph-name="estimated" unicode="&#x212e;" horiz-adv-x="732" 
d="M642 333h-446v-160c0 -15 10 -29 22 -41c43 -45 101 -66 164 -66c71 0 153 36 192 122c13 26 36 31 53 24c16 -7 26 -28 14 -54c-42 -106 -152 -167 -260 -167c-184 0 -335 140 -335 359c0 218 157 359 331 359c170 0 309 -144 309 -329c0 -30 -22 -47 -44 -47zM216 576
c-13 -14 -20 -27 -20 -42v-131h337v132c0 15 -7 28 -19 41c-35 38 -86 60 -148 60c-58 0 -115 -24 -150 -60z" />
    <glyph glyph-name="uni2120" unicode="&#x2120;" horiz-adv-x="590" 
d="M174 556c35 -17 53 -41 53 -75c0 -54 -42 -89 -97 -89c-41 0 -73 20 -89 53c-12 18 -6 35 7 42c12 7 28 4 38 -11c9 -17 26 -27 44 -27c19 0 34 11 34 27c0 14 -8 24 -27 33c-22 11 -38 16 -62 30c-34 19 -48 44 -48 74c0 57 47 89 100 89c39 0 70 -17 86 -49
c10 -16 7 -33 -4 -40c-12 -8 -30 -6 -41 8c-12 17 -26 24 -43 24c-19 0 -35 -10 -35 -27c0 -16 9 -24 23 -32c20 -11 41 -20 61 -30zM509 701c19 0 35 -15 35 -40v-233c0 -23 -16 -35 -31 -35c-17 0 -33 12 -33 35v129l-37 -67c-8 -15 -20 -22 -34 -22s-25 7 -34 22l-37 67
v-129c0 -23 -16 -35 -32 -35c-17 0 -32 12 -32 35v233c0 23 15 40 35 40c17 0 28 -8 37 -25l64 -117l63 117c9 16 19 25 36 25z" />
    <glyph glyph-name="uni02C9" unicode="&#x2c9;" horiz-adv-x="296" 
d="M71 586c-23 0 -41 13 -41 36s18 35 41 35h156c22 0 39 -12 39 -35s-17 -36 -39 -36h-156z" />
    <glyph glyph-name="uni0308" unicode="&#x308;" 
d="M-259 569c-29 0 -55 22 -55 55s26 56 55 56s55 -23 55 -56s-26 -55 -55 -55zM-85 569c-29 0 -55 22 -55 55s26 56 55 56s55 -23 55 -56s-26 -55 -55 -55z" />
    <glyph glyph-name="uni0307" unicode="&#x307;" 
d="M-85 569c-29 0 -55 22 -55 55s26 56 55 56s55 -23 55 -56s-26 -55 -55 -55z" />
    <glyph glyph-name="gravecomb" unicode="&#x300;" 
d="M-43 552c-16 -13 -40 -12 -59 10l-65 72c-17 21 -13 45 2 58s40 12 58 -10l65 -73c18 -21 13 -45 -1 -57z" />
    <glyph glyph-name="acutecomb" unicode="&#x301;" 
d="M-161 552c-14 12 -19 36 -1 57l64 73c19 22 44 23 59 10s19 -37 1 -58l-64 -72c-19 -22 -43 -23 -59 -10z" />
    <glyph glyph-name="uni030B" unicode="&#x30b;" 
d="M-296 551c-15 12 -19 36 -1 57l66 74c18 22 42 22 57 10s19 -36 2 -56l-67 -75c-18 -21 -42 -22 -57 -10zM-161 551c-15 12 -19 36 -2 57l67 74c18 22 42 22 57 10c14 -12 19 -36 1 -56l-66 -75c-18 -21 -42 -22 -57 -10z" />
    <glyph glyph-name="uni030C.alt" 
d="M-82 492c-22 1 -37 19 -35 47l11 125c2 27 23 41 43 39c21 -1 38 -20 36 -47l-11 -125c-3 -27 -24 -41 -44 -39z" />
    <glyph glyph-name="uni0302" unicode="&#x302;" 
d="M-48 620c20 -17 23 -38 10 -54c-12 -15 -35 -16 -54 0l-52 43l-53 -43c-19 -16 -42 -15 -55 0c-11 16 -9 38 11 54l63 52c13 11 23 15 33 15c11 0 21 -4 34 -15z" />
    <glyph glyph-name="uni030C" unicode="&#x30c;" 
d="M-38 674c12 -15 10 -37 -10 -54l-63 -52c-13 -11 -23 -15 -34 -15c-10 0 -20 4 -33 15l-63 52c-20 17 -23 39 -11 54c13 15 36 16 55 0l53 -42l52 42c19 16 42 15 54 0z" />
    <glyph glyph-name="uni0306" unicode="&#x306;" 
d="M-134 554c-61 0 -103 38 -105 93c-1 24 14 39 32 39c19 1 33 -12 36 -34c3 -23 16 -35 37 -35c20 0 33 12 36 35c3 22 17 35 36 34c19 0 33 -15 32 -39c-2 -54 -42 -93 -104 -93z" />
    <glyph glyph-name="uni030A" unicode="&#x30a;" 
d="M-115 540c-50 0 -86 37 -86 82s36 81 86 81s85 -36 85 -81s-35 -82 -85 -82zM-115 589c18 0 32 15 32 33c0 19 -14 32 -32 32s-32 -13 -32 -32c0 -18 14 -33 32 -33z" />
    <glyph glyph-name="tildecomb" unicode="&#x303;" 
d="M-255 564c-17 3 -27 18 -22 43c8 39 38 62 75 62c14 0 26 -2 36 -6c17 -7 28 -13 43 -20c6 -3 11 -5 17 -5c8 0 12 4 17 13c8 20 25 27 42 23c15 -4 26 -19 21 -43c-7 -39 -37 -63 -74 -63c-15 0 -27 2 -37 6c-17 7 -28 14 -43 20c-6 3 -11 5 -17 5c-8 0 -12 -3 -17 -13
c-8 -20 -25 -26 -41 -22z" />
    <glyph glyph-name="uni0304" unicode="&#x304;" 
d="M-225 585c-23 0 -41 13 -41 36s18 35 41 35h156c22 0 39 -12 39 -35s-17 -36 -39 -36h-156z" />
    <glyph glyph-name="uni0312" unicode="&#x312;" 
d="M-55 644c12 -9 20 -24 20 -42c0 -31 -24 -54 -53 -54s-53 23 -53 55c0 14 4 31 16 48l33 50c15 23 37 25 51 16c13 -8 17 -28 4 -47z" />
    <glyph glyph-name="uni0326" unicode="&#x326;" 
d="M-84 -38c29 0 54 -23 54 -55c0 -14 -5 -31 -16 -48l-34 -50c-15 -23 -36 -25 -51 -16c-13 9 -17 28 -3 48l17 25c-12 9 -20 24 -20 42c0 31 24 54 53 54z" />
    <glyph glyph-name="uni0327" unicode="&#x327;" 
d="M-106 -22c42 0 76 -28 76 -69c0 -48 -39 -76 -93 -76c-27 0 -52 6 -68 17c-18 12 -18 30 -9 41c7 8 20 10 35 3c15 -9 26 -12 43 -12c19 0 34 10 34 26c0 13 -12 24 -29 24c-9 0 -15 -1 -24 -5c-12 -5 -23 -5 -31 1c-9 7 -12 19 -3 33l40 66l54 -8z" />
    <glyph glyph-name="uni0328" unicode="&#x328;" 
d="M-82 -163c-56 -2 -98 34 -98 87c0 46 34 86 86 107l36 -21c-35 -23 -53 -45 -53 -72c0 -24 15 -38 38 -39c20 -2 33 -13 32 -30c0 -19 -15 -31 -41 -32z" />
    <glyph glyph-name="acute" unicode="&#xb4;" horiz-adv-x="208" 
d="M43 553c-14 12 -19 36 -1 57l64 73c19 22 44 23 59 10s19 -37 1 -58l-64 -72c-19 -22 -43 -23 -59 -10z" />
    <glyph glyph-name="breve" unicode="&#x2d8;" horiz-adv-x="269" 
d="M135 554c-61 0 -103 38 -105 93c-1 24 14 39 32 39c19 1 33 -12 36 -34c3 -23 16 -35 37 -35c20 0 33 12 36 35c3 22 17 35 36 34c19 0 33 -15 32 -39c-2 -54 -42 -93 -104 -93z" />
    <glyph glyph-name="caron" unicode="&#x2c7;" horiz-adv-x="289" 
d="M251 674c12 -15 10 -37 -10 -54l-63 -52c-13 -11 -23 -15 -34 -15c-10 0 -20 4 -33 15l-63 52c-20 17 -23 39 -11 54c13 15 36 16 55 0l53 -42l52 42c19 16 42 15 54 0z" />
    <glyph glyph-name="cedilla" unicode="&#xb8;" horiz-adv-x="235" 
d="M129 -22c42 0 76 -28 76 -69c0 -48 -39 -76 -93 -76c-27 0 -52 6 -68 17c-18 12 -18 30 -9 41c7 8 20 10 35 3c15 -9 26 -12 43 -12c19 0 34 10 34 26c0 13 -12 24 -29 24c-9 0 -15 -1 -24 -5c-12 -5 -23 -5 -31 1c-9 7 -12 19 -3 33l40 66l54 -8z" />
    <glyph glyph-name="circumflex" unicode="&#x2c6;" horiz-adv-x="289" 
d="M241 620c20 -17 23 -38 10 -54c-12 -15 -35 -16 -54 0l-52 43l-53 -43c-19 -16 -42 -15 -55 0c-11 16 -9 38 11 54l63 52c13 11 23 15 33 15c11 0 21 -4 34 -15z" />
    <glyph glyph-name="dieresis" unicode="&#xa8;" horiz-adv-x="344" 
d="M85 569c-29 0 -55 22 -55 55s26 56 55 56s55 -23 55 -56s-26 -55 -55 -55zM259 569c-29 0 -55 22 -55 55s26 56 55 56s55 -23 55 -56s-26 -55 -55 -55z" />
    <glyph glyph-name="dotaccent" unicode="&#x2d9;" horiz-adv-x="170" 
d="M85 569c-29 0 -55 22 -55 55s26 56 55 56s55 -23 55 -56s-26 -55 -55 -55z" />
    <glyph glyph-name="grave" unicode="`" horiz-adv-x="204" 
d="M161 553c-16 -13 -40 -12 -59 10l-65 72c-17 21 -13 45 2 58s40 12 58 -10l65 -73c18 -21 13 -45 -1 -57z" />
    <glyph glyph-name="hungarumlaut" unicode="&#x2dd;" horiz-adv-x="343" 
d="M43 551c-15 12 -19 36 -1 57l66 74c18 22 42 22 57 10s19 -36 2 -57l-67 -74c-18 -22 -42 -22 -57 -10zM178 551c-15 12 -19 36 -2 57l67 74c18 22 42 22 57 10c14 -12 19 -36 1 -57l-66 -74c-18 -22 -42 -22 -57 -10z" />
    <glyph glyph-name="macron" unicode="&#xaf;" horiz-adv-x="296" 
d="M71 586c-23 0 -41 13 -41 36s18 35 41 35h156c22 0 39 -12 39 -35s-17 -36 -39 -36h-156z" />
    <glyph glyph-name="ogonek" unicode="&#x2db;" horiz-adv-x="199" 
d="M128 -163c-56 -2 -98 34 -98 87c0 46 34 86 86 107l36 -21c-35 -23 -53 -45 -53 -72c0 -24 15 -38 38 -39c20 -2 33 -13 32 -30c0 -19 -15 -31 -41 -32z" />
    <glyph glyph-name="ring" unicode="&#x2da;" horiz-adv-x="231" 
d="M116 538c-50 0 -86 37 -86 82s36 82 86 82c49 0 85 -37 85 -82s-36 -82 -85 -82zM116 588c18 0 31 14 31 32c0 19 -13 32 -31 32s-32 -13 -32 -32c0 -18 14 -32 32 -32z" />
    <glyph glyph-name="tilde" unicode="&#x2dc;" horiz-adv-x="314" 
d="M54 564c-17 3 -27 18 -22 43c8 39 38 62 74 62c14 0 26 -2 37 -6c16 -7 27 -13 42 -20c7 -3 12 -5 17 -5c8 0 13 4 17 13c8 20 26 27 42 23s26 -19 21 -43c-7 -39 -37 -63 -74 -63c-14 0 -26 2 -37 6c-17 7 -28 14 -42 20c-7 3 -12 5 -17 5c-8 0 -13 -3 -17 -13
c-8 -20 -26 -26 -41 -22z" />
    <glyph glyph-name="uni0308.cap" 
d="M-259 754c-29 0 -55 22 -55 56c0 33 26 55 55 55s55 -22 55 -55c0 -34 -26 -56 -55 -56zM-85 754c-29 0 -55 22 -55 56c0 33 26 55 55 55s55 -22 55 -55c0 -34 -26 -56 -55 -56z" />
    <glyph glyph-name="uni0307.cap" 
d="M-85 754c-29 0 -55 22 -55 56c0 33 26 55 55 55s55 -22 55 -55c0 -34 -26 -56 -55 -56z" />
    <glyph glyph-name="gravecomb.cap" 
d="M-43 744c-16 -13 -40 -12 -59 10l-65 72c-17 21 -13 45 2 58s40 12 58 -10l65 -73c18 -21 13 -45 -1 -57z" />
    <glyph glyph-name="acutecomb.cap" 
d="M-161 744c-14 12 -19 36 -1 57l64 73c19 22 44 23 59 10s19 -37 1 -58l-64 -72c-19 -22 -43 -23 -59 -10z" />
    <glyph glyph-name="uni030B.cap" 
d="M-296 746c-15 12 -19 35 -1 56l66 74c18 23 42 23 57 11s19 -36 2 -57l-67 -74c-18 -22 -42 -23 -57 -10zM-161 746c-15 12 -19 36 -2 56l67 74c18 23 42 23 57 11c14 -12 19 -36 1 -57l-66 -74c-18 -22 -42 -23 -57 -10z" />
    <glyph glyph-name="uni0302.cap" 
d="M-48 807c20 -16 23 -38 10 -53c-12 -16 -35 -16 -54 0l-52 43l-53 -43c-19 -16 -42 -16 -55 0c-11 15 -9 37 11 53l63 53c13 11 23 14 33 14c11 0 21 -3 34 -14z" />
    <glyph glyph-name="uni030C.cap" 
d="M-38 862c12 -16 10 -38 -10 -54l-63 -53c-13 -10 -23 -14 -34 -14c-10 0 -20 4 -33 14l-63 53c-20 16 -23 38 -10 54c12 15 35 16 54 0l53 -42l52 42c19 16 42 15 54 0z" />
    <glyph glyph-name="uni0306.cap" 
d="M-134 740c-61 0 -103 38 -105 93c-1 24 14 39 32 40c19 0 33 -13 36 -35s16 -35 37 -35c20 0 33 13 36 35s17 35 36 35c19 -1 33 -16 32 -40c-2 -54 -42 -93 -104 -93z" />
    <glyph glyph-name="uni030A.cap" 
d="M-115 725c-50 0 -86 36 -86 81c0 46 36 82 86 82c49 0 85 -36 85 -82c0 -45 -36 -81 -85 -81zM-115 774c18 0 31 15 31 32c0 19 -13 33 -31 33s-32 -14 -32 -33c0 -17 14 -32 32 -32z" />
    <glyph glyph-name="tildecomb.cap" 
d="M-260 751c-17 4 -27 19 -22 44c8 39 38 62 74 62c14 0 26 -2 37 -6c16 -7 27 -13 42 -20c7 -3 12 -5 17 -5c8 0 13 3 17 13c8 20 26 26 42 23c16 -4 26 -19 21 -43c-7 -39 -37 -63 -74 -63c-14 0 -26 2 -37 6c-17 7 -28 14 -42 20c-7 3 -12 5 -17 5c-8 0 -13 -4 -17 -13
c-8 -20 -26 -27 -41 -23z" />
    <glyph glyph-name="uni0304.cap" 
d="M-225 768c-23 0 -41 13 -41 36s18 35 41 35h156c22 0 39 -12 39 -35s-17 -36 -39 -36h-156z" />
    <glyph glyph-name="uni0327.cap" 
d="M-106 -22c42 0 76 -28 76 -69c0 -48 -39 -76 -93 -76c-27 0 -52 6 -68 17c-18 12 -18 30 -9 41c7 8 20 10 35 3c15 -9 26 -12 43 -12c19 0 34 10 34 26c0 13 -12 24 -29 24c-9 0 -15 -1 -24 -5c-12 -5 -23 -5 -31 1c-9 7 -12 19 -3 33l40 66l54 -8z" />
    <glyph glyph-name="uni0328.cap" 
d="M-81 -163c-56 -2 -98 34 -98 87c0 46 34 86 86 107l36 -21c-35 -23 -53 -45 -53 -72c0 -24 15 -38 38 -39c20 -2 33 -13 32 -30c0 -19 -15 -31 -41 -32z" />
    </font>
</defs>
</svg>
