<svg xmlns="http://www.w3.org/2000/svg" width="83" height="83" viewBox="0 0 83 83">
  <circle id="Ellipse_1" data-name="Ellipse 1" cx="41.5" cy="41.5" r="41.5" fill="#f08880"/>
  <g id="Groupe_189" data-name="Groupe 189" transform="translate(10.395 7.012)">
    <path id="Tracé_52" data-name="Tracé 52" d="M122.164,167.743c-.837-3.182.353-5.619,2.441-6.169a3.248,3.248,0,0,1,3.5,1.465.666.666,0,0,1-.014.944.675.675,0,0,1-.963-.148,2.12,2.12,0,0,0-2.187-1c-1.211.318-2.152,1.892-1.45,4.555s2.3,3.569,3.5,3.25a2.1,2.1,0,0,0,1.414-1.943.674.674,0,0,1,.766-.6.663.663,0,0,1,.475.814,3.249,3.249,0,0,1-2.321,3C125.239,172.462,122.987,170.93,122.164,167.743Z" transform="translate(-100.973 -161.478)" fill="#161615"/>
    <path id="Tracé_53" data-name="Tracé 53" d="M133.483,164.055a.571.571,0,0,1-.777.246,1.71,1.71,0,0,0-.757-.171,1.506,1.506,0,0,0-1.3.746l-.045,5.047a.643.643,0,0,1-.647.665.634.634,0,0,1-.634-.676l.056-6.208a.633.633,0,0,1,.647-.662.62.62,0,0,1,.607.451,2.2,2.2,0,0,1,1.434-.508,2.113,2.113,0,0,1,1.173.324A.558.558,0,0,1,133.483,164.055Z" transform="translate(-98.343 -160.944)" fill="#161615"/>
    <path id="Tracé_54" data-name="Tracé 54" d="M138.432,168.87l-3.791-.925c-.3,1.628.391,2.548,1.173,2.739a1.61,1.61,0,0,0,1.6-.715.615.615,0,0,1,.822-.106c.261.186.268.539.035.865a2.5,2.5,0,0,1-2.757,1.121c-1.592-.386-2.657-2.118-2.083-4.475.578-2.374,2.3-3.4,3.833-3.021,1.808.44,2.372,2.463,1.992,4.026A.638.638,0,0,1,138.432,168.87Zm-3.489-1.909,3.1.754c.184-1.2-.32-2.024-1.072-2.209C136.287,165.342,135.438,165.749,134.942,166.96Zm2.389-4.139,1.183-.83a.614.614,0,0,1,.888.062.6.6,0,0,1-.19.844l-1.179.817a.614.614,0,0,1-.89-.064A.587.587,0,0,1,137.331,162.821Z" transform="translate(-96.943 -161.351)" fill="#161615"/>
    <path id="Tracé_55" data-name="Tracé 55" d="M143.253,174.214a1.318,1.318,0,0,1-1.047-.144,1.2,1.2,0,0,1-.663-1.162,2.761,2.761,0,0,1-2.087-.3,2.068,2.068,0,0,1-.984-2.929,2.468,2.468,0,0,1,3.089-.963l1.728.544.074-.13c.5-.9.368-1.569-.318-1.955a1.461,1.461,0,0,0-1.67.171.609.609,0,0,1-.822-.119.577.577,0,0,1,.173-.826,2.529,2.529,0,0,1,2.975-.241,2.288,2.288,0,0,1,.865,3.443l-1.652,2.934c-.153.274-.068.458.088.546a.637.637,0,0,0,.269.066.481.481,0,0,1,.473.436A.651.651,0,0,1,143.253,174.214Zm-1.374-2.45.884-1.571-1.426-.443a1.375,1.375,0,0,0-1.712.49,1.026,1.026,0,0,0,.5,1.446A2,2,0,0,0,141.878,171.765Z" transform="translate(-95.203 -159.951)" fill="#161615"/>
    <path id="Tracé_56" data-name="Tracé 56" d="M145.368,176.771a1.888,1.888,0,0,1-1.622-.55,1.856,1.856,0,0,1,.005-2.856l2.944-3.179-.547-.508a.574.574,0,1,1,.769-.83l.547.506,1.063-1.147a.641.641,0,1,1,.94.871l-1.063,1.148,1.17,1.081a.572.572,0,1,1-.769.83l-1.17-1.081-2.883,3.114c-.464.5-.428.921-.089,1.235a.889.889,0,0,0,.651.24.6.6,0,0,1,.664.51A.625.625,0,0,1,145.368,176.771Z" transform="translate(-93.471 -159.176)" fill="#161615"/>
    <path id="Tracé_57" data-name="Tracé 57" d="M145.622,176.892l4.96-3.74a.646.646,0,0,1,.93.119.636.636,0,0,1-.149.917l-4.961,3.739a.648.648,0,1,1-.78-1.034Zm6.837-5.359a.82.82,0,0,1,1.159.152.808.808,0,0,1-.181,1.144.8.8,0,0,1-1.139-.149A.807.807,0,0,1,152.458,171.532Z" transform="translate(-92.669 -157.979)" fill="#161615"/>
    <path id="Tracé_58" data-name="Tracé 58" d="M149.731,176.487c2.218-1.028,4.11-.313,4.787,1.147s.007,3.383-2.211,4.41-4.1.292-4.779-1.167S147.514,177.514,149.731,176.487Zm2.019,4.355c1.609-.746,2.049-1.888,1.672-2.7s-1.53-1.212-3.14-.467-2.028,1.9-1.659,2.692S150.154,181.581,151.75,180.841Z" transform="translate(-91.986 -156.335)" fill="#161615"/>
    <path id="Tracé_59" data-name="Tracé 59" d="M154.535,187.764l-4.315.638a.642.642,0,0,1-.756-.535.634.634,0,0,1,.569-.733l4.078-.6c1.075-.16,1.521-.812,1.4-1.637a1.846,1.846,0,0,0-1.033-1.382l-4.875.723a.645.645,0,0,1-.757-.536.633.633,0,0,1,.569-.731l6.142-.91a.633.633,0,0,1,.756.535.622.622,0,0,1-.422.7,2.658,2.658,0,0,1,.844,1.634A2.382,2.382,0,0,1,154.535,187.764Z" transform="translate(-91.432 -154.194)" fill="#161615"/>
    <path id="Tracé_60" data-name="Tracé 60" d="M148.261,196.527a1.32,1.32,0,0,1-.112-1.051,1.194,1.194,0,0,1,.964-.923,2.769,2.769,0,0,1-.21-2.1,2.067,2.067,0,0,1,2.6-1.663,2.468,2.468,0,0,1,1.68,2.765l-.112,1.808.145.039c.991.272,1.611-.019,1.823-.78a1.463,1.463,0,0,0-.571-1.579.607.607,0,0,1-.08-.826.573.573,0,0,1,.841-.03,2.53,2.53,0,0,1,.953,2.827,2.288,2.288,0,0,1-3.133,1.67l-3.246-.892c-.3-.084-.459.042-.508.215a.64.64,0,0,0,0,.278.477.477,0,0,1-.309.563A.648.648,0,0,1,148.261,196.527Zm2.045-1.925,1.737.479.084-1.491c.024-.814-.284-1.376-.887-1.542a1.025,1.025,0,0,0-1.281.838A1.985,1.985,0,0,0,150.305,194.6Zm8.1-.566a.605.605,0,0,1,.825.257.6.6,0,0,1-.372.792l-1.305.646a.575.575,0,0,1-.811-.255.6.6,0,0,1,.372-.793Z" transform="translate(-91.697 -151.127)" fill="#161615"/>
    <path id="Tracé_61" data-name="Tracé 61" d="M146.816,198.3l7.561,5.252a.641.641,0,1,1-.73,1.053l-7.563-5.254a.642.642,0,0,1-.185-.909A.635.635,0,0,1,146.816,198.3Z" transform="translate(-92.513 -148.486)" fill="#161615"/>
    <path id="Tracé_62" data-name="Tracé 62" d="M141.709,204.253a1.326,1.326,0,0,1,.451-.957,1.2,1.2,0,0,1,1.305-.286,2.764,2.764,0,0,1,.911-1.9,2.065,2.065,0,0,1,3.089-.065,2.47,2.47,0,0,1,0,3.236l-1.036,1.485.1.107c.7.75,1.387.823,1.962.282a1.456,1.456,0,0,0,.334-1.642.608.608,0,0,1,.36-.749c.267-.107.578.028.735.413a2.531,2.531,0,0,1-.657,2.91,2.29,2.29,0,0,1-3.546-.2l-2.306-2.452c-.214-.227-.416-.2-.547-.081a.63.63,0,0,0-.144.24.479.479,0,0,1-.558.32A.653.653,0,0,1,141.709,204.253Zm2.746-.581,1.236,1.313.849-1.228a1.375,1.375,0,0,0,.045-1.781,1.027,1.027,0,0,0-1.53.049A2,2,0,0,0,144.455,203.672Z" transform="translate(-93.956 -147.702)" fill="#161615"/>
    <path id="Tracé_63" data-name="Tracé 63" d="M139.619,205.4l2.987,8.562a.664.664,0,0,1-.4.882l-2.432.849a2.891,2.891,0,0,1-3.8-1.846,2.8,2.8,0,0,1,1.733-3.759l1.911-.666-1.25-3.586a.658.658,0,0,1,.383-.891A.671.671,0,0,1,139.619,205.4Zm-1.511,5.794a1.593,1.593,0,0,0-.854,2.206,1.671,1.671,0,0,0,2.173,1.167l1.771-.619-1.193-3.415Z" transform="translate(-96.058 -146.1)" fill="#161615"/>
    <path id="Tracé_64" data-name="Tracé 64" d="M129.112,207.072a1.317,1.317,0,0,1,.957-.447,1.191,1.191,0,0,1,1.186.613,2.772,2.772,0,0,1,1.916-.879,2.068,2.068,0,0,1,2.417,1.926,2.468,2.468,0,0,1-2.07,2.485l-1.747.481.009.148c.062,1.026.542,1.519,1.328,1.471a1.461,1.461,0,0,0,1.308-1.048.607.607,0,0,1,.756-.347.578.578,0,0,1,.3.788,2.531,2.531,0,0,1-2.366,1.816,2.288,2.288,0,0,1-2.6-2.422l-.207-3.358c-.019-.313-.19-.422-.367-.412a.612.612,0,0,0-.264.092.483.483,0,0,1-.634-.111A.652.652,0,0,1,129.112,207.072Zm2.483,1.311.11,1.8,1.438-.4c.776-.241,1.209-.716,1.171-1.341a1.026,1.026,0,0,0-1.207-.941A1.994,1.994,0,0,0,131.595,208.383Z" transform="translate(-98.479 -145.588)" fill="#161615"/>
    <path id="Tracé_65" data-name="Tracé 65" d="M127.556,215.653a.822.822,0,0,1-.934.705.81.81,0,0,1-.673-.944.8.8,0,0,1,.917-.692A.808.808,0,0,1,127.556,215.653Zm1.118-8.615-.917,6.145a.643.643,0,0,1-.747.566.632.632,0,0,1-.534-.757l.915-6.145a.649.649,0,1,1,1.282.191Z" transform="translate(-99.54 -145.617)" fill="#161615"/>
    <path id="Tracé_66" data-name="Tracé 66" d="M126.267,206.528l-2.628,8.83a.642.642,0,1,1-1.229-.366l2.63-8.83a.645.645,0,0,1,.806-.462A.637.637,0,0,1,126.267,206.528Z" transform="translate(-100.802 -145.828)" fill="#161615"/>
    <path id="Tracé_67" data-name="Tracé 67" d="M123.989,205.647l-3.827,8.37a.641.641,0,1,1-1.164-.534l3.827-8.368a.641.641,0,0,1,.86-.344A.634.634,0,0,1,123.989,205.647Z" transform="translate(-102.022 -146.169)" fill="#161615"/>
    <path id="Tracé_68" data-name="Tracé 68" d="M116.613,204.409l3.143,2.314c.909-1.384.622-2.5-.027-2.98a1.6,1.6,0,0,0-1.751.045.617.617,0,0,1-.8-.221c-.169-.272-.038-.6.3-.814a2.505,2.505,0,0,1,2.976.028c1.32.971,1.636,2.978.2,4.934s-3.431,2.246-4.7,1.311c-1.5-1.1-1.242-3.189-.288-4.482A.636.636,0,0,1,116.613,204.409Zm2.486,3.106-2.567-1.89a1.778,1.778,0,0,0,.138,2.451C117.233,208.491,118.174,208.445,119.1,207.516Z" transform="translate(-103.453 -147.031)" fill="#161615"/>
    <path id="Tracé_69" data-name="Tracé 69" d="M115.715,198.636a1.892,1.892,0,0,1,1.54.757,1.856,1.856,0,0,1-.378,2.83L113.543,205l.475.573a.574.574,0,1,1-.871.723l-.477-.573-1.2,1a.641.641,0,1,1-.819-.983l1.2-1-1.02-1.225a.572.572,0,1,1,.871-.723l1.02,1.224,3.265-2.712c.527-.44.546-.86.251-1.215a.9.9,0,0,0-.616-.322.6.6,0,0,1-.592-.594A.626.626,0,0,1,115.715,198.636Z" transform="translate(-105.045 -148.321)" fill="#161615"/>
    <path id="Tracé_70" data-name="Tracé 70" d="M114.174,195.127a1.88,1.88,0,0,1,1.349,1.053,1.855,1.855,0,0,1-.952,2.692L110.74,200.9l.347.657a.573.573,0,1,1-1,.529l-.348-.659-1.383.73a.64.64,0,1,1-.6-1.131l1.383-.73-.743-1.408a.571.571,0,1,1,1-.528l.743,1.407,3.752-1.98c.605-.32.711-.729.494-1.136a.891.891,0,0,0-.535-.441.594.594,0,0,1-.455-.7A.619.619,0,0,1,114.174,195.127Z" transform="translate(-106.108 -149.57)" fill="#161615"/>
    <path id="Tracé_71" data-name="Tracé 71" d="M109.962,191.382l.965,3.777c1.579-.5,2.064-1.542,1.865-2.321a1.6,1.6,0,0,0-1.381-1.074.62.62,0,0,1-.481-.677c.042-.318.352-.49.75-.439a2.5,2.5,0,0,1,2.284,1.907c.4,1.586-.622,3.339-2.972,3.939s-4.074-.432-4.466-1.961c-.46-1.8,1.058-3.251,2.616-3.651A.639.639,0,0,1,109.962,191.382Zm-.045,3.973-.789-3.086c-1.141.4-1.636,1.234-1.445,1.982C107.858,194.93,108.615,195.489,109.917,195.355Z" transform="translate(-106.443 -151.152)" fill="#161615"/>
  </g>
</svg>
