<svg id="Groupe_69" data-name="Groupe 69" xmlns="http://www.w3.org/2000/svg" width="21" height="21" viewBox="0 0 21 21">
  <path id="Tracé_38" data-name="Tracé 38" d="M0,0H21V21H0Z" fill="none"/>
  <path id="Tracé_39" data-name="Tracé 39" d="M16.34,13.865,15.1,12.626l1.237-1.237A4.375,4.375,0,1,0,10.153,5.2L8.915,6.44,7.677,5.2,8.916,3.966a6.125,6.125,0,0,1,8.662,8.662l-1.238,1.237ZM13.865,16.34l-1.238,1.237A6.125,6.125,0,1,1,3.965,8.915L5.2,7.677,6.44,8.916,5.2,10.154a4.375,4.375,0,1,0,6.187,6.187L12.627,15.1l1.238,1.237Zm-.62-9.281L14.484,8.3,8.3,14.483,7.059,13.246,13.246,7.06Z" transform="translate(-0.271 -0.271)"  fill="#f08880"/>
</svg>
