<svg id="Groupe_34" data-name="Groupe 34" xmlns="http://www.w3.org/2000/svg" width="18" height="18" viewBox="0 0 18 18">
  <path id="Tracé_11" data-name="Tracé 11" d="M0,0H18V18H0Z" fill="none"/>
  <path id="Tracé_12" data-name="Tracé 12" d="M11.8,14.6V3.4H3.4V13.9a.7.7,0,0,0,.7.7ZM13.9,16H4.1A2.1,2.1,0,0,1,2,13.9V2.7A.7.7,0,0,1,2.7,2h9.8a.7.7,0,0,1,.7.7V7.6H16v6.3A2.1,2.1,0,0,1,13.9,16Zm-.7-7v4.9a.7.7,0,0,0,1.4,0V9ZM4.8,4.8H9V9H4.8ZM6.2,6.2V7.6H7.6V6.2ZM4.8,9.7h5.6v1.4H4.8Zm0,2.1h5.6v1.4H4.8Z"/>
</svg>
