<svg id="Groupe_128" data-name="Groupe 128" xmlns="http://www.w3.org/2000/svg" width="18" height="18" viewBox="0 0 18 18">
  <path id="Tracé_7" data-name="Tracé 7" d="M0,0H18V18H0Z" fill="none"/>
  <path id="Tracé_8" data-name="Tracé 8" d="M2,7.875V3.75A.75.75,0,0,1,2.75,3h13.5a.75.75,0,0,1,.75.75V7.875a1.875,1.875,0,0,0,0,3.75V15.75a.75.75,0,0,1-.75.75H2.75A.75.75,0,0,1,2,15.75V11.625a1.875,1.875,0,0,0,0-3.75ZM3.5,6.726a3.375,3.375,0,0,1,0,6.048V15h12V12.774a3.375,3.375,0,0,1,0-6.048V4.5H3.5ZM7.25,7.5h4.5V9H7.25Zm0,3h4.5V12H7.25Z" transform="translate(-0.5 -0.75)" fill="#fff"/>
</svg>
